SplineFontDB: 3.0
FontName: FifthLeg-Expanded-Bold
FullName: FifthLeg Expanded Bold
FamilyName: FifthLeg
Weight: Bold
Copyright: Designed by Jakub Steiner <jimmac@gmail.com> with FontForge 2.0\n\nhttp://jimmac.musichall.cz\n
UComments: "2008-8-26: Created." 
Version: 0.1
ItalicAngle: 0
UnderlinePosition: 122
UnderlineWidth: 49
Ascent: 800
Descent: 200
LayerCount: 2
Layer: 0 0 "Back" 
Layer: 1 0 "Fore" 
NeedsXUIDChange: 1
XUID: [1021 332 1867756345 9837774]
FSType: 4
OS2Version: 2
OS2_WeightWidthSlopeOnly: 0
OS2_UseTypoMetrics: 1
CreationTime: 1219682457
ModificationTime: 1240426009
PfmFamily: 33
TTFWeight: 700
TTFWidth: 7
LineGap: 0
VLineGap: 0
Panose: 0 0 4 0 0 0 0 0 0 0
OS2TypoAscent: -300
OS2TypoAOffset: 1
OS2TypoDescent: 75
OS2TypoDOffset: 1
OS2TypoLinegap: 0
OS2WinAscent: 0
OS2WinAOffset: 1
OS2WinDescent: 0
OS2WinDOffset: 1
HheadAscent: 0
HheadAOffset: 1
HheadDescent: 0
HheadDOffset: 1
OS2SubXSize: 500
OS2SubYSize: 500
OS2SubXOff: 0
OS2SubYOff: -62
OS2SupXSize: 500
OS2SupYSize: 500
OS2SupXOff: 0
OS2SupYOff: 500
OS2StrikeYSize: 50
OS2StrikeYPos: 199
OS2FamilyClass: 2048
OS2Vendor: 'SUSE'
OS2CodePages: 00000001.00000000
OS2UnicodeRanges: 80000001.00000000.00000000.00000000
Lookup: 258 0 0 "Pairwise Positioning (kerning) in Latin lookup 0"  {"Pairwise Positioning (kerning) in Latin lookup 0-1"  "Pairwise Positioning (kerning) in Latin lookup 0-2"  "Pairwise Positioning (kerning) in Latin lookup 0-3"  } ['def ' ('DFLT' <'dflt' > 'latn' <'dflt' > ) ]
DEI: 0

StartChar: b
Encoding: 256 98 0
Width: 507
VWidth: 0
Flags: HW
HStem: -4.30478 125.854<263.66 352.515> 342.55 125.885<268.149 352.712>
VStem: 43.35 121.55<0 44.2 132.6 342.55 414.375 614.192> 352.75 121.584<121.554 133.152 133.152 342.55>
LayerCount: 2
Back
SplineSet
474 131 m 2
 474 343 l 2
 474 381.667 462.5 413.667 439.5 439 c 128
 416.5 464.333 380.333 477 331 477 c 2
 316 477 l 2
 299.333 477 283.5 474.5 268.5 469.5 c 128
 253.5 464.5 239.833 458.833 227.5 452.5 c 128
 209 443 209 443 195 435.5 c 128
 185.667 430.5 178 428 172 428 c 256
 166 428 163 432 163 440 c 2
 163 676 l 1
 100 676 l 2
 88.6667 676 79.1667 672.167 71.5 664.5 c 128
 63.8333 656.833 60 647.333 60 636 c 2
 60 37 l 2
 60 29.6667 62.6667 21.6667 68 13 c 128
 73.3333 4.33333 82.6667 1.58946e-07 96 0 c 2
 130 0 l 1
 154 35 l 2
 156.667 39 159.5 41.5 162.5 42.5 c 128
 165.5 43.5 168.667 44 172 44 c 0
 178 44 185.667 41.5 195 36.5 c 128
 204.333 31.5 215.167 26.1667 227.5 20.5 c 128
 239.833 14.8333 253.5 9.5 268.5 4.5 c 128
 283.5 -0.5 299.333 -3 316 -3 c 2
 331 -3 l 2
 380.333 -3 416.5 9.66667 439.5 35 c 128
 462.5 60.3333 474 92.3333 474 131 c 2
371 137 m 2
 371 124.333 366.667 113.667 358 105 c 128
 349.333 96.3333 338.667 92 326 92 c 2
 208 92 l 2
 195.333 92 184.667 96.3333 176 105 c 128
 167.333 113.667 163 124.333 163 137 c 2
 163 337 l 2
 163 349.667 167.333 360.333 176 369 c 128
 184.667 377.667 195.333 382 208 382 c 2
 326 382 l 2
 338.667 382 349.333 377.667 358 369 c 128
 366.667 360.333 371 349.667 371 337 c 2
 371 137 l 2
EndSplineSet
Fore
SplineSet
164.9 674.05 m 1
 164.9 414.375 l 1
 308.55 464.1 l 6
 318.912 467.06 329.473 468.435 339.995 468.435 c 4
 408.008 468.435 474.334 411.009 474.334 353.531 c 6
 474.334 110.5 l 6
 474.334 53.584 407.871 -4.30469 339.784 -4.30469 c 4
 329.332 -4.30469 318.843 -2.94043 308.55 0 c 6
 164.9 44.2002 l 1
 164.9 0 l 1
 43.3496 0 l 1
 43.3496 541.45 l 2
 43.3496 629.85 104.125 674.05 164.9 674.05 c 1
175.95 342.55 m 2
 170.425 342.55 164.9 337.025 164.9 331.5 c 2
 164.9 132.6 l 2
 165.17 127.468 169.932 121.541 175.567 121.541 c 0
 175.694 121.541 175.822 121.55 175.95 121.55 c 2
 341.7 121.55 l 6
 347.225 121.55 352.75 127.075 352.75 133.152 c 6
 352.75 331.5 l 6
 352.75 337.025 347.225 342.55 341.7 342.55 c 6
 175.95 342.55 l 2
EndSplineSet
EndChar

StartChar: h
Encoding: 257 104 1
Width: 486
VWidth: 0
Flags: HW
HStem: -0.0348633 17.85G<43.35 164.9 330.65 452.234> 342.55 126.46<254.164 327.907>
VStem: 43.35 121.55<0 342.55 414.375 614.192> 330.65 121.584<-0.0348633 342.55>
LayerCount: 2
Back
SplineSet
474 40 m 2
 474 343 l 2
 474 381.667 462.5 413.667 439.5 439 c 128
 416.5 464.333 380.333 477 331 477 c 2
 316 477 l 2
 299.333 477 283.5 474.5 268.5 469.5 c 128
 253.5 464.5 239.833 458.833 227.5 452.5 c 128
 209 443 209 443 195 435.5 c 128
 185.667 430.5 178 428 172 428 c 256
 166 428 163 432 163 440 c 2
 163 676 l 1
 100 676 l 2
 88.6667 676 79.1667 672.167 71.5 664.5 c 128
 63.8333 656.833 60 647.333 60 636 c 2
 60 40 l 2
 60 28.6667 63.8333 19.1667 71.5 11.5 c 128
 79.1667 3.83333 88.6667 -7.94729e-08 100 0 c 2
 123 0 l 2
 134.333 0 143.833 3.83333 151.5 11.5 c 128
 159.167 19.1667 163 28.6667 163 40 c 2
 163 337 l 2
 163 349.667 167.333 360.333 176 369 c 128
 184.667 377.667 195.333 382 208 382 c 2
 326 382 l 2
 338.667 382 349.333 377.667 358 369 c 128
 366.667 360.333 371 349.667 371 337 c 2
 371 40 l 2
 371 28.6667 374.833 19.1667 382.5 11.5 c 128
 390.167 3.83333 399.667 -7.94729e-08 411 0 c 2
 434 0 l 2
 445.333 0 454.833 3.83333 462.5 11.5 c 128
 470.167 19.1667 474 28.6667 474 40 c 2
EndSplineSet
Fore
SplineSet
164.9 674.05 m 1
 164.9 414.375 l 1
 286.45 464.1 l 2
 295.626 467.438 305.811 469.011 316.488 469.011 c 0
 376.532 469.011 452.206 419.26 452.234 353.531 c 2
 452.234 -0.0351562 l 1
 330.65 -0.0351562 l 1
 330.65 331.5 l 2
 330.65 337.025 325.125 342.55 319.6 342.55 c 2
 175.95 342.55 l 2
 170.425 342.55 164.9 337.025 164.9 331.5 c 2
 164.9 0 l 1
 43.3496 0 l 1
 43.3496 541.45 l 2
 43.3496 629.85 104.125 674.05 164.9 674.05 c 1
EndSplineSet
EndChar

StartChar: m
Encoding: 258 109 2
Width: 699
VWidth: 0
Flags: HW
HStem: 0 17.85G<35.7 157.25 289.816 411.4 543.966 665.55> 342.619 126.316<222.514 289.812 475.667 543.962>
VStem: 35.7 121.55<0 342.619 424.458 464.1> 289.816 121.584<0 342.619> 543.966 121.584<0 342.619>
LayerCount: 2
Back
SplineSet
703 40 m 2
 703 370 l 2
 703 401.333 691.333 427 668 447 c 128
 644.667 467 614 477 576 477 c 2
 562 477 l 2
 551.333 477 539.833 474.667 527.5 470 c 128
 515.167 465.333 506 461.333 500 458 c 2
 463 437 l 2
 452.333 431 441.667 428 431 428 c 0
 423 428 416.167 430.5 410.5 435.5 c 128
 404.833 440.5 397.833 446.167 389.5 452.5 c 128
 381.167 458.833 370.5 464.5 357.5 469.5 c 128
 344.5 474.5 327.333 477 306 477 c 2
 294 477 l 2
 280 477 266.833 474.5 254.5 469.5 c 128
 242.167 464.5 230.667 458.833 220 452.5 c 128
 204 443 204 443 191.5 435.5 c 128
 183.167 430.5 176.333 428 171 428 c 0
 167.667 428 164.5 429 161.5 431 c 128
 158.5 433 156.333 435.333 155 438 c 2
 130 474 l 1
 96 474 l 2
 82.6667 474 73.3333 469.667 68 461 c 128
 62.6667 452.333 60 444.333 60 437 c 2
 60 40 l 2
 60 28.6667 63.8333 19.1667 71.5 11.5 c 128
 79.1667 3.83333 88.6667 -7.94729e-08 100 0 c 2
 123 0 l 2
 134.333 0 143.833 3.83333 151.5 11.5 c 128
 159.167 19.1667 163 28.6667 163 40 c 2
 163 347 l 2
 163 356.333 166.333 364.5 173 371.5 c 128
 179.667 378.5 187.667 382 197 382 c 2
 295 382 l 2
 304.333 382 312.5 378.5 319.5 371.5 c 128
 326.5 364.5 330 356.333 330 347 c 2
 330 40 l 2
 330 28.6667 333.833 19.1667 341.5 11.5 c 128
 349.167 3.83333 358.667 -7.94729e-08 370 0 c 2
 393 0 l 2
 404.333 0 413.833 3.83333 421.5 11.5 c 128
 429.167 19.1667 433 28.6667 433 40 c 2
 433 347 l 2
 433 356.333 436.333 364.5 443 371.5 c 128
 449.667 378.5 457.667 382 467 382 c 2
 565 382 l 2
 574.333 382 582.5 378.5 589.5 371.5 c 128
 596.5 364.5 600 356.333 600 347 c 2
 600 40 l 2
 600 28.6667 603.833 19.1667 611.5 11.5 c 128
 619.167 3.83333 628.667 -7.94729e-08 640 0 c 2
 663 0 l 2
 674.333 0 683.833 3.83333 691.5 11.5 c 128
 699.167 19.1667 703 28.6667 703 40 c 2
EndSplineSet
Fore
SplineSet
292.544 468.935 m 0
 292.799 468.935 l 0
 336.434 468.935 371.911 447.902 392.339 417.068 c 1
 510.85 464.342 l 2
 523.374 467.474 535.455 468.935 546.966 468.935 c 0
 616.706 468.935 665.55 415.249 665.55 353.6 c 2
 665.55 0 l 1
 543.966 0 l 1
 543.966 331.568 l 2
 543.966 337.094 538.441 342.619 532.916 342.619 c 2
 422.45 342.619 l 2
 416.688 342.424 411.4 336.886 411.4 331.417 c 2
 411.4 0 l 1
 289.816 0 l 1
 289.816 331.568 l 2
 289.816 337.094 284.291 342.619 278.766 342.619 c 2
 168.3 342.619 l 2
 162.844 342.55 157.318 336.956 157.25 331.432 c 2
 157.25 331.432 157.25 110.472 157.25 0 c 1
 35.7002 0 l 1
 35.7002 464.1 l 1
 157.25 464.1 l 1
 157.25 424.458 l 1
 256.7 464.342 l 2
 269.131 467.449 281.109 468.912 292.544 468.935 c 0
EndSplineSet
EndChar

StartChar: a
Encoding: 259 97 3
Width: 486
VWidth: 0
Flags: HW
HStem: -6.11934 125.047<144.415 219.206> 185.862 110.514<144.415 239.635> 342.55 121.55<133.747 329.962>
VStem: 22.8653 121.55<118.928 185.862> 332.265 121.55<0 41.6101 118.928 185.862 259.606 340.247>
LayerCount: 2
Back
SplineSet
457 37 m 2
 457 358 l 2
 457 373.333 454.667 388 450 402 c 128
 445.333 416 437.833 428.333 427.5 439 c 128
 417.167 449.667 403.833 458.167 387.5 464.5 c 128
 371.167 470.833 351.667 474 329 474 c 2
 132 474 l 2
 121.333 474 112.167 471.333 104.5 466 c 128
 96.8333 460.667 93 453 93 443 c 2
 93 382 l 1
 315 382 l 2
 326.333 382 335.667 377.833 343 369.5 c 128
 350.333 361.167 354 352.333 354 343 c 2
 354 269 l 2
 354 261 351 257 345 257 c 256
 339 257 331.333 259.5 322 264.5 c 128
 308 272 308 272 289.5 281.5 c 128
 277.167 287.833 263.667 293.5 249 298.5 c 128
 234.333 303.5 218.333 306 201 306 c 2
 186 306 l 2
 136.667 306 100.5 293.333 77.5 268 c 128
 54.5 242.667 43 210.667 43 172 c 2
 43 131 l 2
 43 92.3333 54.5 60.3333 77.5 35 c 128
 100.5 9.66667 136.667 -3 186 -3 c 2
 201 -3 l 2
 218.333 -3 234.333 -0.5 249 4.5 c 128
 263.667 9.5 277.167 14.8333 289.5 20.5 c 128
 301.833 26.1667 312.667 31.5 322 36.5 c 128
 331.333 41.5 339 44 345 44 c 0
 348.333 44 351.5 43.5 354.5 42.5 c 128
 357.5 41.5 360.333 39 363 35 c 2
 387 0 l 1
 421 0 l 2
 434.333 0 443.667 4.33333 449 13 c 128
 454.333 21.6667 457 29.6667 457 37 c 2
354 137 m 2
 354 124.333 349.667 113.667 341 105 c 128
 332.333 96.3333 321.667 92 309 92 c 2
 191 92 l 2
 178.333 92 167.667 96.3333 159 105 c 128
 150.333 113.667 146 124.333 146 137 c 2
 146 166 l 2
 146 178.667 150.333 189.333 159 198 c 128
 167.667 206.667 178.333 211 191 211 c 2
 309 211 l 2
 321.667 211 332.333 206.667 341 198 c 128
 349.667 189.333 354 178.667 354 166 c 2
 354 137 l 2
EndSplineSet
Fore
SplineSet
177.565 464.1 m 2
 277.015 464.1 l 2
 387.515 464.1 453.815 397.8 453.815 287.3 c 2
 453.815 0 l 1
 332.265 0 l 1
 332.265 41.6104 l 1
 171.47 0.0146484 l 2
 155.108 -4.16211 140.215 -6.11914 126.731 -6.11914 c 0
 54.6172 -6.11914 22.8652 49.8652 22.8652 121.55 c 2
 22.8652 201.11 l 2
 22.8652 264.619 60.3047 296.376 124.412 296.376 c 0
 138.957 296.376 154.875 294.741 172.04 291.471 c 2
 332.265 259.606 l 1
 332.265 331.5 l 2
 332.127 337.025 326.602 342.412 321.215 342.55 c 2
 100.215 342.55 l 1
 100.215 342.55 100.207 342.944 100.207 343.689 c 0
 100.207 356.006 102.35 464.1 177.565 464.1 c 2
144.415 174.812 m 2
 144.415 130.254 l 2
 144.415 124.723 150.209 118.928 155.465 118.928 c 2
 332.265 118.928 l 1
 332.265 185.862 l 1
 155.741 185.862 l 2
 149.657 185.862 144.415 180.896 144.415 174.812 c 2
EndSplineSet
EndChar

StartChar: u
Encoding: 260 117 4
Width: 502
VWidth: 0
Flags: HW
HStem: -1.70664 123.31<157.25 259.903>
VStem: 35.7 121.55<121.603 464.1> 345.1 121.55<0 34.9115 121.603 132.6 132.6 464.1>
LayerCount: 2
Back
SplineSet
474 37 m 2
 474 434 l 2
 474 445.333 470.167 454.833 462.5 462.5 c 128
 454.833 470.167 445.333 474 434 474 c 2
 411 474 l 2
 399.667 474 390.167 470.167 382.5 462.5 c 128
 374.833 454.833 371 445.333 371 434 c 2
 371 137 l 2
 371 124.333 366.667 113.667 358 105 c 128
 349.333 96.3333 338.667 92 326 92 c 2
 208 92 l 2
 195.333 92 184.667 96.3333 176 105 c 128
 167.333 113.667 163 124.333 163 137 c 2
 163 434 l 2
 163 445.333 159.167 454.833 151.5 462.5 c 128
 143.833 470.167 134.333 474 123 474 c 2
 100 474 l 2
 88.6667 474 79.1667 470.167 71.5 462.5 c 128
 63.8333 454.833 60 445.333 60 434 c 2
 60 130 l 2
 60 91.3333 71.5 59.5 94.5 34.5 c 128
 117.5 9.5 153.667 -3 203 -3 c 2
 218 -3 l 2
 235.333 -3 251.333 -0.5 266 4.5 c 128
 280.667 9.5 294.167 14.8333 306.5 20.5 c 128
 318.833 26.1667 329.667 31.5 339 36.5 c 128
 348.333 41.5 356 44 362 44 c 0
 365.333 44 368.5 43.5 371.5 42.5 c 128
 374.5 41.5 377 39.3333 379 36 c 2
 404 0 l 1
 438 0 l 2
 451.333 0 460.667 4.33333 466 13 c 128
 471.333 21.6667 474 29.6667 474 37 c 2
EndSplineSet
Fore
SplineSet
35.7002 464.1 m 1
 157.25 464.1 l 1
 157.25 132.688 l 2
 157.25 127.163 162.809 121.603 168.334 121.603 c 2
 334.05 121.603 l 2
 339.715 121.603 345.003 127.229 345.1 132.6 c 2
 345.1 464.1 l 1
 466.65 464.1 l 1
 466.65 0 l 1
 345.1 0 l 1
 345.1 34.9111 l 1
 201.61 4.6875 l 2
 179.343 0.37207 159.689 -1.70703 142.438 -1.70703 c 0
 64.6875 -1.70703 35.7002 40.5156 35.7002 110.5 c 2
 35.7002 464.1 l 1
EndSplineSet
EndChar

StartChar: n
Encoding: 261 110 5
Width: 551
VWidth: 0
Flags: HW
HStem: 340.79 123.31<293.447 396.1>
VStem: 86.7 121.55<-1.70762 329.792 329.792 340.79 427.481 462.392> 396.1 121.55<-1.70762 340.79>
LayerCount: 2
Back
SplineSet
474 40 m 2
 474 343 l 2
 474 381.667 462.5 413.667 439.5 439 c 128
 416.5 464.333 380.333 477 331 477 c 2
 316 477 l 2
 299.333 477 283.5 474.5 268.5 469.5 c 128
 253.5 464.5 239.667 458.833 227 452.5 c 128
 208 443 208 443 194 435.5 c 128
 184.667 430.5 177 428 171 428 c 256
 165 428 159.667 431.333 155 438 c 2
 130 474 l 1
 96 474 l 2
 82.6667 474 73.3333 469.667 68 461 c 128
 62.6667 452.333 60 444.333 60 437 c 2
 60 40 l 2
 60 28.6667 63.8333 19.1667 71.5 11.5 c 128
 79.1667 3.83333 88.6667 -7.94729e-08 100 0 c 2
 123 0 l 2
 134.333 0 143.833 3.83333 151.5 11.5 c 128
 159.167 19.1667 163 28.6667 163 40 c 2
 163 337 l 2
 163 349.667 167.333 360.333 176 369 c 128
 184.667 377.667 195.333 382 208 382 c 2
 326 382 l 2
 338.667 382 349.333 377.667 358 369 c 128
 366.667 360.333 371 349.667 371 337 c 2
 371 40 l 2
 371 28.6667 374.833 19.1667 382.5 11.5 c 128
 390.167 3.83333 399.667 -7.94729e-08 411 0 c 2
 434 0 l 2
 445.333 0 454.833 3.83333 462.5 11.5 c 128
 470.167 19.1667 474 28.6667 474 40 c 2
EndSplineSet
Fore
Refer: 4 117 N -1 0 0 -1 553.35 462.392 2
EndChar

StartChar: r
Encoding: 262 114 6
Width: 467
VWidth: 0
Flags: HW
HStem: 0 17.85G<35.7 157.25> 342.55 123.802<219.217 374.269>
VStem: 35.7 121.55<0 342.55 429.845 464.1>
LayerCount: 2
Back
SplineSet
391 382 m 1
 391 438 l 2
 391 449.333 387.333 458.167 380 464.5 c 128
 372.667 470.833 363.333 474 352 474 c 2
 265 474 l 2
 250.333 474 238.167 471.667 228.5 467 c 128
 218.833 462.333 210.667 457 204 451 c 128
 194 442 194 442 186.5 435 c 128
 181.5 430.333 176.333 428 171 428 c 0
 165 428 159.667 431.333 155 438 c 2
 130 474 l 1
 96 474 l 2
 82.6667 474 73.3333 469.667 68 461 c 128
 62.6667 452.333 60 444.333 60 437 c 2
 60 40 l 2
 60 28.6667 63.8333 19.1667 71.5 11.5 c 128
 79.1667 3.83333 88.6667 -7.94729e-08 100 0 c 2
 123 0 l 2
 134.333 0 143.833 3.83333 151.5 11.5 c 128
 159.167 19.1667 163 28.6667 163 40 c 2
 163 339 l 2
 163 351.667 167.333 362 176 370 c 128
 184.667 378 193.667 382 203 382 c 2
 391 382 l 1
EndSplineSet
Fore
SplineSet
157.25 464.1 m 1
 157.25 429.845 l 1
 264.435 460.785 l 2
 277.265 464.586 290.301 466.353 303.19 466.353 c 0
 376.227 466.353 444.603 409.608 444.603 344.436 c 0
 444.603 343.808 444.598 343.178 444.584 342.55 c 1
 168.3 342.55 l 2
 162.775 342.55 157.25 337.025 157.25 331.5 c 2
 157.25 0 l 1
 35.7002 0 l 1
 35.7002 464.1 l 1
 157.25 464.1 l 1
EndSplineSet
EndChar

StartChar: g
Encoding: 263 103 7
Width: 509
VWidth: 0
Flags: HW
HStem: -205.019 121.55<144.882 340.277> -4.14624 125.696<155.55 250.77> 341.505 122.594<155.55 230.341>
VStem: 34 121.55<121.55 339.779> 343.4 121.55<-82.2007 32.6245 121.55 341.505 416.371 464.1>
LayerCount: 2
Back
SplineSet
474 -95 m 2
 474 437 l 2
 474 444.333 471.333 452.333 466 461 c 128
 460.667 469.667 451.333 474 438 474 c 2
 404 474 l 1
 377 436 l 2
 373.667 430.667 368.667 428 362 428 c 0
 356 428 348.333 430.5 339 435.5 c 128
 325 443 325 443 306.5 452.5 c 128
 294.167 458.833 280.667 464.5 266 469.5 c 128
 251.333 474.5 235.333 477 218 477 c 2
 203 477 l 2
 153.667 477 117.5 464.333 94.5 439 c 128
 71.5 413.667 60 381.667 60 343 c 2
 60 131 l 2
 60 92.3333 71.5 60.3333 94.5 35 c 128
 117.5 9.66667 153.667 -3 203 -3 c 2
 218 -3 l 2
 235.333 -3 251.333 -0.5 266 4.5 c 128
 280.667 9.5 294.333 14.8333 307 20.5 c 128
 319.667 26.1667 330.667 31.5 340 36.5 c 128
 349.333 41.5 357 44 363 44 c 0
 368.333 44 371 39.3333 371 30 c 2
 371 -80 l 2
 371 -94.6667 367.333 -106.333 360 -115 c 128
 352.667 -123.667 339.333 -128 320 -128 c 2
 146 -128 l 1
 146 -184 l 2
 146 -193.333 149.5 -201.667 156.5 -209 c 128
 163.5 -216.333 173 -220 185 -220 c 2
 349 -220 l 2
 366.333 -220 382.5 -216.667 397.5 -210 c 128
 412.5 -203.333 425.667 -194.333 437 -183 c 128
 448.333 -171.667 457.333 -158.5 464 -143.5 c 128
 470.667 -128.5 474 -112.333 474 -95 c 2
371 137 m 2
 371 124.333 366.667 113.667 358 105 c 128
 349.333 96.3333 338.667 92 326 92 c 2
 208 92 l 2
 195.333 92 184.667 96.3333 176 105 c 128
 167.333 113.667 163 124.333 163 137 c 2
 163 337 l 2
 163 349.667 167.333 360.333 176 369 c 128
 184.667 377.667 195.333 382 208 382 c 2
 326 382 l 2
 338.667 382 349.333 377.667 358 369 c 128
 366.667 360.333 371 349.667 371 337 c 2
 371 137 l 2
EndSplineSet
Fore
SplineSet
188.7 -205.02 m 2
 113.485 -205.02 111.343 -96.9277 111.343 -84.6094 c 0
 111.343 -83.8643 111.35 -83.4697 111.35 -83.4697 c 1
 332.35 -83.4697 l 2
 337.737 -83.3311 343.263 -77.9443 343.4 -72.4189 c 2
 343.4 32.625 l 1
 183.175 0.758789 l 2
 166.01 -2.51074 150.092 -4.14648 135.548 -4.14648 c 0
 71.4395 -4.14648 34 27.6113 34 91.1201 c 2
 34 336.431 l 2
 34 408.115 65.75 464.1 137.866 464.1 c 0
 151.351 464.1 166.243 462.142 182.604 457.965 c 2
 343.4 416.371 l 1
 343.4 464.1 l 1
 464.95 464.1 l 1
 464.95 -74.6299 l 2
 464.95 -156.429 411.942 -205.02 336.77 -205.02 c 2
 188.7 -205.02 l 2
155.55 132.6 m 2
 155.55 126.516 160.792 121.55 166.876 121.55 c 2
 343.4 121.55 l 1
 343.4 341.506 l 1
 166.6 341.506 l 2
 161.343 341.506 155.55 335.713 155.55 330.179 c 2
 155.55 132.6 l 2
EndSplineSet
EndChar

StartChar: o
Encoding: 264 111 8
Width: 538
VWidth: 0
Flags: HW
HStem: -7.73467 121.55<154.248 383.802> 343.655 120.445<154.248 383.802>
VStem: 31.45 121.619<115.062 342.381> 384.981 121.619<115.062 342.381>
LayerCount: 2
Back
SplineSet
473 125 m 2
 473 349 l 2
 473 366.333 469.667 382.5 463 397.5 c 128
 456.333 412.5 447.333 425.667 436 437 c 128
 424.667 448.333 411.5 457.333 396.5 464 c 128
 381.5 470.667 365.333 474 348 474 c 2
 185 474 l 2
 167.667 474 151.5 470.667 136.5 464 c 128
 121.5 457.333 108.333 448.333 97 437 c 128
 85.6667 425.667 76.6667 412.5 70 397.5 c 128
 63.3333 382.5 60 366.333 60 349 c 2
 60 125 l 2
 60 107.667 63.3333 91.5 70 76.5 c 128
 76.6667 61.5 85.6667 48.3333 97 37 c 128
 108.333 25.6667 121.5 16.6667 136.5 10 c 128
 151.5 3.33333 167.667 -7.94729e-08 185 0 c 2
 348 0 l 2
 365.333 0 381.5 3.33333 396.5 10 c 128
 411.5 16.6667 424.667 25.6667 436 37 c 128
 447.333 48.3333 456.333 61.5 463 76.5 c 128
 469.667 91.5 473 107.667 473 125 c 2
370 137 m 2
 370 124.333 365.667 113.667 357 105 c 128
 348.333 96.3333 337.667 92 325 92 c 2
 208 92 l 2
 195.333 92 184.667 96.3333 176 105 c 128
 167.333 113.667 163 124.333 163 137 c 2
 163 337 l 2
 163 349.667 167.333 360.333 176 369 c 128
 184.667 377.667 195.333 382 208 382 c 2
 325 382 l 2
 337.667 382 348.333 377.667 357 369 c 128
 365.667 360.333 370 349.667 370 337 c 2
 370 137 l 2
EndSplineSet
Fore
SplineSet
176.378 464.1 m 2
 361.673 464.1 l 2
 441.97 464.1 506.6 400.575 506.6 320.277 c 2
 506.6 137.191 l 2
 506.6 56.8965 441.97 -7.73438 361.673 -7.73438 c 2
 176.378 -7.73438 l 2
 96.0811 -7.73438 31.4502 56.8965 31.4502 137.191 c 2
 31.4502 320.277 l 2
 31.4502 400.575 96.0811 464.1 176.378 464.1 c 2
164.05 343.655 m 2
 157.973 343.655 153.068 338.751 153.068 332.674 c 2
 153.068 124.796 l 2
 153.068 118.719 157.973 113.815 164.05 113.815 c 2
 374 113.815 l 2
 380.077 113.815 384.981 118.719 384.981 124.796 c 2
 384.981 332.674 l 2
 384.981 338.751 380.077 343.655 374 343.655 c 2
 164.05 343.655 l 2
EndSplineSet
EndChar

StartChar: d
Encoding: 265 100 9
Width: 520
VWidth: 0
Flags: HW
HStem: -4.30478 125.854<154.969 243.825> 342.55 125.885<154.774 239.181>
VStem: 33.15 121.584<121.55 342.55> 342.584 121.55<0 44.2 121.545 132.6 132.6 342.55 414.375 617.681>
LayerCount: 2
Back
SplineSet
474 37 m 2
 474 676 l 1
 411 676 l 2
 399.667 676 390.167 672.167 382.5 664.5 c 128
 374.833 656.833 371 647.333 371 636 c 2
 371 440 l 2
 371 432 368 428 362 428 c 256
 356 428 348.333 430.5 339 435.5 c 128
 325 443 325 443 306.5 452.5 c 128
 294.167 458.833 280.667 464.5 266 469.5 c 128
 251.333 474.5 235.333 477 218 477 c 2
 203 477 l 2
 153.667 477 117.5 464.333 94.5 439 c 128
 71.5 413.667 60 381.667 60 343 c 2
 60 131 l 2
 60 92.3333 71.5 60.3333 94.5 35 c 128
 117.5 9.66667 153.667 -3 203 -3 c 2
 218 -3 l 2
 235.333 -3 251.333 -0.5 266 4.5 c 128
 280.667 9.5 294.167 14.8333 306.5 20.5 c 128
 318.833 26.1667 329.667 31.5 339 36.5 c 128
 348.333 41.5 356 44 362 44 c 0
 365.333 44 368.5 43.5 371.5 42.5 c 128
 374.5 41.5 377.333 39 380 35 c 2
 404 0 l 1
 438 0 l 2
 451.333 0 460.667 4.33333 466 13 c 128
 471.333 21.6667 474 29.6667 474 37 c 2
371 137 m 2
 371 124.333 366.667 113.667 358 105 c 128
 349.333 96.3333 338.667 92 326 92 c 2
 208 92 l 2
 195.333 92 184.667 96.3333 176 105 c 128
 167.333 113.667 163 124.333 163 137 c 2
 163 337 l 2
 163 349.667 167.333 360.333 176 369 c 128
 184.667 377.667 195.333 382 208 382 c 2
 326 382 l 2
 338.667 382 349.333 377.667 358 369 c 128
 366.667 360.333 371 349.667 371 337 c 2
 371 137 l 2
EndSplineSet
Fore
SplineSet
464.134 674.05 m 1
 464.134 0 l 1
 342.584 0 l 1
 342.584 44.2002 l 1
 198.934 0 l 6
 188.642 -2.94043 178.151 -4.30469 167.701 -4.30469 c 4
 99.6133 -4.30469 33.1504 53.584 33.1504 110.5 c 6
 33.1504 353.531 l 6
 33.1504 411.009 99.4775 468.435 167.491 468.435 c 4
 178.012 468.435 188.573 467.06 198.934 464.1 c 6
 342.032 414.375 l 1
 342.032 541.45 l 2
 342.032 631.509 398.387 674.05 464.134 674.05 c 1
331.534 342.55 m 2
 165.784 342.55 l 6
 160.259 342.55 154.734 337.025 154.734 331.5 c 6
 154.734 133.152 l 6
 154.734 127.075 160.259 121.55 165.784 121.55 c 6
 331.534 121.55 l 2
 331.662 121.55 331.79 121.541 331.916 121.541 c 0
 337.552 121.541 342.314 127.468 342.584 132.6 c 2
 342.584 331.5 l 2
 342.584 337.025 337.059 342.55 331.534 342.55 c 2
EndSplineSet
EndChar

StartChar: s
Encoding: 266 115 10
Width: 496
VWidth: 0
Flags: HW
HStem: -1.08159 112.709<66.7941 339.318> 184.29 95.2799<152.15 342.21> 350.31 112.71<152.153 424.351>
VStem: 30.6 121.55<282.221 297.159 297.159 350.31> 342.21 121.55<113.314 122.641 122.641 182.623>
LayerCount: 2
Back
SplineSet
422 125 m 2
 422 176 l 2
 422 210.667 411.833 236.833 391.5 254.5 c 128
 371.167 272.167 343.667 281 309 281 c 2
 181 281 l 2
 167.667 281 157.5 284.333 150.5 291 c 128
 143.5 297.667 140 305.667 140 315 c 2
 140 345 l 2
 140 354.333 144.333 362.833 153 370.5 c 128
 161.667 378.167 172 382 184 382 c 2
 392 382 l 1
 392 438 l 2
 392 449.333 388.333 458.167 381 464.5 c 128
 373.667 470.833 364.333 474 353 474 c 2
 161 474 l 2
 143.667 474 127.5 470.667 112.5 464 c 128
 97.5 457.333 84.3333 448.333 73 437 c 128
 61.6667 425.667 52.6667 412.5 46 397.5 c 128
 39.3333 382.5 36 366.333 36 349 c 2
 36 311 l 2
 36 277 46.6667 249.833 68 229.5 c 128
 89.3333 209.167 116.667 199 150 199 c 2
 279 199 l 2
 289.667 199 298.833 195.833 306.5 189.5 c 128
 314.167 183.167 318 174.333 318 163 c 2
 318 128 l 2
 318 117.333 314 108.667 306 102 c 128
 298 95.3333 289 92 279 92 c 2
 42 92 l 1
 42 36 l 2
 42 24.6667 45.8333 15.8333 53.5 9.5 c 128
 61.1667 3.16667 70.6667 7.94729e-08 82 0 c 2
 296 0 l 2
 313.333 0 329.667 3.33333 345 10 c 128
 360.333 16.6667 373.667 25.6667 385 37 c 128
 396.333 48.3333 405.333 61.5 412 76.5 c 128
 418.667 91.5 422 107.667 422 125 c 2
EndSplineSet
Fore
SplineSet
30.5996 363.569 m 2
 31.9297 416.759 75.0254 463.02 152.15 463.02 c 2
 369.41 463.02 l 2
 423.004 462.079 457.81 427.41 457.81 350.31 c 1
 163.2 350.31 l 2
 156.938 350.31 152.15 345.036 152.15 339.176 c 2
 152.15 290.22 l 2
 152.15 285.299 157.385 279.57 162.684 279.57 c 0
 162.856 279.57 163.029 279.576 163.2 279.589 c 2
 342.21 279.589 l 2
 407.173 279.589 463.76 242.964 463.76 176.477 c 2
 463.76 120.469 l 2
 463.76 43.1182 419.56 -1.08203 331.16 -1.08203 c 2
 116.45 -1.08203 l 6
 59.1475 -1.08203 39.0996 45.2969 39.0996 111.628 c 5
 331.16 111.628 l 2
 337.021 111.628 342.21 116.782 342.21 122.642 c 2
 342.21 174.59 l 2
 342.21 179.863 336.63 184.29 331.16 184.29 c 2
 152.15 184.29 l 2
 84.2822 184.29 30.5996 232.001 30.5996 297.159 c 2
 30.5996 363.569 l 2
EndSplineSet
EndChar

StartChar: e
Encoding: 267 101 11
Width: 515
VWidth: 0
Flags: HW
HStem: -8.84034 121.55<154.149 389.864> 191.199 83.946<152.219 363.378> 349.18 114.92<153.398 362.13>
VStem: 30.6 121.619<113.443 145.86 145.86 191.199 275.145 348.454> 363.378 121.55<275.145 348.454>
LayerCount: 2
Back
SplineSet
474 260 m 2
 474 349 l 2
 474 366.333 470.667 382.5 464 397.5 c 128
 457.333 412.5 448.333 425.667 437 437 c 128
 425.667 448.333 412.5 457.333 397.5 464 c 128
 382.5 470.667 366.333 474 349 474 c 2
 185 474 l 2
 167.667 474 151.5 470.833 136.5 464.5 c 128
 121.5 458.167 108.333 449.333 97 438 c 128
 85.6667 426.667 76.6667 413.333 70 398 c 128
 63.3333 382.667 60 366.333 60 349 c 2
 60 125 l 2
 60 107.667 63.3333 91.3333 70 76 c 128
 76.6667 60.6667 85.6667 47.3333 97 36 c 128
 108.333 24.6667 121.5 15.8333 136.5 9.5 c 128
 151.5 3.16667 167.667 7.94729e-08 185 0 c 2
 365 0 l 2
 376.333 0 385.833 3.16667 393.5 9.5 c 128
 401.167 15.8333 405 24.6667 405 36 c 2
 405 92 l 1
 204 92 l 2
 192.667 92 183 95.6667 175 103 c 128
 167 110.333 163 120.333 163 133 c 2
 163 198 l 1
 412 198 l 2
 429.333 198 444 204 456 216 c 128
 468 228 474 242.667 474 260 c 2
371 281 m 1
 163 281 l 1
 163 342 l 2
 163 353.333 166.833 362.833 174.5 370.5 c 128
 182.167 378.167 191.667 382 203 382 c 2
 331 382 l 2
 342.333 382 351.833 378.167 359.5 370.5 c 128
 367.167 362.833 371 353.333 371 342 c 2
 371 281 l 1
EndSplineSet
Fore
SplineSet
175.527 464.1 m 2
 340 464.1 l 2
 420.297 464.1 484.928 399.47 484.928 319.173 c 2
 484.928 191.199 l 1
 152.219 191.199 l 1
 152.219 135.915 l 2
 152.219 122.655 160.99 112.71 174.25 112.71 c 2
 309.06 112.71 l 1
 441.66 112.71 l 1
 441.66 35.3594 397.46 -8.84082 309.06 -8.84082 c 2
 174.25 -8.84082 l 2
 85.8496 -8.84082 30.5996 68.5098 30.5996 145.86 c 2
 30.5996 319.173 l 2
 30.5996 399.47 95.2305 464.1 175.527 464.1 c 2
174.25 349.18 m 2
 163.2 349.18 152.15 338.13 152.15 327.08 c 2
 152.15 275.145 l 1
 363.378 275.145 l 1
 363.378 327.08 l 2
 363.378 338.13 352.327 349.18 341.277 349.18 c 2
 174.25 349.18 l 2
EndSplineSet
EndChar

StartChar: f
Encoding: 268 102 12
Width: 345
VWidth: 0
Flags: HW
HStem: 0 17.85G<43.3674 164.918> 364.65 99.45<164.918 286.191> 558.025 104.975<165.529 338.093>
VStem: 43.3674 121.55<0 364.65 464.1 555.987>
LayerCount: 2
Back
SplineSet
355 620 m 2
 355 676 l 1
 195 676 l 2
 177.667 676 161.5 672.667 146.5 666 c 128
 131.5 659.333 118.333 650.333 107 639 c 128
 95.6667 627.667 86.6667 614.5 80 599.5 c 128
 73.3333 584.5 70 568.333 70 551 c 2
 70 40 l 2
 70 28.6667 73.8333 19.1667 81.5 11.5 c 128
 89.1667 3.83333 98.6667 -7.94729e-08 110 0 c 2
 133 0 l 2
 144.333 0 153.833 3.83333 161.5 11.5 c 128
 169.167 19.1667 173 28.6667 173 40 c 2
 173 382 l 1
 273 382 l 2
 284.333 382 293.833 385.167 301.5 391.5 c 128
 309.167 397.833 313 406.667 313 418 c 2
 313 438 l 2
 313 449.333 309.167 458.167 301.5 464.5 c 128
 293.833 470.833 284.333 474 273 474 c 2
 173 474 l 1
 173 539 l 2
 173 551.667 177.333 562.333 186 571 c 128
 194.667 579.667 205.333 584 218 584 c 2
 315 584 l 2
 326.333 584 335.833 587.167 343.5 593.5 c 128
 351.167 599.833 355 608.667 355 620 c 2
EndSplineSet
Fore
SplineSet
181.493 663 m 2
 352.768 663 l 1
 352.768 624.325 l 2
 352.768 569.075 319.228 558.025 280.942 558.025 c 2
 181.493 558.025 l 2
 170.442 558.025 164.918 552.5 164.918 541.45 c 2
 164.918 464.1 l 1
 247.793 464.1 l 2
 275.34 464.1 297.518 441.923 297.518 414.375 c 0
 297.518 386.827 275.34 364.65 247.793 364.65 c 2
 164.918 364.65 l 1
 164.918 0 l 1
 43.3672 0 l 1
 43.3672 541.45 l 2
 43.3555 542.174 43.3496 542.896 43.3496 543.617 c 0
 43.3496 610.543 94.0342 663 181.493 663 c 2
EndSplineSet
EndChar

StartChar: t
Encoding: 269 116 13
Width: 400
VWidth: 0
Flags: HW
HStem: 0 17.85G<119 240.55> 342.55 121.55<37.3117 119 240.55 355.388>
VStem: 119 121.55<0 342.55 464.1 645.238>
LayerCount: 2
Back
SplineSet
347 382 m 1
 347 438 l 2
 347 449.333 343.167 458.167 335.5 464.5 c 128
 327.833 470.833 318.333 474 307 474 c 2
 227 474 l 1
 227 636 l 2
 227 647.333 223.167 656.833 215.5 664.5 c 128
 207.833 672.167 198.333 676 187 676 c 2
 164 676 l 2
 152.667 676 143.167 672.167 135.5 664.5 c 128
 127.833 656.833 124 647.333 124 636 c 2
 124 474 l 1
 61 474 l 2
 49.6667 474 40.1667 470.833 32.5 464.5 c 128
 24.8333 458.167 21 449.333 21 438 c 2
 21 418 l 2
 21 406.667 24.8333 397.833 32.5 391.5 c 128
 40.1667 385.167 49.6667 382 61 382 c 2
 124 382 l 1
 124 40 l 2
 124 28.6667 127.833 19.1667 135.5 11.5 c 128
 143.167 3.83333 152.667 -7.94729e-08 164 0 c 2
 187 0 l 2
 198.333 0 207.833 3.83333 215.5 11.5 c 128
 223.167 19.1667 227 28.6667 227 40 c 2
 227 382 l 1
 347 382 l 1
EndSplineSet
Fore
SplineSet
179.775 663 m 4
 213.444 663 240.55 635.895 240.55 602.225 c 6
 240.55 464.1 l 5
 312.375 464.1 l 6
 346.044 464.1 373.15 436.994 373.15 403.325 c 6
 373.15 342.55 l 5
 240.55 342.55 l 5
 240.55 0 l 5
 119 0 l 5
 119 342.55 l 5
 80.3252 342.55 l 6
 46.6562 342.55 19.5498 369.655 19.5498 403.325 c 4
 19.5498 436.994 46.6562 464.1 80.3252 464.1 c 6
 119 464.1 l 5
 119 602.225 l 6
 119 635.895 146.105 663 179.775 663 c 4
EndSplineSet
EndChar

StartChar: i
Encoding: 270 105 14
Width: 222
VWidth: 0
Flags: HW
HStem: 0 17.85G<44.7196 166.269> 531.505 122.655<62.1459 148.335>
VStem: 44.3278 122.655<0 446.338 548.633 636.065>
LayerCount: 2
Back
SplineSet
172 589 m 2
 172 636 l 2
 172 647.333 168.167 656.833 160.5 664.5 c 128
 152.833 672.167 143.333 676 132 676 c 2
 109 676 l 2
 97.6667 676 88.1667 672.167 80.5 664.5 c 128
 72.8333 656.833 69 647.333 69 636 c 2
 69 589 l 2
 69 577.667 72.8333 568.167 80.5 560.5 c 128
 88.1667 552.833 97.6667 549 109 549 c 2
 132 549 l 2
 143.333 549 152.833 552.833 160.5 560.5 c 128
 168.167 568.167 172 577.667 172 589 c 2
172 40 m 2
 172 434 l 2
 172 445.333 168.167 454.833 160.5 462.5 c 128
 152.833 470.167 143.333 474 132 474 c 2
 109 474 l 2
 97.6667 474 88.1667 470.167 80.5 462.5 c 128
 72.8333 454.833 69 445.333 69 434 c 2
 69 40 l 2
 69 28.6667 72.8333 19.1667 80.5 11.5 c 128
 88.1667 3.83333 97.6667 -7.94729e-08 109 0 c 2
 132 0 l 2
 143.333 0 152.833 3.83333 160.5 11.5 c 128
 168.167 19.1667 172 28.6667 172 40 c 2
EndSplineSet
Fore
SplineSet
105.493 464.1 m 0
 139.164 464.1 166.269 436.994 166.269 403.325 c 2
 166.269 0 l 1
 44.7197 0 l 1
 44.7197 403.325 l 2
 44.7197 436.994 71.8252 464.1 105.493 464.1 c 0
166.982 592.28 m 4
 166.982 556.92 138.253 531.505 103.997 531.505 c 4
 71.9531 531.505 44.3281 556.92 44.3281 592.28 c 4
 44.3281 626.535 71.9531 654.16 103.997 654.16 c 4
 138.253 654.16 166.982 626.535 166.982 592.28 c 4
EndSplineSet
EndChar

StartChar: v
Encoding: 271 118 15
Width: 480
VWidth: 0
Flags: HW
HStem: 0 17.85G<187.343 282.798>
LayerCount: 2
Back
SplineSet
464 434 m 0
 464 441.333 461.333 448.167 456 454.5 c 128
 450.667 460.833 444.333 465.333 437 468 c 2
 411 476 l 2
 401 479.333 391.833 478.667 383.5 474 c 128
 375.167 469.333 369 462 365 452 c 2
 280 246 l 2
 274 232 268.667 216.167 264 198.5 c 128
 259.333 180.833 255.167 164.167 251.5 148.5 c 128
 247.833 132.833 245.167 119.833 243.5 109.5 c 128
 241.833 99.1667 240 94 238 94 c 1
 234.667 114.667 231.167 132.833 227.5 148.5 c 128
 223.833 164.167 219.667 180.833 215 198.5 c 128
 210.333 216.167 205 232 199 246 c 2
 114 452 l 2
 110 462 103.833 469.333 95.5 474 c 128
 87.1667 478.667 78 479.333 68 476 c 2
 42 468 l 2
 34.6667 465.333 28.3333 460.833 23 454.5 c 128
 17.6667 448.167 15 441.333 15 434 c 0
 15 427.333 15.6667 422.667 17 420 c 2
 175 42 l 2
 187 14 206 0 232 0 c 2
 247 0 l 2
 273 0 292 14 304 42 c 2
 462 420 l 2
 463.333 422.667 464 427.333 464 434 c 0
EndSplineSet
Fore
SplineSet
77.9453 461.993 m 0
 100.551 461.646 121.98 448.605 132.124 426.634 c 2
 220.932 236.217 l 2
 231.899 206.159 235.199 176.558 235.199 176.558 c 1
 235.199 176.558 238.698 206.294 250.853 236.682 c 2
 338.553 426.634 l 2
 348.837 448.912 370.722 462.005 393.668 462.005 c 0
 402.206 462.005 410.893 460.192 419.182 456.365 c 0
 441.461 446.08 454.555 424.177 454.555 401.221 c 0
 454.555 392.679 452.741 383.99 448.915 375.7 c 2
 274.925 0 l 1
 195.188 0 l 1
 21.7969 375.7 l 2
 17.9658 383.999 16.1504 392.695 16.1504 401.248 c 0
 16.1504 424.194 29.2236 446.084 51.4941 456.365 c 0
 59.7891 460.195 68.4678 462.001 77.0117 462.001 c 0
 77.3232 462.001 77.6338 461.998 77.9453 461.993 c 0
EndSplineSet
EndChar

StartChar: q
Encoding: 273 113 17
Width: 521
VWidth: 0
Flags: HW
HStem: -4.14624 125.696<155.55 250.77> 341.505 122.595<155.55 230.341>
VStem: 34 121.55<121.55 339.779> 343.4 121.55<-205.044 32.6245 121.55 341.505 416.371 464.1>
LayerCount: 2
Back
SplineSet
474 -180 m 2
 474 437 l 2
 474 444.333 471.333 452.333 466 461 c 128
 460.667 469.667 451.333 474 438 474 c 2
 407 474 l 1
 377 436 l 2
 373.667 430.667 368.667 428 362 428 c 0
 356 428 348.333 430.5 339 435.5 c 128
 325 443 325 443 306.5 452.5 c 128
 294.167 458.833 280.667 464.5 266 469.5 c 128
 251.333 474.5 235.333 477 218 477 c 2
 203 477 l 2
 153.667 477 117.5 464.333 94.5 439 c 128
 71.5 413.667 60 381.667 60 343 c 2
 60 131 l 2
 60 92.3333 71.5 60.3333 94.5 35 c 128
 117.5 9.66667 153.667 -3 203 -3 c 2
 218 -3 l 2
 235.333 -3 251.333 -0.5 266 4.5 c 128
 280.667 9.5 294.167 14.8333 306.5 20.5 c 128
 318.833 26.1667 329.667 31.5 339 36.5 c 128
 348.333 41.5 356 44 362 44 c 256
 368 44 371 39.6667 371 31 c 2
 371 -180 l 2
 371 -191.333 374.833 -200.833 382.5 -208.5 c 128
 390.167 -216.167 399.667 -220 411 -220 c 2
 434 -220 l 2
 445.333 -220 454.833 -216.167 462.5 -208.5 c 128
 470.167 -200.833 474 -191.333 474 -180 c 2
371 137 m 2
 371 124.333 366.667 113.667 358 105 c 128
 349.333 96.3333 338.667 92 326 92 c 2
 208 92 l 2
 195.333 92 184.667 96.3333 176 105 c 128
 167.333 113.667 163 124.333 163 137 c 2
 163 337 l 2
 163 349.667 167.333 360.333 176 369 c 128
 184.667 377.667 195.333 382 208 382 c 2
 326 382 l 2
 338.667 382 349.333 377.667 358 369 c 128
 366.667 360.333 371 349.667 371 337 c 2
 371 137 l 2
EndSplineSet
Fore
SplineSet
343.4 -205.044 m 1
 343.4 32.625 l 1
 183.175 0.758789 l 6
 166.01 -2.51074 150.092 -4.14648 135.548 -4.14648 c 4
 71.4395 -4.14648 34 27.6113 34 91.1201 c 6
 34 336.431 l 6
 34 408.115 65.7529 464.1 137.866 464.1 c 4
 151.351 464.1 166.244 462.143 182.604 457.965 c 6
 343.4 416.371 l 1
 343.4 464.1 l 1
 464.95 464.1 l 1
 464.95 -205.044 l 1
 343.4 -205.044 l 1
155.55 132.6 m 6
 155.55 126.516 160.792 121.55 166.876 121.55 c 6
 343.4 121.55 l 1
 343.4 341.506 l 1
 166.6 341.506 l 6
 161.343 341.506 155.55 335.713 155.55 330.179 c 6
 155.55 132.6 l 6
EndSplineSet
EndChar

StartChar: p
Encoding: 274 112 18
Width: 500
VWidth: 0
Flags: HW
HStem: -4.14624 125.696<249.88 345.097> 341.505 122.595<270.309 345.096>
VStem: 35.7 121.55<-205.044 32.6245 121.55 341.505 416.371 464.1> 345.1 121.55<121.55 132.6 132.6 339.779>
LayerCount: 2
Back
SplineSet
474 131 m 2
 474 343 l 2
 474 381.667 462.5 413.667 439.5 439 c 128
 416.5 464.333 380.333 477 331 477 c 2
 316 477 l 2
 299.333 477 283.5 474.5 268.5 469.5 c 128
 253.5 464.5 240 458.833 228 452.5 c 128
 210 443 210 443 195.5 435.5 c 128
 185.833 430.5 178 428 172 428 c 0
 165.333 428 160.333 430.667 157 436 c 2
 130 474 l 1
 96 474 l 2
 82.6667 474 73.3333 469.667 68 461 c 128
 62.6667 452.333 60 444.333 60 437 c 2
 60 -180 l 2
 60 -191.333 63.8333 -200.833 71.5 -208.5 c 128
 79.1667 -216.167 88.6667 -220 100 -220 c 2
 123 -220 l 2
 134.333 -220 143.833 -216.167 151.5 -208.5 c 128
 159.167 -200.833 163 -191.333 163 -180 c 2
 163 31 l 2
 163 39.6667 166 44 172 44 c 256
 178 44 185.667 41.5 195 36.5 c 128
 204.333 31.5 215.167 26.1667 227.5 20.5 c 128
 239.833 14.8333 253.5 9.5 268.5 4.5 c 128
 283.5 -0.5 299.333 -3 316 -3 c 2
 331 -3 l 2
 380.333 -3 416.5 9.66667 439.5 35 c 128
 462.5 60.3333 474 92.3333 474 131 c 2
371 137 m 2
 371 124.333 366.667 113.667 358 105 c 128
 349.333 96.3333 338.667 92 326 92 c 2
 208 92 l 2
 195.333 92 184.667 96.3333 176 105 c 128
 167.333 113.667 163 124.333 163 137 c 2
 163 337 l 2
 163 349.667 167.333 360.333 176 369 c 128
 184.667 377.667 195.333 382 208 382 c 2
 326 382 l 2
 338.667 382 349.333 377.667 358 369 c 128
 366.667 360.333 371 349.667 371 337 c 2
 371 137 l 2
EndSplineSet
Fore
SplineSet
157.25 -205.044 m 1
 35.7002 -205.044 l 1
 35.7002 464.1 l 1
 157.25 464.1 l 1
 157.25 416.371 l 1
 318.045 457.965 l 6
 334.406 462.143 349.3 464.1 362.783 464.1 c 4
 434.898 464.1 466.65 408.115 466.65 336.431 c 6
 466.65 91.1201 l 6
 466.65 27.6113 429.21 -4.14648 365.103 -4.14648 c 4
 350.558 -4.14648 334.64 -2.51074 317.475 0.758789 c 6
 157.25 32.625 l 1
 157.25 -205.044 l 1
345.1 132.6 m 6
 345.1 330.179 l 6
 345.1 335.713 339.307 341.506 334.05 341.506 c 6
 157.25 341.506 l 1
 157.25 121.55 l 1
 333.773 121.55 l 6
 339.858 121.55 345.1 126.516 345.1 132.6 c 6
EndSplineSet
EndChar

StartChar: l
Encoding: 275 108 19
Width: 230
VWidth: 0
Flags: HW
HStem: 0 66.3<165.75 195.271>
VStem: 44.2 121.55<66.3 645.238>
LayerCount: 2
Back
SplineSet
172 0 m 1
 172 636 l 2
 172 647.333 168.167 656.833 160.5 664.5 c 128
 152.833 672.167 143.333 676 132 676 c 2
 109 676 l 2
 97.6667 676 88.1667 672.167 80.5 664.5 c 128
 72.8333 656.833 69 647.333 69 636 c 2
 69 40 l 2
 69 28.6667 72.8333 19.1667 80.5 11.5 c 128
 88.1667 3.83333 97.6667 -7.94729e-08 109 0 c 2
 172 0 l 1
EndSplineSet
Fore
SplineSet
104.975 663 m 0
 138.645 663 165.75 635.895 165.75 602.225 c 2
 165.75 66.2998 l 1
 184.049 66.2998 198.9 51.4482 198.9 33.1504 c 2
 198.9 0 l 1
 147.333 0 95.7666 0 44.2002 0 c 1
 44.2002 602.225 l 2
 44.2002 635.895 71.3066 663 104.975 663 c 0
EndSplineSet
EndChar

StartChar: k
Encoding: 276 107 20
Width: 531
VWidth: 0
Flags: HW
HStem: 0 17.85G<43.35 164.9>
VStem: 43.35 121.55<0 220.862 359.781 614.192>
LayerCount: 2
Back
SplineSet
458 44 m 1
 275 276 l 1
 430 395 l 2
 448 409 450.333 425.667 437 445 c 2
 426 461 l 2
 419.333 470.333 410.667 475.667 400 477 c 128
 389.333 478.333 379.333 475.333 370 468 c 2
 163 309 l 1
 163 676 l 1
 100 676 l 2
 88.6667 676 79.1667 672 71.5 664 c 128
 63.8333 656 60 646.333 60 635 c 2
 60 40 l 2
 60 28.6667 63.8333 19.1667 71.5 11.5 c 128
 79.1667 3.83333 88.6667 -7.94729e-08 100 0 c 2
 123 0 l 2
 134.333 0 143.833 3.83333 151.5 11.5 c 128
 159.167 19.1667 163 28.6667 163 40 c 2
 163 190 l 1
 195 214 l 1
 355 12 l 2
 363 2 373.333 -3 386 -3 c 0
 395.333 -3 403.333 0 410 6 c 2
 458 44 l 1
EndSplineSet
Fore
SplineSet
164.9 674.05 m 1
 164.9 359.781 l 1
 378.925 483.506 l 2
 388.529 489.022 398.979 491.647 409.275 491.647 c 0
 430.281 491.647 450.649 480.723 461.902 461.13 c 0
 467.413 451.536 470.035 441.093 470.035 430.801 c 0
 470.035 409.774 459.094 389.376 439.492 378.118 c 2
 296.705 296.349 l 1
 504.93 46.2715 l 1
 457.862 7.97754 l 2
 446.506 -1.36523 432.826 -5.91895 419.238 -5.91895 c 0
 401.714 -5.91895 384.342 1.65332 372.295 16.2988 c 2
 191.523 236.09 l 1
 164.9 220.862 l 1
 164.9 0 l 1
 43.3496 0 l 1
 43.3496 541.45 l 2
 43.3496 629.85 104.125 674.05 164.9 674.05 c 1
EndSplineSet
EndChar

StartChar: j
Encoding: 277 106 21
Width: 243
VWidth: 0
Flags: HW
HStem: 531.505 122.655<83.1405 169.33>
VStem: 65.3222 122.655<-84.1392 -33.15 -33.15 445.296 548.633 636.065>
LayerCount: 2
Back
SplineSet
172 589 m 2
 172 636 l 2
 172 647.333 168.333 656.833 161 664.5 c 128
 153.667 672.167 144.333 676 133 676 c 2
 109 676 l 2
 97.6667 676 88.1667 672.167 80.5 664.5 c 128
 72.8333 656.833 69 647.333 69 636 c 2
 69 589 l 2
 69 577.667 72.8333 568.167 80.5 560.5 c 128
 88.1667 552.833 97.6667 549 109 549 c 2
 133 549 l 2
 144.333 549 153.667 552.833 161 560.5 c 128
 168.333 568.167 172 577.667 172 589 c 2
172 -52 m 2
 172 434 l 2
 172 445.333 168.167 454.833 160.5 462.5 c 128
 152.833 470.167 143.333 474 132 474 c 2
 109 474 l 2
 97.6667 474 88.1667 470.167 80.5 462.5 c 128
 72.8333 454.833 69 445.333 69 434 c 2
 69 -43 l 2
 69 -51 67.1667 -59.1667 63.5 -67.5 c 128
 59.8333 -75.8333 55.3333 -83.3333 50 -90 c 2
 -4 -157 l 2
 -9.33333 -163.667 -12 -171.667 -12 -181 c 0
 -12 -191.667 -7.66667 -200.333 1 -207 c 2
 6 -212 l 2
 14 -218.667 22.6667 -221 32 -219 c 128
 41.3333 -217 49.6667 -212.667 57 -206 c 2
 142 -125 l 2
 154 -113.667 162 -101.667 166 -89 c 128
 170 -76.3333 172 -64 172 -52 c 2
EndSplineSet
Fore
SplineSet
125.811 464.1 m 4
 159.479 464.1 186.585 436.994 186.585 403.325 c 6
 186.585 -33.1504 l 6
 186.585 -57.5156 181.002 -77.8535 162.217 -96.0869 c 6
 58.7568 -190.979 l 6
 45.4082 -206.849 29.2529 -213.326 14.5166 -213.326 c 4
 -8.49707 -213.326 -28.0498 -197.525 -28.0498 -177.024 c 4
 -28.0498 -169.932 -25.709 -162.276 -20.3633 -154.518 c 5
 49.7246 -81.8691 l 5
 61.9766 -63.4922 65.3076 -56.3496 65.3076 -37.9375 c 4
 65.3076 -36.4219 65.2852 -34.8301 65.2422 -33.1504 c 5
 65.0361 -33.1504 l 5
 65.0361 403.325 l 6
 65.0361 436.994 92.1406 464.1 125.811 464.1 c 4
187.978 592.28 m 4
 187.978 556.92 159.247 531.505 124.992 531.505 c 4
 92.9473 531.505 65.3223 556.92 65.3223 592.28 c 4
 65.3223 626.535 92.9473 654.16 124.992 654.16 c 4
 159.247 654.16 187.978 626.535 187.978 592.28 c 4
EndSplineSet
EndChar

StartChar: comma
Encoding: 278 44 22
Width: 266
VWidth: 0
Flags: HW
HStem: -145.982 268.015<115.36 130.647>
VStem: 66.3 135.691<11.6296 98.9443> 114.844 87.1463<-51.895 -8.25263>
LayerCount: 2
Back
SplineSet
179 24 m 2
 179 107 l 2
 179 118.333 175.167 127.833 167.5 135.5 c 128
 159.833 143.167 150.333 147 139 147 c 2
 99 147 l 2
 87.6667 147 78.1667 143.167 70.5 135.5 c 128
 62.8333 127.833 59 118.333 59 107 c 2
 59 39 l 2
 59 28.3333 62.6667 19.5 70 12.5 c 128
 77.3333 5.5 84.3333 0.333333 91 -3 c 0
 95.6667 -5 99.3333 -7.16667 102 -9.5 c 128
 104.667 -11.8333 106 -15 106 -19 c 0
 106 -23 106 -23 106 -27 c 256
 106 -29.6667 105.333 -32 104 -34 c 2
 71 -106 l 2
 69 -110.667 68.3333 -115.333 69 -120 c 128
 69.6667 -124.667 72.3333 -128.333 77 -131 c 2
 85 -136 l 2
 89.6667 -138.667 94.3333 -139.333 99 -138 c 128
 103.667 -136.667 107.333 -133.667 110 -129 c 2
 162 -39 l 2
 167.333 -29.6667 171.5 -20.1667 174.5 -10.5 c 128
 177.5 -0.833333 179 10.6667 179 24 c 2
EndSplineSet
Fore
SplineSet
135.206 122.033 m 0xa0
 172.065 122.033 201.99 92.1074 201.99 55.25 c 2xc0
 201.99 8.91016 l 2xa0
 201.99 -13.7451 195.097 -34.2471 186.244 -48.1709 c 2
 128.854 -129.871 l 2
 119.229 -141.312 107.585 -145.981 96.9668 -145.981 c 0
 80.3848 -145.981 66.2998 -134.597 66.2998 -119.822 c 0xc0
 66.2998 -114.707 67.9873 -109.188 71.8428 -103.594 c 2
 109.067 -31.665 l 1
 113.608 -25.5908 114.844 -20.1885 114.844 -14.4072 c 0
 114.844 -12.415 114.697 -10.3779 114.487 -8.25293 c 1
 87.7656 0.472656 68.458 25.6211 68.458 55.25 c 0
 68.458 92.1074 98.3496 122.033 135.206 122.033 c 0xa0
EndSplineSet
EndChar

StartChar: y
Encoding: 279 121 23
Width: 481
VWidth: 0
Flags: HW
LayerCount: 2
Back
SplineSet
507 428 m 0
 507 443.333 500 454.333 486 461 c 2
 463 472 l 2
 451.667 477.333 441.667 478 433 474 c 128
 424.333 470 417.667 463.333 413 454 c 2
 311 230 l 2
 302 209 302 209 292 186.5 c 128
 285.333 171.5 279.5 157.833 274.5 145.5 c 128
 267 127 267 127 262 114.5 c 128
 258.667 106.167 256.333 102 255 102 c 1
 245 127 245 127 237.5 145.5 c 128
 232.5 157.833 226.667 171.5 220 186.5 c 128
 210 209 210 209 201 230 c 2
 99 454 l 2
 94.3333 463.333 87.6667 470 79 474 c 128
 70.3333 478 60.3333 477.333 49 472 c 2
 26 461 l 2
 12 454.333 5 443.333 5 428 c 0
 5 422 6 417 8 413 c 2
 189 13 l 2
 191 9 193.833 5.83333 197.5 3.5 c 128
 201.167 1.16667 204.333 -3.97364e-08 207 0 c 1
 134 -160 l 2
 129.333 -169.333 128.667 -178.667 132 -188 c 128
 135.333 -197.333 141.667 -204.667 151 -210 c 2
 168 -219 l 2
 177.333 -224.333 187 -225 197 -221 c 128
 207 -217 214.333 -210.333 219 -201 c 2
 504 413 l 2
 506 417 507 422 507 428 c 0
EndSplineSet
Fore
SplineSet
77.9736 463.548 m 0
 100.582 463.507 122.195 450.778 132.636 428.948 c 2
 236.472 211.849 l 1
 340.307 428.948 l 2
 350.763 450.811 372.419 463.539 395.06 463.539 c 0
 403.876 463.539 412.842 461.608 421.354 457.538 c 0
 443.216 447.083 455.944 425.428 455.944 402.785 c 0
 455.944 393.97 454.016 385.006 449.946 376.495 c 2
 185.262 -176.938 l 2
 174.807 -198.801 153.15 -211.53 130.509 -211.53 c 0
 121.693 -211.53 112.729 -209.601 104.218 -205.53 c 2
 48.8008 -177.363 l 1
 174.488 82.2188 l 1
 164.868 88.1387 156.747 96.7812 151.491 107.772 c 2
 23 376.495 l 2
 18.9287 385.006 17 393.97 17 402.785 c 0
 17 425.428 29.7295 447.083 51.5918 457.538 c 0
 60.0996 461.607 69.0518 463.548 77.8613 463.548 c 0
 77.9736 463.548 l 0
EndSplineSet
EndChar

StartChar: c
Encoding: 280 99 24
Width: 470
VWidth: 0
Flags: HW
HStem: -7.73467 120.272<154.405 392.686> 342.55 120.272<154.405 392.686>
VStem: 31.45 121.619<113.817 135.915 135.915 341.271>
LayerCount: 2
Back
SplineSet
406 36 m 2
 406 92 l 1
 208 92 l 2
 195.333 92 184.667 96.3333 176 105 c 128
 167.333 113.667 163 124.333 163 137 c 2
 163 337 l 2
 163 349.667 167.333 360.333 176 369 c 128
 184.667 377.667 195.333 382 208 382 c 2
 395 382 l 1
 395 438 l 2
 395 449.333 391.167 458.167 383.5 464.5 c 128
 375.833 470.833 366.333 474 355 474 c 2
 185 474 l 2
 167.667 474 151.5 470.667 136.5 464 c 128
 121.5 457.333 108.333 448.333 97 437 c 128
 85.6667 425.667 76.6667 412.5 70 397.5 c 128
 63.3333 382.5 60 366.333 60 349 c 2
 60 125 l 2
 60 107.667 63.3333 91.5 70 76.5 c 128
 76.6667 61.5 85.6667 48.3333 97 37 c 128
 108.333 25.6667 121.5 16.6667 136.5 10 c 128
 151.5 3.33333 167.667 -7.94729e-08 185 0 c 2
 366 0 l 2
 377.333 0 386.833 3.16667 394.5 9.5 c 128
 402.167 15.8333 406 24.6667 406 36 c 2
EndSplineSet
Fore
SplineSet
180.625 462.822 m 2
 340.919 462.822 l 2
 433.738 462.822 438.09 342.55 438.09 342.55 c 1
 164.05 342.55 l 2
 157.973 342.55 153.068 337.646 153.068 331.568 c 2
 153.068 123.518 l 2
 153.068 117.44 157.973 112.537 164.05 112.537 c 2
 438.09 112.537 l 1
 438.09 112.537 433.738 -7.73438 340.919 -7.73438 c 2
 180.625 -7.73438 l 2
 83.0771 -7.73438 31.4502 55.6182 31.4502 135.915 c 2
 31.4502 319.173 l 2
 31.4502 399.47 83.0771 462.822 180.625 462.822 c 2
EndSplineSet
EndChar

StartChar: w
Encoding: 281 119 25
Width: 742
VWidth: 0
Flags: HW
HStem: 0 17.85G<187.333 282.785 448.94 544.394>
LayerCount: 2
Back
SplineSet
649 433 m 0
 649 440.333 646.667 447.5 642 454.5 c 128
 637.333 461.5 630.667 466 622 468 c 2
 595 475 l 2
 585.667 477.667 576.667 476.167 568 470.5 c 128
 559.333 464.833 553.667 457.333 551 448 c 2
 499 250 l 2
 496.333 238.667 493.5 224.167 490.5 206.5 c 128
 486 180 486 180 482 154.5 c 128
 479.333 137.5 477.333 122.833 476 110.5 c 128
 474.667 98.1667 473.333 92 472 92 c 1
 468 108.667 464.167 123 460.5 135 c 128
 455 153 455 153 449 173.5 c 128
 445 187.167 441 199.333 437 210 c 2
 400 308 l 2
 396.667 316 391.667 322.667 385 328 c 128
 378.333 333.333 370.667 336 362 336 c 2
 315 336 l 2
 306.333 336 298.667 333.333 292 328 c 128
 285.333 322.667 280.333 316 277 308 c 2
 240 210 l 2
 236 199.333 232 187.167 228 173.5 c 128
 222 153 222 153 216.5 135 c 128
 212.833 123 210 112.833 208 104.5 c 128
 206 96.1667 204.333 92 203 92 c 1
 200.333 116.667 197.667 137.5 195 154.5 c 128
 191 180 191 180 187 206.5 c 128
 184.333 224.167 181.333 238.667 178 250 c 2
 126 448 l 2
 123.333 457.333 117.667 464.833 109 470.5 c 128
 100.333 476.167 91.3333 477.667 82 475 c 2
 55 468 l 2
 46.3333 466 39.6667 461.5 35 454.5 c 128
 30.3333 447.5 28 440.333 28 433 c 0
 28 429 28.3333 426.333 29 425 c 2
 132 51 l 2
 133.333 46.3333 135.333 41 138 35 c 128
 140.667 29 144 23.5 148 18.5 c 128
 152 13.5 157 9.16667 163 5.5 c 128
 169 1.83333 175.667 3.97364e-08 183 0 c 2
 218 0 l 2
 231.333 0 242 5.16667 250 15.5 c 128
 258 25.8333 263.667 36.3333 267 47 c 2
 313 175 l 2
 317 186.333 321 198.667 325 212 c 128
 331 232 331 232 334.5 244 c 128
 336.833 252 338 256.667 338 258 c 1
 339 258 l 1
 339 256.667 340.167 252 342.5 244 c 128
 346 232 346 232 352 212 c 128
 356 198.667 360 186.333 364 175 c 2
 410 47 l 2
 413.333 36.3333 419 25.8333 427 15.5 c 128
 435 5.16667 445.667 -1.58946e-07 459 0 c 2
 494 0 l 2
 501.333 0 508 1.83333 514 5.5 c 128
 520 9.16667 525 13.5 529 18.5 c 128
 533 23.5 536.333 29 539 35 c 128
 541.667 41 543.667 46.3333 545 51 c 2
 648 425 l 2
 648.667 426.333 649 429 649 433 c 0
EndSplineSet
Fore
SplineSet
77.9453 461.993 m 0
 100.55 461.646 121.98 448.605 132.124 426.634 c 2
 220.938 236.228 l 2
 231.908 206.171 235.199 176.558 235.199 176.558 c 1
 235.199 176.558 238.688 206.29 250.843 236.678 c 2
 287.084 314.785 l 2
 294.543 330.256 308.975 342.55 331.075 342.55 c 2
 402.9 342.55 l 2
 421.133 342.55 438.115 328.945 446.403 312.646 c 2
 482.513 236.228 l 2
 493.482 206.171 496.808 176.558 496.808 176.558 c 1
 496.808 176.558 500.297 206.29 512.452 236.678 c 2
 600.161 426.634 l 2
 610.445 448.912 632.328 462.005 655.275 462.005 c 0
 663.815 462.005 672.501 460.192 680.791 456.365 c 0
 703.07 446.08 716.162 424.177 716.162 401.221 c 0
 716.162 392.679 714.35 383.99 710.522 375.7 c 2
 536.52 0 l 1
 456.787 0 l 1
 366.004 196.69 l 1
 274.911 0 l 1
 195.179 0 l 1
 21.7969 375.7 l 2
 17.9658 383.999 16.1504 392.696 16.1504 401.248 c 0
 16.1504 424.195 29.2227 446.084 51.4941 456.365 c 0
 59.7891 460.195 68.4668 462.001 77.0117 462.001 c 0
 77.3232 462.001 77.6338 461.998 77.9453 461.993 c 0
EndSplineSet
EndChar

StartChar: z
Encoding: 282 122 26
Width: 497
VWidth: 0
Flags: HW
HStem: -5.525 121.55<211.912 429.164> 342.55 121.55<89.6104 281.949>
LayerCount: 2
Back
SplineSet
414 41 m 2
 414 92 l 1
 144 92 l 1
 384 374 l 2
 389.333 380 394.833 387.167 400.5 395.5 c 128
 406.167 403.833 409 412.333 409 421 c 2
 409 438 l 2
 409 449.333 405.833 458.167 399.5 464.5 c 128
 393.167 470.833 384.333 474 373 474 c 2
 72 474 l 2
 60.6667 474 51.1667 470.833 43.5 464.5 c 128
 35.8333 458.167 32 449.333 32 438 c 2
 32 382 l 1
 281 382 l 1
 32 90 l 2
 28.6667 86 26.1667 80.6667 24.5 74 c 128
 22.8333 67.3333 22 61.3333 22 56 c 2
 22 36 l 2
 22 24.6667 25.8333 15.8333 33.5 9.5 c 128
 41.1667 3.16667 50.6667 7.94729e-08 62 0 c 2
 372 0 l 2
 383.333 0 393.167 4 401.5 12 c 128
 409.833 20 414 29.6667 414 41 c 2
EndSplineSet
Fore
SplineSet
159.562 464.1 m 2
 417.788 464.1 l 2
 445.413 464.1 461.987 442 461.987 419.9 c 2
 461.987 364.65 l 2
 461.993 364.404 461.997 364.16 461.997 363.917 c 0
 461.997 343.901 439.705 331.282 424.762 313.371 c 2
 211.912 116.025 l 1
 461.987 116.025 l 1
 461.987 82.875 461.987 -5.52539 373.588 -5.52539 c 2
 77.5811 -5.52539 l 2
 63.7686 -5.52539 31.0371 16.5752 31.0371 38.6748 c 2
 31.0371 93.9248 l 2
 31.0293 94.2139 31.0254 94.502 31.0254 94.7891 c 0
 31.0254 114.787 49.874 129.431 68.2617 146.766 c 2
 281.949 342.55 l 1
 49.0615 342.55 l 1
 49.0615 395.705 59.5371 464.1 159.562 464.1 c 2
EndSplineSet
EndChar

StartChar: x
Encoding: 283 120 27
Width: 517
VWidth: 0
Flags: HW
LayerCount: 2
Back
SplineSet
436 53 m 0
 436 61 433.667 68 429 74 c 2
 287 244 l 1
 420 401 l 2
 425.333 407.667 428 414.667 428 422 c 0
 428 434.667 422.667 445.333 412 454 c 2
 394 469 l 2
 386 475.667 377 478 367 476 c 128
 357 474 348.667 469 342 461 c 2
 226 323 l 1
 109 461 l 2
 102.333 469 94 474 84 476 c 128
 74 478 65 475.667 57 469 c 2
 39 454 l 2
 28.3333 445.333 23 434.667 23 422 c 0
 23 414.667 25.6667 407.667 31 401 c 2
 164 244 l 1
 22 74 l 2
 17.3333 68 15 61 15 53 c 0
 15 41.6667 18.3333 32.6667 25 26 c 2
 48 4 l 2
 55.3333 -3.33333 64.1667 -5.83333 74.5 -3.5 c 128
 84.8333 -1.16667 93.3333 4 100 12 c 2
 225 161 l 1
 351 12 l 2
 357.667 4 366.167 -1.16667 376.5 -3.5 c 128
 386.833 -5.83333 395.667 -3.33333 403 4 c 2
 426 26 l 2
 432.667 32.6667 436 41.6667 436 53 c 0
EndSplineSet
Fore
SplineSet
93.2979 473.941 m 0
 93.8076 473.955 94.3174 473.962 94.8281 473.962 c 0
 111.805 473.962 128.694 466.868 140.744 452.981 c 2
 249.932 327.114 l 1
 359.154 452.981 l 2
 371.205 466.87 388.083 473.983 405.063 473.983 c 0
 419.173 473.983 433.354 469.072 444.896 459.059 c 0
 458.785 447.008 465.896 430.129 465.896 413.148 c 0
 465.896 399.038 460.986 384.857 450.974 373.317 c 2
 330.424 234.364 l 1
 488.4 51.0088 l 1
 444.896 9.70312 l 2
 433.345 -0.318359 419.151 -5.23633 405.03 -5.23633 c 0
 388.061 -5.23633 371.197 1.86621 359.154 15.7471 c 2
 249.932 141.612 l 1
 140.744 15.7471 l 2
 128.699 1.86621 111.836 -5.23633 94.8672 -5.23633 c 0
 80.7471 -5.23633 66.5527 -0.318359 55.0029 9.70312 c 0
 41.1133 21.7549 34 38.6221 34 55.5938 c 0
 34 69.6953 38.9111 83.8682 48.9248 95.4102 c 2
 169.474 234.364 l 1
 48.9248 373.317 l 2
 38.9111 384.857 34 399.038 34 413.148 c 0
 34 430.129 41.1133 447.008 55.0029 459.059 c 0
 66.1279 468.712 79.6963 473.6 93.2979 473.941 c 0
EndSplineSet
EndChar

StartChar: exclam
Encoding: 284 33 28
Width: 299
VWidth: 0
Flags: HW
HStem: -1.05669 123.712<106.524 193.989>
VStem: 88.4 123.712<17.0671 104.531 187.85 643.975>
LayerCount: 2
Back
SplineSet
183 260 m 2
 183 636 l 2
 183 647.333 179.167 656.833 171.5 664.5 c 128
 163.833 672.167 154.333 676 143 676 c 2
 120 676 l 2
 108.667 676 99.1667 672.167 91.5 664.5 c 128
 83.8333 656.833 80 647.333 80 636 c 2
 80 260 l 2
 80 248.667 83.8333 239.167 91.5 231.5 c 128
 99.1667 223.833 108.667 220 120 220 c 2
 143 220 l 2
 154.333 220 163.833 223.833 171.5 231.5 c 128
 179.167 239.167 183 248.667 183 260 c 2
183 40 m 2
 183 100 l 2
 183 111.333 179.167 120.833 171.5 128.5 c 128
 163.833 136.167 154.333 140 143 140 c 2
 120 140 l 2
 108.667 140 99.1667 136.167 91.5 128.5 c 128
 83.8333 120.833 80 111.333 80 100 c 2
 80 40 l 2
 80 28.6667 83.8333 19.1667 91.5 11.5 c 128
 99.1667 3.83333 108.667 -7.94729e-08 120 0 c 2
 143 0 l 2
 154.333 0 163.833 3.83333 171.5 11.5 c 128
 179.167 19.1667 183 28.6667 183 40 c 2
EndSplineSet
Fore
SplineSet
212.112 60.7988 m 0
 212.112 26.6543 184.399 -1.05664 150.256 -1.05664 c 0
 116.111 -1.05664 88.4004 26.6543 88.4004 60.7988 c 0
 88.4004 94.9434 116.111 122.655 150.256 122.655 c 0
 184.399 122.655 212.112 94.9434 212.112 60.7988 c 0
150.28 663 m 0
 183.949 663 211.055 635.575 211.055 601.511 c 2
 211.055 187.85 l 1
 89.5049 187.85 l 1
 89.5049 601.511 l 2
 89.5049 635.575 116.61 663 150.28 663 c 0
EndSplineSet
EndChar

StartChar: question
Encoding: 285 63 29
Width: 504
VWidth: 0
Flags: HW
HStem: 0 122.655<149.037 236.056> 278.46 118.236<253.045 327.814> 530.4 134.81<209.187 327.814>
VStem: 131.495 122.655<17.1276 104.56 187.85 278.46 278.46 278.46> 330.395 120.445<399.104 529.99>
LayerCount: 2
Back
SplineSet
394 416 m 2
 394 552 l 2
 394 569.333 390.5 585.667 383.5 601 c 128
 376.5 616.333 367.333 629.5 356 640.5 c 128
 344.667 651.5 331.333 660.167 316 666.5 c 128
 300.667 672.833 284.667 676 268 676 c 2
 86 676 l 2
 70.6667 676 59.1667 672.5 51.5 665.5 c 128
 43.8333 658.5 40 646.333 40 629 c 2
 40 584 l 1
 246 584 l 2
 259.333 584 270.167 579.5 278.5 570.5 c 128
 286.833 561.5 291 551.333 291 540 c 2
 291 429 l 2
 291 417.667 287 407.333 279 398 c 128
 271 388.667 259.333 384 244 384 c 2
 143 384 l 2
 133.667 384 125.5 380.667 118.5 374 c 128
 111.5 367.333 108 359.333 108 350 c 2
 108 254 l 2
 108 245.333 111.5 237.5 118.5 230.5 c 128
 125.5 223.5 133.667 220 143 220 c 2
 176 220 l 2
 185.333 220 193.5 223.333 200.5 230 c 128
 207.5 236.667 211 244.667 211 254 c 2
 211 292 l 1
 269 292 l 2
 285 292 300.667 295 316 301 c 128
 331.333 307 344.667 315.5 356 326.5 c 128
 367.333 337.5 376.5 350.667 383.5 366 c 128
 390.5 381.333 394 398 394 416 c 2
211 40 m 2
 211 100 l 2
 211 111.333 207 120.833 199 128.5 c 128
 191 136.167 181.333 140 170 140 c 2
 147 140 l 2
 135.667 140 126.333 136.167 119 128.5 c 128
 111.667 120.833 108 111.333 108 100 c 2
 108 40 l 2
 108 28.6667 111.667 19.1667 119 11.5 c 128
 126.333 3.83333 135.667 -7.94729e-08 147 0 c 2
 170 0 l 2
 181.333 0 191 3.83333 199 11.5 c 128
 207 19.1667 211 28.6667 211 40 c 2
EndSplineSet
Fore
SplineSet
254.15 60.7754 m 0
 254.15 25.415 226.525 0 192.27 0 c 0
 158.015 0 131.495 25.415 131.495 60.7754 c 0
 131.495 95.0303 158.015 122.655 192.27 122.655 c 0
 226.525 122.655 254.15 95.0303 254.15 60.7754 c 0
301.665 665.21 m 0
 398.905 665.21 450.84 588.965 450.84 507.195 c 2
 450.84 421.005 l 2
 450.84 341.445 398.905 278.46 301.665 278.46 c 2
 301.665 278.46 254.15 278.46 253.045 278.46 c 1
 253.045 187.85 l 1
 131.495 187.85 l 1
 131.495 278.46 l 2
 131.495 351.39 198.9 396.695 254.15 396.695 c 2
 317.135 396.695 l 2
 325.975 396.695 330.395 403.325 330.395 407.745 c 2
 330.395 520.455 l 2
 330.395 527.085 323.765 530.4 319.345 530.4 c 2
 45.3047 530.4 l 1
 45.3047 584.545 l 0
 44.752 585.65 44.4766 586.755 44.4766 587.826 c 0
 44.4766 591.037 46.9619 593.938 51.9346 595.595 c 2
 51.9346 595.595 235.365 665.21 301.665 665.21 c 0
EndSplineSet
EndChar

StartChar: period
Encoding: 286 46 30
Width: 254
VWidth: 0
Flags: HW
HStem: 0 122.655<85.2227 171.413>
VStem: 67.4048 122.655<17.1276 104.56>
LayerCount: 2
Back
SplineSet
179 40 m 2
 179 107 l 2
 179 118.333 175.167 127.833 167.5 135.5 c 128
 159.833 143.167 150.333 147 139 147 c 2
 99 147 l 2
 87.6667 147 78.1667 143.167 70.5 135.5 c 128
 62.8333 127.833 59 118.333 59 107 c 2
 59 40 l 2
 59 28.6667 62.8333 19.1667 70.5 11.5 c 128
 78.1667 3.83333 87.6667 -7.94729e-08 99 0 c 2
 139 0 l 2
 150.333 0 159.833 3.83333 167.5 11.5 c 128
 175.167 19.1667 179 28.6667 179 40 c 2
EndSplineSet
Fore
SplineSet
190.06 60.7754 m 4
 190.06 25.415 161.33 0 127.075 0 c 4
 95.0303 0 67.4053 25.415 67.4053 60.7754 c 4
 67.4053 95.0303 95.0303 122.655 127.075 122.655 c 4
 161.33 122.655 190.06 95.0303 190.06 60.7754 c 4
EndSplineSet
EndChar

StartChar: colon
Encoding: 287 58 31
Width: 255
VWidth: 0
Flags: HW
HStem: -1.05669 123.712<84.4238 171.889> 341.493 123.712<84.4238 171.889>
VStem: 66.3 123.712<17.0671 104.531 359.616 447.081>
LayerCount: 2
Back
SplineSet
179 367 m 2
 179 434 l 2
 179 445.333 175.167 454.833 167.5 462.5 c 128
 159.833 470.167 150.333 474 139 474 c 2
 99 474 l 2
 87.6667 474 78.1667 470.167 70.5 462.5 c 128
 62.8333 454.833 59 445.333 59 434 c 2
 59 367 l 2
 59 355.667 62.8333 346.167 70.5 338.5 c 128
 78.1667 330.833 87.6667 327 99 327 c 2
 139 327 l 2
 150.333 327 159.833 330.833 167.5 338.5 c 128
 175.167 346.167 179 355.667 179 367 c 2
179 40 m 2
 179 107 l 2
 179 118.333 175.167 127.833 167.5 135.5 c 128
 159.833 143.167 150.333 147 139 147 c 2
 99 147 l 2
 87.6667 147 78.1667 143.167 70.5 135.5 c 128
 62.8333 127.833 59 118.333 59 107 c 2
 59 40 l 2
 59 28.6667 62.8333 19.1667 70.5 11.5 c 128
 78.1667 3.83333 87.6667 -7.94729e-08 99 0 c 2
 139 0 l 2
 150.333 0 159.833 3.83333 167.5 11.5 c 128
 175.167 19.1667 179 28.6667 179 40 c 2
EndSplineSet
Fore
SplineSet
190.013 403.348 m 0
 190.013 369.204 162.3 341.492 128.156 341.492 c 0
 94.0117 341.492 66.2998 369.204 66.2998 403.348 c 0
 66.2998 437.493 94.0117 465.205 128.156 465.205 c 0
 162.3 465.205 190.013 437.493 190.013 403.348 c 0
190.013 60.7988 m 0
 190.013 26.6543 162.3 -1.05664 128.156 -1.05664 c 0
 94.0117 -1.05664 66.2998 26.6543 66.2998 60.7988 c 0
 66.2998 94.9434 94.0117 122.655 128.156 122.655 c 0
 162.3 122.655 190.013 94.9434 190.013 60.7988 c 0
EndSplineSet
EndChar

StartChar: semicolon
Encoding: 288 59 32
Width: 266
VWidth: 0
Flags: HW
HStem: 341.493 123.712<86.4093 173.873>
VStem: 66.3 135.691<11.6296 98.9443> 68.2855 123.712<359.616 447.081> 114.844 87.1463<-51.895 -8.25263>
LayerCount: 2
Back
SplineSet
179 367 m 2
 179 434 l 2
 179 445.333 175.167 454.833 167.5 462.5 c 128
 159.833 470.167 150.333 474 139 474 c 2
 99 474 l 2
 87.6667 474 78.1667 470.167 70.5 462.5 c 128
 62.8333 454.833 59 445.333 59 434 c 2
 59 367 l 2
 59 355.667 62.8333 346.167 70.5 338.5 c 128
 78.1667 330.833 87.6667 327 99 327 c 2
 139 327 l 2
 150.333 327 159.833 330.833 167.5 338.5 c 128
 175.167 346.167 179 355.667 179 367 c 2
179 24 m 2
 179 107 l 2
 179 118.333 175.167 127.833 167.5 135.5 c 128
 159.833 143.167 150.333 147 139 147 c 2
 99 147 l 2
 87.6667 147 78.1667 143.167 70.5 135.5 c 128
 62.8333 127.833 59 118.333 59 107 c 2
 59 40 l 2
 59 29.3333 62.6667 20.3333 70 13 c 128
 77.3333 5.66667 84.3333 0.333333 91 -3 c 0
 95.6667 -5 99.3333 -7.16667 102 -9.5 c 128
 104.667 -11.8333 106 -15 106 -19 c 0
 106 -23 106 -23 106 -27 c 256
 106 -29.6667 105.333 -32 104 -34 c 2
 71 -106 l 2
 69 -110.667 68.3333 -115.333 69 -120 c 128
 69.6667 -124.667 72.3333 -128.333 77 -131 c 2
 85 -136 l 2
 89.6667 -138.667 94.3333 -139.333 99 -138 c 128
 103.667 -136.667 107.333 -133.667 110 -129 c 2
 162 -39 l 2
 167.333 -29.6667 171.5 -20.1667 174.5 -10.5 c 128
 177.5 -0.833333 179 10.6667 179 24 c 2
EndSplineSet
Fore
SplineSet
135.206 122.033 m 0x90
 172.065 122.033 201.99 92.1074 201.99 55.25 c 2xc0
 201.99 8.91016 l 2x90
 201.99 -13.7451 195.097 -34.2471 186.244 -48.1709 c 2
 128.854 -129.871 l 2
 119.229 -141.312 107.585 -145.981 96.9668 -145.981 c 0
 80.3848 -145.981 66.2998 -134.597 66.2998 -119.822 c 0xc0
 66.2998 -114.707 67.9873 -109.188 71.8428 -103.594 c 2
 109.067 -31.665 l 1
 113.608 -25.5908 114.844 -20.1885 114.844 -14.4072 c 0
 114.844 -12.415 114.697 -10.3779 114.487 -8.25293 c 1
 87.7656 0.472656 68.458 25.6211 68.458 55.25 c 0
 68.458 92.1074 98.3496 122.033 135.206 122.033 c 0x90
191.998 403.348 m 0xa0
 191.998 369.204 164.285 341.492 130.141 341.492 c 0
 95.9971 341.492 68.2852 369.204 68.2852 403.348 c 0
 68.2852 437.493 95.9971 465.205 130.141 465.205 c 0
 164.285 465.205 191.998 437.493 191.998 403.348 c 0xa0
EndSplineSet
EndChar

StartChar: quotesingle
Encoding: 289 39 33
Width: 255
VWidth: 0
Flags: HW
HStem: 375.7 290.615<92.678 168.444>
VStem: 66.3349 123.691
LayerCount: 2
Back
SplineSet
199 634 m 2
 199 635.333 199.167 636.5 199.5 637.5 c 128
 199.833 638.5 199.667 639.333 199 640 c 1
 199 650 194.833 658.5 186.5 665.5 c 128
 178.167 672.5 169 676 159 676 c 2
 100 676 l 2
 90 676 80.8333 672.5 72.5 665.5 c 128
 64.1667 658.5 60 650 60 640 c 2
 60 634 l 1
 86 444 l 2
 87.3333 436 91.1667 428.833 97.5 422.5 c 128
 103.833 416.167 111.333 413 120 413 c 2
 138 413 l 2
 146.667 413 154.167 416.167 160.5 422.5 c 128
 166.833 428.833 170.667 436 172 444 c 2
 199 634 l 2
EndSplineSet
Fore
SplineSet
128.146 666.315 m 0
 162.29 666.315 190.026 638.615 190.026 604.47 c 2
 168.443 374.694 l 1
 128.146 375.7 l 2
 104.86 375.7 85.7783 393.731 84.084 416.585 c 1
 83.9795 416.585 l 1
 66.335 605.332 l 1
 66.2998 605.54 l 1
 66.335 605.54 l 1
 66.9102 639.188 94.3613 666.315 128.146 666.315 c 0
EndSplineSet
EndChar

StartChar: quotedbl
Encoding: 290 34 34
Width: 451
VWidth: 0
Flags: HW
LayerCount: 2
Back
SplineSet
398 634 m 1
 398 640 l 2
 398 650 394 658.5 386 665.5 c 128
 378 672.5 369 676 359 676 c 2
 300 676 l 2
 288.667 676 278.833 671.833 270.5 663.5 c 128
 262.167 655.167 258.667 645.333 260 634 c 2
 286 444 l 2
 287.333 436 291.167 428.833 297.5 422.5 c 128
 303.833 416.167 311.333 413 320 413 c 2
 338 413 l 2
 346.667 413 354.167 416.167 360.5 422.5 c 128
 366.833 428.833 370.667 436 372 444 c 2
 398 634 l 1
199 634 m 2
 200.333 645.333 196.833 655.167 188.5 663.5 c 128
 180.167 671.833 170.333 676 159 676 c 2
 100 676 l 2
 90 676 80.8333 672.5 72.5 665.5 c 128
 64.1667 658.5 60 650 60 640 c 2
 60 634 l 1
 86 444 l 2
 87.3333 436 91.1667 428.833 97.5 422.5 c 128
 103.833 416.167 111.333 413 120 413 c 2
 138 413 l 2
 146.667 413 154.167 416.167 160.5 422.5 c 128
 166.833 428.833 170.667 436 172 444 c 2
 199 634 l 2
EndSplineSet
Fore
SplineSet
324.51 666.315 m 0
 358.654 666.315 386.39 638.615 386.39 604.47 c 2
 364.81 374.694 l 1
 324.51 375.7 l 2
 301.227 375.7 282.145 393.731 280.447 416.585 c 1
 280.344 416.585 l 1
 262.698 605.332 l 1
 262.664 605.54 l 1
 262.698 605.54 l 1
 263.273 639.188 290.726 666.315 324.51 666.315 c 0
128.146 666.315 m 0
 162.29 666.315 190.026 638.615 190.026 604.47 c 2
 168.443 374.694 l 1
 128.146 375.7 l 2
 104.86 375.7 85.7783 393.731 84.084 416.585 c 1
 83.9795 416.585 l 1
 66.335 605.332 l 1
 66.2998 605.54 l 1
 66.335 605.54 l 1
 66.9102 639.188 94.3604 666.315 128.146 666.315 c 0
EndSplineSet
EndChar

StartChar: M
Encoding: 291 77 35
Width: 680
VWidth: 0
Flags: HW
HStem: 0 17.85G<44.625 166.175 503.2 624.75>
VStem: 44.625 121.55<0 424.769> 503.2 121.55<0 424.769>
LayerCount: 2
Back
SplineSet
591 40 m 2
 591 676 l 1
 531 676 l 2
 513.667 676 500.333 670 491 658 c 2
 333 441 l 1
 175 658 l 2
 166.333 670 153 676 135 676 c 2
 111 676 l 2
 99 676 90 672 84 664 c 128
 78 656 75 646.333 75 635 c 2
 75 40 l 2
 75 28.6667 78.8333 19.1667 86.5 11.5 c 128
 94.1667 3.83333 103.667 -7.94729e-08 115 0 c 2
 138 0 l 2
 149.333 0 158.833 3.83333 166.5 11.5 c 128
 174.167 19.1667 178 28.6667 178 40 c 2
 178 499 l 1
 293 341 l 2
 295 338.333 298.833 334.333 304.5 329 c 128
 310.167 323.667 317.667 321 327 321 c 2
 339 321 l 2
 348.333 321 355.833 323.667 361.5 329 c 128
 367.167 334.333 371 338.333 373 341 c 2
 488 499 l 1
 488 40 l 2
 488 28.6667 491.833 19.1667 499.5 11.5 c 128
 507.167 3.83333 516.667 -7.94729e-08 528 0 c 2
 551 0 l 2
 562.333 0 571.833 3.83333 579.5 11.5 c 128
 587.167 19.1667 591 28.6667 591 40 c 2
EndSplineSet
Fore
SplineSet
105.4 663 m 0
 139.069 663 149.6 640.314 166.175 619.905 c 2
 334.688 388.787 l 1
 503.2 619.905 l 2
 519.775 640.314 530.306 663 563.975 663 c 0
 597.645 663 624.75 635.895 624.75 602.225 c 2
 624.75 0 l 1
 503.2 0 l 1
 503.2 424.769 l 1
 352.401 232.131 l 2
 348.154 226.608 341.319 223.599 334.399 223.599 c 0
 327.821 223.599 321.167 226.318 316.584 232.188 c 2
 166.175 424.769 l 1
 166.175 0 l 1
 44.625 0 l 1
 44.625 602.225 l 2
 44.625 635.895 71.7314 663 105.4 663 c 0
EndSplineSet
EndChar

StartChar: N
Encoding: 292 78 36
Width: 631
VWidth: 0
Flags: HW
HStem: 0 17.85G<44.625 166.175 497.967 531.638>
VStem: 44.625 121.55<0 424.769> 454.028 121.55<238.231 649.601>
LayerCount: 2
Back
SplineSet
545 40 m 2
 545 676 l 1
 476 676 l 2
 466.667 676 458.667 672.167 452 664.5 c 128
 445.333 656.833 442 647.333 442 636 c 2
 442 218 l 1
 174 655 l 2
 166 669 153.667 676 137 676 c 2
 111 676 l 2
 99 676 90 672 84 664 c 128
 78 656 75 646.333 75 635 c 2
 75 40 l 2
 75 28.6667 78.8333 19.1667 86.5 11.5 c 128
 94.1667 3.83333 103.667 -7.94729e-08 115 0 c 2
 138 0 l 2
 149.333 0 158.833 3.83333 166.5 11.5 c 128
 174.167 19.1667 178 28.6667 178 40 c 2
 178 468 l 1
 446 31 l 2
 451.333 21.6667 457.333 14.1667 464 8.5 c 128
 470.667 2.83333 479.333 -7.94729e-08 490 0 c 2
 504 0 l 2
 515.333 0 525 3.83333 533 11.5 c 128
 541 19.1667 545 28.6667 545 40 c 2
EndSplineSet
Fore
SplineSet
105.4 663 m 0
 139.069 663 149.6 640.314 166.175 619.905 c 2
 454.027 238.231 l 1
 454.027 615.485 l 2
 456.237 643.11 480.548 663 513.697 663 c 2
 575.577 663 l 1
 575.577 60.7754 l 2
 575.577 27.1064 548.472 0 514.803 0 c 0
 481.133 0 470.603 22.6865 454.027 43.0947 c 2
 166.175 424.769 l 1
 166.175 0 l 1
 44.625 0 l 1
 44.625 602.225 l 2
 44.625 635.895 71.7314 663 105.4 663 c 0
EndSplineSet
EndChar

StartChar: H
Encoding: 293 72 37
Width: 598
VWidth: 0
Flags: HW
HStem: 0 17.85G<44.625 166.175 420.325 541.875> 263.439 121.55<166.175 420.325>
VStem: 44.625 121.55<0 263.439 384.989 645.238> 420.325 121.55<0 263.439 384.989 645.238>
LayerCount: 2
Back
SplineSet
522 40 m 2
 522 676 l 1
 459 676 l 2
 447.667 676 438.167 672.167 430.5 664.5 c 128
 422.833 656.833 419 647.333 419 636 c 2
 419 384 l 1
 178 384 l 1
 178 636 l 2
 178 647.333 174.167 656.833 166.5 664.5 c 128
 158.833 672.167 149.333 676 138 676 c 2
 115 676 l 2
 103.667 676 94.1667 672.167 86.5 664.5 c 128
 78.8333 656.833 75 647.333 75 636 c 2
 75 40 l 2
 75 28.6667 78.8333 19.1667 86.5 11.5 c 128
 94.1667 3.83333 103.667 -7.94729e-08 115 0 c 2
 138 0 l 2
 149.333 0 158.833 3.83333 166.5 11.5 c 128
 174.167 19.1667 178 28.6667 178 40 c 2
 178 292 l 1
 419 292 l 1
 419 40 l 2
 419 28.6667 422.833 19.1667 430.5 11.5 c 128
 438.167 3.83333 447.667 -7.94729e-08 459 0 c 2
 482 0 l 2
 493.333 0 502.833 3.83333 510.5 11.5 c 128
 518.167 19.1667 522 28.6667 522 40 c 2
EndSplineSet
Fore
SplineSet
105.4 663 m 0
 139.069 663 166.175 635.895 166.175 602.225 c 2
 166.175 384.989 l 1
 420.325 384.989 l 1
 420.325 602.225 l 2
 420.325 635.895 447.431 663 481.1 663 c 2
 541.875 663 l 1
 541.875 0 l 1
 420.325 0 l 1
 420.325 263.438 l 1
 166.175 263.438 l 1
 166.175 0 l 1
 44.625 0 l 1
 44.625 602.225 l 2
 44.625 635.895 71.7314 663 105.4 663 c 0
EndSplineSet
EndChar

StartChar: O
Encoding: 294 79 38
Width: 572
VWidth: 0
Flags: HW
HStem: 0 121.55<163.173 394.005> 541.45 121.55<163.173 394.005>
VStem: 40.375 121.619<122.798 540.202> 395.184 121.619<122.798 540.202>
LayerCount: 2
Back
SplineSet
527 125 m 2
 527 551 l 2
 527 568.333 523.667 584.5 517 599.5 c 128
 510.333 614.5 501.333 627.667 490 639 c 128
 478.667 650.333 465.5 659.333 450.5 666 c 128
 435.5 672.667 419.333 676 402 676 c 2
 200 676 l 2
 182.667 676 166.5 672.667 151.5 666 c 128
 136.5 659.333 123.333 650.333 112 639 c 128
 100.667 627.667 91.6667 614.5 85 599.5 c 128
 78.3333 584.5 75 568.333 75 551 c 2
 75 125 l 2
 75 107.667 78.3333 91.5 85 76.5 c 128
 91.6667 61.5 100.667 48.3333 112 37 c 128
 123.333 25.6667 136.5 16.6667 151.5 10 c 128
 166.5 3.33333 182.667 -7.94729e-08 200 0 c 2
 402 0 l 2
 419.333 0 435.5 3.33333 450.5 10 c 128
 465.5 16.6667 478.667 25.6667 490 37 c 128
 501.333 48.3333 510.333 61.5 517 76.5 c 128
 523.667 91.5 527 107.667 527 125 c 2
424 137 m 2
 424 124.333 419.667 113.667 411 105 c 128
 402.333 96.3333 391.667 92 379 92 c 2
 223 92 l 2
 210.333 92 199.667 96.3333 191 105 c 128
 182.333 113.667 178 124.333 178 137 c 2
 178 539 l 2
 178 551.667 182.333 562.333 191 571 c 128
 199.667 579.667 210.333 584 223 584 c 2
 379 584 l 2
 391.667 584 402.333 579.667 411 571 c 128
 419.667 562.333 424 551.667 424 539 c 2
 424 137 l 2
EndSplineSet
Fore
SplineSet
185.303 663 m 2
 371.875 663 l 2
 452.172 663 516.803 598.369 516.803 518.072 c 2
 516.803 144.928 l 2
 516.803 64.6309 452.172 0 371.875 0 c 2
 185.303 0 l 2
 105.006 0 40.375 64.6309 40.375 144.928 c 2
 40.375 518.072 l 2
 40.375 598.369 105.006 663 185.303 663 c 2
172.975 541.45 m 2
 166.897 541.45 161.994 536.546 161.994 530.468 c 2
 161.994 132.531 l 2
 161.994 126.454 166.897 121.55 172.975 121.55 c 2
 384.202 121.55 l 2
 390.279 121.55 395.184 126.454 395.184 132.531 c 2
 395.184 530.468 l 2
 395.184 536.546 390.279 541.45 384.202 541.45 c 2
 172.975 541.45 l 2
EndSplineSet
EndChar

StartChar: P
Encoding: 295 80 39
Width: 509
VWidth: 0
Flags: HW
HStem: 0 17.85G<44.2 165.75> 262.99 121.55<165.75 331.201> 540.405 122.595<165.75 331.178>
VStem: 44.2 121.55<0 262.99 384.54 540.405> 331.5 121.55<384.54 395.59 395.59 538.713>
LayerCount: 2
Back
SplineSet
490 416 m 2
 490 545 l 2
 490 583.667 478.667 615.667 456 641 c 128
 433.333 666.333 397.333 679 348 679 c 2
 330 679 l 2
 313.333 679 297.5 676.5 282.5 671.5 c 128
 267.5 666.5 254 660.833 242 654.5 c 128
 224 645 224 645 210 637.5 c 128
 200.667 632.5 193 630 187 630 c 0
 180.333 630 175.333 632.667 172 638 c 2
 145 676 l 1
 112 676 l 2
 100.667 676 91.6667 672.333 85 665 c 128
 78.3333 657.667 75 648.333 75 637 c 2
 75 40 l 2
 75 28.6667 78.8333 19.1667 86.5 11.5 c 128
 94.1667 3.83333 103.667 -7.94729e-08 115 0 c 2
 138 0 l 2
 149.333 0 158.833 3.83333 166.5 11.5 c 128
 174.167 19.1667 178 28.6667 178 40 c 2
 178 292 l 1
 359 292 l 2
 377 292 393.833 295.333 409.5 302 c 128
 425.167 308.667 439 317.667 451 329 c 128
 463 340.333 472.5 353.5 479.5 368.5 c 128
 486.5 383.5 490 399.333 490 416 c 2
387 434 m 2
 387 420 382 408.167 372 398.5 c 128
 362 388.833 349.667 384 335 384 c 2
 178 384 l 1
 178 539 l 2
 178 551.667 182.333 562.333 191 571 c 128
 199.667 579.667 210.333 584 223 584 c 2
 347 584 l 2
 359.667 584 369.5 579.667 376.5 571 c 128
 383.5 562.333 387 551.667 387 539 c 2
 387 434 l 2
EndSplineSet
Fore
SplineSet
165.75 0 m 1
 44.2002 0 l 1
 44.2002 663 l 1
 320.45 663 l 2
 397.8 663 453.05 607.75 453.05 535.331 c 2
 453.05 384.54 l 2
 453.05 304.411 381.225 262.99 325.975 262.99 c 2
 165.75 262.99 l 1
 165.75 0 l 1
331.5 395.59 m 2
 331.5 529.079 l 2
 331.5 534.611 325.706 540.405 320.45 540.405 c 2
 165.75 540.405 l 1
 165.75 384.54 l 1
 320.174 384.54 l 2
 326.258 384.54 331.5 389.506 331.5 395.59 c 2
EndSplineSet
EndChar

StartChar: C
Encoding: 296 67 40
Width: 504
VWidth: 0
Flags: HW
HStem: 0 121.55<163.173 418.733> 541.45 121.55<163.173 407.303>
VStem: 40.375 121.619<122.798 144.928 144.928 540.202>
LayerCount: 2
Back
SplineSet
470 36 m 2
 470 92 l 1
 223 92 l 2
 210.333 92 199.667 96.3333 191 105 c 128
 182.333 113.667 178 124.333 178 137 c 2
 178 539 l 2
 178 551.667 182.333 562.333 191 571 c 128
 199.667 579.667 210.333 584 223 584 c 2
 446 584 l 1
 446 640 l 2
 446 651.333 442.167 660.167 434.5 666.5 c 128
 426.833 672.833 417.333 676 406 676 c 2
 200 676 l 2
 182.667 676 166.5 672.667 151.5 666 c 128
 136.5 659.333 123.333 650.333 112 639 c 128
 100.667 627.667 91.6667 614.5 85 599.5 c 128
 78.3333 584.5 75 568.333 75 551 c 2
 75 125 l 2
 75 107.667 78.3333 91.5 85 76.5 c 128
 91.6667 61.5 100.667 48.3333 112 37 c 128
 123.333 25.6667 136.5 16.6667 151.5 10 c 128
 166.5 3.33333 182.667 -7.94729e-08 200 0 c 2
 430 0 l 2
 441.333 0 450.833 3.16667 458.5 9.5 c 128
 466.167 15.8333 470 24.6667 470 36 c 2
EndSplineSet
Fore
SplineSet
185.303 663 m 2
 360.825 663 l 2
 419.429 661.915 449.255 597.943 449.255 544.363 c 0
 449.255 543.388 449.244 542.417 449.225 541.45 c 1
 172.975 541.45 l 2
 166.897 541.45 161.994 536.546 161.994 530.468 c 2
 161.994 132.531 l 2
 161.994 126.454 166.897 121.55 172.975 121.55 c 2
 460.275 121.55 l 1
 460.275 66.2998 427.125 0 371.875 0 c 2
 185.303 0 l 2
 105.006 0 40.375 64.6309 40.375 144.928 c 2
 40.375 518.072 l 2
 40.375 598.369 105.006 663 185.303 663 c 2
EndSplineSet
EndChar

StartChar: Q
Encoding: 297 81 41
Width: 613
VWidth: 0
Flags: HW
HStem: 0 121.55<162.748 338.542> 541.45 121.55<162.748 393.58>
VStem: 39.95 121.619<122.798 540.202> 394.759 121.619<168.513 540.202>
LayerCount: 2
Back
SplineSet
601 -35 m 0
 601 -27.6667 598.667 -21.3333 594 -16 c 2
 518 78 l 1
 524 92 527 107.667 527 125 c 2
 527 551 l 2
 527 568.333 523.667 584.667 517 600 c 128
 510.333 615.333 501.333 628.667 490 640 c 128
 478.667 651.333 465.5 660.167 450.5 666.5 c 128
 435.5 672.833 419.333 676 402 676 c 2
 200 676 l 2
 182.667 676 166.5 672.833 151.5 666.5 c 128
 136.5 660.167 123.333 651.333 112 640 c 128
 100.667 628.667 91.6667 615.333 85 600 c 128
 78.3333 584.667 75 568.333 75 551 c 2
 75 125 l 2
 75 107.667 78.3333 91.3333 85 76 c 128
 91.6667 60.6667 100.667 47.3333 112 36 c 128
 123.333 24.6667 136.5 15.8333 151.5 9.5 c 128
 166.5 3.16667 182.667 7.94729e-08 200 0 c 2
 404 0 l 2
 413.333 0 422.167 1 430.5 3 c 128
 438.833 5 445.667 7.33333 451 10 c 1
 545 -64 l 2
 551.667 -69.3333 558.333 -72 565 -72 c 0
 572.333 -72 579 -69.3333 585 -64 c 2
 594 -56 l 2
 597.333 -53.3333 599.333 -50 600 -46 c 128
 600.667 -42 601 -38.3333 601 -35 c 0
424 137 m 2
 424 124.333 419.667 113.667 411 105 c 128
 402.333 96.3333 391.667 92 379 92 c 2
 223 92 l 2
 210.333 92 199.667 96.3333 191 105 c 128
 182.333 113.667 178 124.333 178 137 c 2
 178 539 l 2
 178 551.667 182.333 562.333 191 571 c 128
 199.667 579.667 210.333 584 223 584 c 2
 379 584 l 2
 391.667 584 402.333 579.667 411 571 c 128
 419.667 562.333 424 551.667 424 539 c 2
 424 137 l 2
EndSplineSet
Fore
SplineSet
184.878 663 m 2
 371.45 663 l 2
 451.747 663 516.378 598.369 516.378 518.072 c 2
 516.378 144.928 l 2
 516.378 124.826 512.314 105.701 504.983 88.3311 c 1
 551.902 42.0342 602.015 -7.38965 602.015 -7.38965 c 1
 575.737 -37.9844 l 2
 567.013 -48.6621 554.327 -54.1855 541.534 -54.1855 c 0
 532.723 -54.1855 523.861 -51.5654 516.205 -46.2031 c 1
 516.137 -46.3066 l 1
 429.429 11.9824 l 1
 411.69 4.27441 392.088 0 371.45 0 c 2
 184.878 0 l 2
 104.581 0 39.9502 64.6309 39.9502 144.928 c 2
 39.9502 518.072 l 2
 39.9502 598.369 104.581 663 184.878 663 c 2
172.55 541.45 m 2
 166.473 541.45 161.568 536.546 161.568 530.468 c 2
 161.568 132.531 l 2
 161.568 126.454 166.473 121.55 172.55 121.55 c 2
 338.542 121.55 l 1
 346.146 147.687 367.029 166.153 394.759 168.513 c 1
 394.759 530.468 l 2
 394.759 536.546 389.854 541.45 383.777 541.45 c 2
 172.55 541.45 l 2
EndSplineSet
EndChar

StartChar: R
Encoding: 298 82 42
Width: 526
VWidth: 0
Flags: HW
HStem: 0 17.85G<44.625 166.175> 262.99 121.55<166.175 268.043> 540.413 122.587<166.175 328.547>
VStem: 44.625 121.55<0 262.99 384.54 540.413> 331.925 121.55<384.54 395.59 395.59 538.72>
LayerCount: 2
Back
SplineSet
513 51 m 0
 513 57 511.667 62.3333 509 67 c 2
 387 295 l 1
 403 298.333 417.5 304 430.5 312 c 128
 443.5 320 454.333 329.5 463 340.5 c 128
 471.667 351.5 478.333 363.667 483 377 c 128
 487.667 390.333 490 403.333 490 416 c 2
 490 545 l 2
 490 583.667 478.667 615.667 456 641 c 128
 433.333 666.333 397.333 679 348 679 c 2
 331 679 l 2
 314.333 679 298.5 676.5 283.5 671.5 c 128
 268.5 666.5 254.833 660.833 242.5 654.5 c 128
 224 645 224 645 210 637.5 c 128
 200.667 632.5 193 630 187 630 c 0
 180.333 630 175.333 632.667 172 638 c 2
 145 676 l 1
 112 676 l 2
 100.667 676 91.6667 672.333 85 665 c 128
 78.3333 657.667 75 648.333 75 637 c 2
 75 40 l 2
 75 28.6667 78.8333 19.1667 86.5 11.5 c 128
 94.1667 3.83333 103.667 -7.94729e-08 115 0 c 2
 138 0 l 2
 149.333 0 158.833 3.83333 166.5 11.5 c 128
 174.167 19.1667 178 28.6667 178 40 c 2
 178 292 l 1
 271 292 l 1
 416 20 l 2
 421.333 10.6667 429.333 4 440 0 c 128
 450.667 -4 461 -3.33333 471 2 c 2
 492 14 l 2
 507.333 23.3333 514.333 35.6667 513 51 c 0
387 435 m 2
 387 420.333 381.833 408.167 371.5 398.5 c 128
 361.167 388.833 349.333 384 336 384 c 2
 178 384 l 1
 178 539 l 2
 178 551.667 182.333 562.333 191 571 c 128
 199.667 579.667 210.333 584 223 584 c 2
 347 584 l 2
 359.667 584 369.5 579.667 376.5 571 c 128
 383.5 562.333 387 551.667 387 539 c 2
 387 435 l 2
EndSplineSet
Fore
SplineSet
44.625 663 m 1
 320.875 663 l 2
 403.75 663 453.475 607.75 453.475 535.339 c 2
 453.475 384.54 l 2
 453.475 335.086 426.118 300.378 392.183 281.05 c 1
 497.828 26.0811 l 1
 444.29 -2.31348 l 2
 436.604 -5.5127 428.651 -7.02832 420.839 -7.02832 c 0
 397.057 -7.02832 374.571 7.02246 364.833 30.4219 c 2
 268.043 262.99 l 1
 166.175 262.99 l 1
 166.175 0 l 1
 44.625 0 l 1
 44.625 663 l 1
166.175 540.413 m 1
 166.175 384.54 l 1
 320.599 384.54 l 2
 326.683 384.54 331.925 389.506 331.925 395.59 c 2
 331.925 529.087 l 2
 331.925 534.618 326.132 540.413 320.875 540.413 c 2
 166.175 540.413 l 1
EndSplineSet
EndChar

StartChar: T
Encoding: 299 84 43
Width: 525
VWidth: 0
Flags: HW
HStem: 0 17.85G<159.8 281.35> 541.45 121.55<-10.2883 159.8 281.35 451.438>
VStem: 159.8 121.55<0 541.45>
LayerCount: 2
Back
SplineSet
489 584 m 1
 489 640 l 2
 489 651.333 485.167 660.167 477.5 666.5 c 128
 469.833 672.833 460.333 676 449 676 c 2
 30 676 l 2
 18.6667 676 9.16667 672.833 1.5 666.5 c 128
 -6.16667 660.167 -10 651.333 -10 640 c 2
 -10 584 l 1
 188 584 l 1
 188 40 l 2
 188 28.6667 191.833 19.1667 199.5 11.5 c 128
 207.167 3.83333 216.667 -7.94729e-08 228 0 c 2
 251 0 l 2
 262.333 0 271.833 3.83333 279.5 11.5 c 128
 287.167 19.1667 291 28.6667 291 40 c 2
 291 584 l 1
 489 584 l 1
EndSplineSet
Fore
SplineSet
32.7246 663 m 2
 408.425 663 l 2
 442.095 663 469.2 635.895 469.2 602.225 c 2
 469.2 541.45 l 1
 281.35 541.45 l 1
 281.35 0 l 1
 159.8 0 l 1
 159.8 541.45 l 1
 -28.0498 541.45 l 1
 -28.0498 602.225 l 2
 -28.0498 635.895 -0.943359 663 32.7246 663 c 2
EndSplineSet
EndChar

StartChar: V
Encoding: 300 86 44
Width: 594
VWidth: 0
Flags: HW
HStem: 0 17.85G<196.01 332.598>
LayerCount: 2
Back
SplineSet
527 633 m 0
 527 642.333 524 650.833 518 658.5 c 128
 512 666.167 504.667 671 496 673 c 2
 474 678 l 2
 462.667 680.667 452.667 679.167 444 673.5 c 128
 435.333 667.833 429.333 659.333 426 648 c 0
 412 605 412 605 401.5 572 c 128
 391 539 391 539 378.5 498.5 c 128
 366 458 366 458 354 419 c 128
 346 393 339 369.333 333 348 c 128
 327 326.667 322.667 310.667 320 300 c 2
 277 115 l 1
 275 115 l 1
 232 300 l 2
 229.333 310.667 225 326.667 219 348 c 128
 213 369.333 206 393 198 419 c 128
 186 458 186 458 173.5 498.5 c 128
 161 539 161 539 150.5 572 c 128
 140 605 140 605 133 626.5 c 128
 128.333 640.833 125.167 650.833 123.5 656.5 c 128
 121.833 662.167 116.667 667.833 108 673.5 c 128
 99.3333 679.167 89.3333 680.667 78 678 c 2
 56 673 l 2
 47.3333 671 40 666.167 34 658.5 c 128
 28 650.833 25 642.333 25 633 c 0
 25 629 25.3333 626 26 624 c 2
 207 39 l 2
 210.333 27.6667 217.5 18.3333 228.5 11 c 128
 239.5 3.66667 251 7.94729e-08 263 0 c 2
 289 0 l 2
 301 0 312.5 3.66667 323.5 11 c 128
 334.5 18.3333 341.667 27.6667 345 39 c 2
 526 624 l 2
 526.667 626 527 629 527 633 c 0
EndSplineSet
Fore
SplineSet
70.1943 668.559 m 0
 70.6006 668.568 71.0049 668.572 71.4102 668.572 c 0
 96.874 668.572 120.484 652.473 128.967 626.915 c 2
 264.434 218.755 l 1
 399.899 626.915 l 2
 408.382 652.474 432.003 668.583 457.47 668.583 c 0
 463.845 668.583 470.335 667.574 476.731 665.452 c 2
 482.913 663.38 l 1
 538.311 641.131 l 1
 326.995 0 l 1
 201.64 0 l 1
 7.38281 586.583 l 2
 5.25977 592.979 4.25 599.469 4.25 605.839 c 0
 4.25 631.299 20.3613 654.896 45.9199 663.38 c 2
 52.1357 665.452 l 2
 58.126 667.441 64.2119 668.439 70.1943 668.559 c 0
EndSplineSet
EndChar

StartChar: A
Encoding: 301 65 45
Width: 555
VWidth: 0
Flags: HW
HStem: 143.064 121.55<218.118 336.767>
LayerCount: 2
Back
SplineSet
531 41 m 0
 531 45.6667 530.667 49.3333 530 52 c 2
 345 676 l 1
 248 676 l 2
 232.667 676 221.5 671.833 214.5 663.5 c 128
 207.5 655.167 202.333 645.333 199 634 c 2
 27 52 l 2
 26.3333 50 25.8333 48.1667 25.5 46.5 c 128
 25.1667 44.8333 25 43 25 41 c 0
 25 32.3333 27.6667 24.1667 33 16.5 c 128
 38.3333 8.83333 45.3333 4 54 2 c 2
 70 -2 l 2
 80 -4.66667 90 -3.5 100 1.5 c 128
 110 6.5 116.667 14 120 24 c 2
 168 189 l 1
 389 189 l 1
 437 24 l 2
 439.667 14.6667 444.833 7.83333 452.5 3.5 c 128
 460.167 -0.833333 468.667 -3 478 -3 c 0
 482 -3 485 -2.66667 487 -2 c 2
 503 2 l 2
 512.333 4 519.333 8.83333 524 16.5 c 128
 528.667 24.1667 531 32.3333 531 41 c 0
362 281 m 1
 195 281 l 1
 231 404 l 2
 235.667 420 240.667 438.333 246 459 c 128
 254 490 254 490 261 517.5 c 128
 268 545 268 545 272.5 564 c 128
 275.5 576.667 278 583 280 583 c 1
 289 545 289 545 296 517.5 c 128
 303 490 303 490 311 459 c 128
 316.333 438.333 321.333 420 326 404 c 2
 362 281 l 1
EndSplineSet
Fore
SplineSet
272.781 663 m 2
 339.945 663 l 1
 534.183 76.418 l 1
 535.199 70.1797 535.694 64.2598 535.694 58.6699 c 0
 535.694 19.5527 511.429 -3.37012 471.371 -5.55957 c 0
 470.371 -5.61426 469.374 -5.6416 468.382 -5.6416 c 0
 443.637 -5.6416 420.883 11.124 412.599 36.085 c 2
 377.1 143.063 l 1
 177.786 143.063 l 1
 142.287 36.085 l 2
 133.914 10.8574 110.786 -5.60156 85.7139 -5.60156 c 0
 84.9814 -5.60156 84.25 -5.58789 83.5146 -5.55957 c 0
 46.9385 -4.15332 18.2754 22 18.2754 57.9277 c 0
 18.2754 63.8477 19.0537 70.0342 20.7031 76.418 c 2
 192.876 596.217 l 2
 206.939 632.159 230.588 663 272.781 663 c 2
277.442 443.312 m 1
 218.118 264.613 l 1
 336.768 264.613 l 1
 277.442 443.312 l 1
EndSplineSet
EndChar

StartChar: G
Encoding: 302 71 46
Width: 504
VWidth: 0
Flags: HW
HStem: 0 121.55<162.748 338.3> 263.543 79.3518<271.663 338.3> 541.45 121.55<162.748 406.878>
VStem: 39.95 121.619<122.798 144.928 144.928 540.202> 338.3 121.55<121.55 263.543>
LayerCount: 2
Back
SplineSet
510 125 m 2
 510 384 l 1
 327 384 l 2
 315.667 384 306.167 380.833 298.5 374.5 c 128
 290.833 368.167 287 359.333 287 348 c 2
 287 328 l 2
 287 316.667 290.833 307.833 298.5 301.5 c 128
 306.167 295.167 315.667 292 327 292 c 2
 407 292 l 1
 407 137 l 2
 407 124.333 402.667 113.667 394 105 c 128
 385.333 96.3333 374.667 92 362 92 c 2
 223 92 l 2
 210.333 92 199.667 96.3333 191 105 c 128
 182.333 113.667 178 124.333 178 137 c 2
 178 539 l 2
 178 551.667 182.333 562.333 191 571 c 128
 199.667 579.667 210.333 584 223 584 c 2
 483 584 l 1
 483 640 l 2
 483 651.333 479.167 660.167 471.5 666.5 c 128
 463.833 672.833 454.333 676 443 676 c 2
 200 676 l 2
 182.667 676 166.5 672.667 151.5 666 c 128
 136.5 659.333 123.333 650.333 112 639 c 128
 100.667 627.667 91.6667 614.5 85 599.5 c 128
 78.3333 584.5 75 568.333 75 551 c 2
 75 125 l 2
 75 107.667 78.3333 91.5 85 76.5 c 128
 91.6667 61.5 100.667 48.3333 112 37 c 128
 123.333 25.6667 136.5 16.6667 151.5 10 c 128
 166.5 3.33333 182.667 -7.94729e-08 200 0 c 2
 385 0 l 2
 402.333 0 418.5 3.33333 433.5 10 c 128
 448.5 16.6667 461.667 25.6667 473 37 c 128
 484.333 48.3333 493.333 61.5 500 76.5 c 128
 506.667 91.5 510 107.667 510 125 c 2
EndSplineSet
Fore
SplineSet
184.878 663 m 2
 360.4 663 l 2
 419.003 661.915 448.83 597.943 448.83 544.363 c 0
 448.83 543.388 448.819 542.417 448.8 541.45 c 1
 172.55 541.45 l 2
 166.473 541.45 161.568 536.546 161.568 530.468 c 2
 161.568 132.531 l 2
 161.568 126.454 166.473 121.55 172.55 121.55 c 2
 338.3 121.55 l 1
 338.3 263.543 l 1
 305.15 263.543 l 2
 280.147 263.543 266.475 280.643 266.475 304.082 c 2
 266.475 342.895 l 1
 459.85 342.895 l 1
 459.85 282.119 l 1
 459.85 121.55 l 1
 459.85 60.7754 l 2
 459.85 27.7686 437.941 0.240234 394.262 0.240234 c 0
 394.07 0.240234 393.88 0.240234 393.688 0.241211 c 1
 393.688 0.240234 393.55 0 393.55 0 c 1
 184.878 0 l 2
 104.581 0 39.9502 64.6309 39.9502 144.928 c 2
 39.9502 518.072 l 2
 39.9502 598.369 104.581 663 184.878 663 c 2
EndSplineSet
EndChar

StartChar: U
Encoding: 303 85 47
Width: 544
VWidth: 0
Flags: HW
HStem: 0 121.654<165.325 366.47>
VStem: 43.775 121.55<121.658 651.703> 366.47 121.55<121.658 646.615>
LayerCount: 2
Back
SplineSet
511 37 m 2
 511 636 l 2
 511 647.333 507.167 656.833 499.5 664.5 c 128
 491.833 672.167 482.333 676 471 676 c 2
 448 676 l 2
 436.667 676 427.167 672.167 419.5 664.5 c 128
 411.833 656.833 408 647.333 408 636 c 2
 408 137 l 2
 408 124.333 403.667 113.667 395 105 c 128
 386.333 96.3333 375.667 92 363 92 c 2
 223 92 l 2
 210.333 92 199.667 96.3333 191 105 c 128
 182.333 113.667 178 124.333 178 137 c 2
 178 636 l 2
 178 647.333 174.167 656.833 166.5 664.5 c 128
 158.833 672.167 149.333 676 138 676 c 2
 115 676 l 2
 103.667 676 94.1667 672.167 86.5 664.5 c 128
 78.8333 656.833 75 647.333 75 636 c 2
 75 130 l 2
 75 91.3333 86.5 59.5 109.5 34.5 c 128
 132.5 9.5 168.667 -3 218 -3 c 2
 255 -3 l 2
 272.333 -3 288.333 -0.5 303 4.5 c 128
 317.667 9.5 331.333 15.1667 344 21.5 c 128
 363 31 363 31 377 38.5 c 128
 386.333 43.5 394 46 400 46 c 256
 406 46 410.667 43.3333 414 38 c 2
 440 0 l 1
 475 0 l 2
 488.333 0 497.667 4.33333 503 13 c 128
 508.333 21.6667 511 29.6667 511 37 c 2
EndSplineSet
Fore
SplineSet
104.964 667.835 m 0
 135.214 667.696 165.325 647.53 165.325 607.75 c 2
 165.325 132.704 l 2
 165.325 127.179 170.884 121.653 176.409 121.653 c 2
 355.385 121.653 l 2
 360.91 121.653 366.47 127.179 366.47 132.704 c 2
 366.47 602.225 l 2
 366.47 642.15 396.801 663.003 427.162 663.003 c 0
 427.762 663 l 2
 488.02 663 l 1
 488.02 110.5 l 2
 488.02 44.2002 443.82 0 388.57 0 c 2
 143.225 0 l 2
 87.9746 0 43.7754 44.2002 43.7754 110.5 c 2
 43.7754 607.75 l 2
 44.3252 647.943 74.5059 667.835 104.651 667.835 c 0
 104.964 667.835 l 0
EndSplineSet
EndChar

StartChar: S
Encoding: 304 83 48
Width: 510
VWidth: 0
Flags: HW
HStem: -1.08159 112.709<75.7191 349.008> 280.014 121.8<161.84 351.896> 550.29 112.71<161.843 407.947>
VStem: 40.2903 121.55<401.818 550.29> 351.9 121.55<113.314 122.641 122.641 277.522>
LayerCount: 2
Back
SplineSet
447 125 m 2
 447 259 l 2
 447 276.333 443.667 292.5 437 307.5 c 128
 430.333 322.5 421.333 335.667 410 347 c 128
 398.667 358.333 385.5 367.333 370.5 374 c 128
 355.5 380.667 339.333 384 322 384 c 2
 194 384 l 2
 181.333 384 170.667 388.333 162 397 c 128
 153.333 405.667 149 416.333 149 429 c 2
 149 539 l 2
 149 551.667 153.333 562.333 162 571 c 128
 170.667 579.667 181.333 584 194 584 c 2
 418 584 l 1
 418 640 l 2
 418 651.333 414.167 660.167 406.5 666.5 c 128
 398.833 672.833 389.333 676 378 676 c 2
 171 676 l 2
 153.667 676 137.5 672.667 122.5 666 c 128
 107.5 659.333 94.3333 650.333 83 639 c 128
 71.6667 627.667 62.6667 614.5 56 599.5 c 128
 49.3333 584.5 46 568.333 46 551 c 2
 46 417 l 2
 46 399.667 49.3333 383.5 56 368.5 c 128
 62.6667 353.5 71.6667 340.333 83 329 c 128
 94.3333 317.667 107.5 308.667 122.5 302 c 128
 137.5 295.333 153.667 292 171 292 c 2
 299 292 l 2
 311.667 292 322.333 287.667 331 279 c 128
 339.667 270.333 344 259.667 344 247 c 2
 344 137 l 2
 344 124.333 339.667 113.667 331 105 c 128
 322.333 96.3333 311.667 92 299 92 c 2
 38 92 l 1
 38 36 l 2
 38 24.6667 41.8333 15.8333 49.5 9.5 c 128
 57.1667 3.16667 66.6667 7.94729e-08 78 0 c 2
 322 0 l 2
 339.333 0 355.5 3.33333 370.5 10 c 128
 385.5 16.6667 398.667 25.6667 410 37 c 128
 421.333 48.3333 430.333 61.5 437 76.5 c 128
 443.667 91.5 447 107.667 447 125 c 2
EndSplineSet
Fore
SplineSet
40.29 563.55 m 6
 40.29 616.755 84.7148 663 161.84 663 c 6
 353.005 663 l 6
 406.601 662.06 441.405 627.391 441.405 550.29 c 5
 172.89 550.29 l 6
 166.626 550.29 161.84 545.017 161.84 539.157 c 6
 161.84 412.463 l 6
 161.84 407.542 167.074 401.813 172.374 401.813 c 4
 172.547 401.813 172.719 401.819 172.89 401.831 c 6
 351.9 401.831 l 6
 430.139 401.831 473.45 340.896 473.45 274.41 c 6
 473.45 120.469 l 6
 473.45 43.1182 429.25 -1.08203 340.85 -1.08203 c 6
 125.375 -1.08203 l 6
 68.0723 -1.08203 48.0254 45.2969 48.0254 111.628 c 5
 340.85 111.628 l 6
 346.712 111.628 351.9 116.782 351.9 122.642 c 6
 351.9 270.312 l 6
 351.9 275.586 346.319 280.014 340.85 280.014 c 6
 161.84 280.014 l 6
 93.9727 280.014 40.29 327.725 40.29 392.882 c 6
 40.29 563.55 l 6
EndSplineSet
EndChar

StartChar: I
Encoding: 305 73 49
Width: 221
VWidth: 0
Flags: HW
HStem: 0 17.85G<44.2 165.75>
VStem: 44.2 121.55<0 645.238>
LayerCount: 2
Back
SplineSet
188 40 m 2
 188 636 l 2
 188 647.333 184.167 656.833 176.5 664.5 c 128
 168.833 672.167 159.333 676 148 676 c 2
 125 676 l 2
 113.667 676 104.167 672.167 96.5 664.5 c 128
 88.8333 656.833 85 647.333 85 636 c 2
 85 40 l 2
 85 28.6667 88.8333 19.1667 96.5 11.5 c 128
 104.167 3.83333 113.667 -7.94729e-08 125 0 c 2
 148 0 l 2
 159.333 0 168.833 3.83333 176.5 11.5 c 128
 184.167 19.1667 188 28.6667 188 40 c 2
EndSplineSet
Fore
SplineSet
104.975 663 m 2
 165.75 663 l 1
 165.75 0 l 1
 44.2002 0 l 1
 44.2002 602.225 l 2
 44.2002 635.895 71.3066 663 104.975 663 c 2
EndSplineSet
EndChar

StartChar: J
Encoding: 306 74 50
Width: 243
VWidth: 0
Flags: HW
VStem: 65.3072 121.278<-84.1392 -33.15 -33.15 649.658>
LayerCount: 2
Back
SplineSet
188 21 m 2
 188 636 l 2
 188 647.333 184.167 656.833 176.5 664.5 c 128
 168.833 672.167 159.333 676 148 676 c 2
 125 676 l 2
 113.667 676 104.167 672.167 96.5 664.5 c 128
 88.8333 656.833 85 647.333 85 636 c 2
 85 30 l 2
 85 22 83.1667 13.6667 79.5 5 c 128
 75.8333 -3.66667 71.3333 -11 66 -17 c 2
 12 -84 l 2
 6.66667 -90.6667 4 -98.6667 4 -108 c 0
 4 -116.667 8.33333 -125.333 17 -134 c 2
 22 -139 l 2
 29.3333 -146.333 37.8333 -148.833 47.5 -146.5 c 128
 57.1667 -144.167 65.6667 -139.667 73 -133 c 2
 158 -52 l 2
 170 -40.6667 178 -28.6667 182 -16 c 128
 186 -3.33333 188 9 188 21 c 2
EndSplineSet
Fore
SplineSet
125.811 667.42 m 0
 159.479 667.42 186.585 640.314 186.585 606.645 c 2
 186.585 -33.1504 l 2
 186.585 -57.5156 181.002 -77.8535 162.217 -96.0869 c 2
 58.7568 -190.979 l 2
 45.4082 -206.849 29.2529 -213.326 14.5166 -213.326 c 0
 -8.49707 -213.326 -28.0498 -197.525 -28.0498 -177.024 c 0
 -28.0498 -169.932 -25.71 -162.276 -20.3633 -154.518 c 1
 49.7246 -81.8691 l 1
 61.9766 -63.4922 65.3076 -56.3496 65.3076 -37.9375 c 0
 65.3076 -36.4219 65.2852 -34.8301 65.2422 -33.1504 c 1
 65.0361 -33.1504 l 1
 65.0361 606.645 l 2
 65.0361 640.314 92.1416 667.42 125.811 667.42 c 0
EndSplineSet
EndChar

StartChar: L
Encoding: 307 76 51
Width: 506
VWidth: 0
Flags: HW
HStem: 0 121.55<166.175 468.863>
VStem: 44.625 121.55<121.55 645.238>
LayerCount: 2
Back
SplineSet
461 36 m 2
 461 56 l 2
 461 67.3333 457.167 76.1667 449.5 82.5 c 128
 441.833 88.8333 432.333 92 421 92 c 2
 178 92 l 1
 178 676 l 1
 115 676 l 2
 103.667 676 94.1667 672.167 86.5 664.5 c 128
 78.8333 656.833 75 647.333 75 636 c 2
 75 0 l 1
 421 0 l 2
 432.333 0 441.833 3.16667 449.5 9.5 c 128
 457.167 15.8333 461 24.6667 461 36 c 2
EndSplineSet
Fore
SplineSet
105.4 663 m 2
 166.175 663 l 1
 166.175 121.55 l 1
 425.85 121.55 l 2
 459.52 121.55 486.625 94.4434 486.625 60.7754 c 0
 486.625 27.1064 459.52 0 425.85 0 c 2
 44.625 0 l 1
 44.625 602.225 l 2
 44.625 635.895 71.7314 663 105.4 663 c 2
EndSplineSet
EndChar

StartChar: B
Encoding: 308 66 52
Width: 512
VWidth: 0
Flags: HW
HStem: 0 121.55<166.175 354.002> 288.681 100.279<166.175 331.922> 553.674 108.429<166.175 329.033>
VStem: 44.625 121.55<121.55 288.681 388.96 553.674> 331.925 121.55<388.96 400.01 400.01 551.962> 354.301 121.55<121.55 132.6 132.6 288.621>
LayerCount: 2
Back
SplineSet
505 115 m 2
 505 257 l 2
 505 275 498 292.167 484 308.5 c 128
 470 324.833 449.333 334.667 422 338 c 1
 422 340 l 1
 434.667 344 445 349.5 453 356.5 c 128
 461 363.5 467.333 371 472 379 c 128
 476.667 387 479.833 394.667 481.5 402 c 128
 483.167 409.333 484 415 484 419 c 2
 484 545 l 2
 484 583.667 472.667 615.667 450 641 c 128
 427.333 666.333 391.333 679 342 679 c 2
 331 679 l 2
 314.333 679 298.5 676.5 283.5 671.5 c 128
 268.5 666.5 254.833 660.833 242.5 654.5 c 128
 224 645 224 645 210 637.5 c 128
 200.667 632.5 193 630 187 630 c 0
 180.333 630 175.333 632.667 172 638 c 2
 145 676 l 1
 112 676 l 2
 100.667 676 91.6667 672.333 85 665 c 128
 78.3333 657.667 75 648.333 75 637 c 2
 75 0 l 1
 378 0 l 2
 398 0 415.833 3.33333 431.5 10 c 128
 447.167 16.6667 460.5 25.3333 471.5 36 c 128
 482.5 46.6667 490.833 58.8333 496.5 72.5 c 128
 502.167 86.1667 505 100.333 505 115 c 2
381 424 m 2
 381 414.667 377.5 405.667 370.5 397 c 128
 363.5 388.333 353.333 384 340 384 c 2
 178 384 l 1
 178 539 l 2
 178 551.667 182.333 562.333 191 571 c 128
 199.667 579.667 210.333 584 223 584 c 2
 341 584 l 2
 353.667 584 363.5 579.667 370.5 571 c 128
 377.5 562.333 381 551.667 381 539 c 2
 381 424 l 2
402 132 m 2
 402 120.667 398.167 111.167 390.5 103.5 c 128
 382.833 95.8333 373.333 92 362 92 c 2
 178 92 l 1
 178 292 l 1
 362 292 l 2
 373.333 292 382.833 288.167 390.5 280.5 c 128
 398.167 272.833 402 263.333 402 252 c 2
 402 132 l 2
EndSplineSet
Fore
SplineSet
44.625 662.103 m 1xf4
 320.875 662.103 l 2
 409.279 662.103 453.475 607.75 453.475 535.339 c 2
 453.475 384.54 l 2xf8
 453.475 363.877 431.375 331.5 398.225 331.5 c 1
 431.375 331.5 475.852 296.519 475.852 257.085 c 2
 475.852 121.55 l 2
 475.852 41.4219 404.026 0 348.776 0 c 2
 44.625 0 l 1
 44.625 662.103 l 1xf4
166.175 553.674 m 1
 166.175 388.96 l 1
 320.599 388.96 l 2
 326.683 388.96 331.925 393.926 331.925 400.01 c 2
 331.925 542.348 l 2
 331.925 547.878 326.132 553.674 320.875 553.674 c 2
 166.175 553.674 l 1
166.175 288.682 m 1
 166.175 121.55 l 1
 342.975 121.55 l 2
 349.06 121.55 354.301 126.516 354.301 132.6 c 2
 354.301 277.355 l 2xf4
 354.301 282.887 348.508 288.682 343.251 288.682 c 2
 166.175 288.682 l 1
EndSplineSet
EndChar

StartChar: D
Encoding: 309 68 53
Width: 532
VWidth: 0
Flags: HW
HStem: 0 121.55<166.175 353.726> 540.405 122.595<166.175 350.747>
VStem: 44.625 121.55<121.55 540.405> 354.025 121.55<121.55 132.6 132.6 538.472>
LayerCount: 2
Back
SplineSet
496 119 m 2
 496 545 l 2
 496 583.667 484.167 615.667 460.5 641 c 128
 436.833 666.333 400.333 679 351 679 c 2
 331 679 l 2
 314.333 679 298.5 676.5 283.5 671.5 c 128
 268.5 666.5 254.833 660.833 242.5 654.5 c 128
 224 645 224 645 210 637.5 c 128
 200.667 632.5 193.333 630 188 630 c 0
 180.667 630 175.333 632.667 172 638 c 2
 145 676 l 1
 112 676 l 2
 100.667 676 91.6667 672.333 85 665 c 128
 78.3333 657.667 75 648.333 75 637 c 2
 75 0 l 1
 369 0 l 2
 387 0 403.667 3.16667 419 9.5 c 128
 434.333 15.8333 447.667 24.3333 459 35 c 128
 470.333 45.6667 479.333 58.1667 486 72.5 c 128
 492.667 86.8333 496 102.333 496 119 c 2
393 141 m 2
 393 126.333 388.833 114.5 380.5 105.5 c 128
 372.167 96.5 360 92 344 92 c 2
 178 92 l 1
 178 539 l 2
 178 551.667 182.333 562.333 191 571 c 128
 199.667 579.667 210.333 584 223 584 c 2
 353 584 l 2
 365.667 584 375.5 579.667 382.5 571 c 128
 389.5 562.333 393 551.667 393 539 c 2
 393 141 l 2
EndSplineSet
Fore
SplineSet
348.5 0 m 2
 44.625 0 l 1
 44.625 663 l 1
 340.292 663 l 2
 415.366 663 475.575 602.455 475.575 535.331 c 2
 475.575 121.55 l 2
 475.575 41.4219 403.75 0 348.5 0 c 2
354.025 132.6 m 2
 354.025 529.079 l 2
 354.025 534.611 348.231 540.405 342.975 540.405 c 2
 166.175 540.405 l 1
 166.175 121.55 l 1
 342.699 121.55 l 2
 348.783 121.55 354.025 126.516 354.025 132.6 c 2
EndSplineSet
EndChar

StartChar: W
Encoding: 310 87 54
Width: 782
VWidth: 0
Flags: HW
HStem: 0 17.85G<147.635 313.568 413.645 581.417>
LayerCount: 2
Back
SplineSet
765 633 m 0
 765 642.333 762.167 651 756.5 659 c 128
 750.833 667 743 672 733 674 c 2
 711 678 l 2
 699 680 688.833 678 680.5 672 c 128
 672.167 666 666.667 657.333 664 646 c 2
 663.333 644.667 660.833 634.333 656.5 615 c 128
 650 586 650 586 639 539.5 c 128
 628 493 628 493 617 445.5 c 128
 606 398 606 398 597.5 358.5 c 128
 589 319 589 319 586 305 c 2
 550 112 l 1
 548 112 l 1
 544 132 540.333 149 537 163 c 128
 532 184 532 184 527 206.5 c 128
 523.667 221.5 520.333 234 517 244 c 2
 458 448 l 2
 452 468 438.333 478 417 478 c 2
 383 478 l 2
 361.667 478 348 468 342 448 c 2
 283 244 l 2
 279 229 279 229 273.5 206.5 c 128
 268 184 268 184 263 163 c 128
 259.667 149 257 137 255 127 c 128
 253 117 251.333 112 250 112 c 1
 214 305 l 2
 211 319 211 319 202.5 358.5 c 128
 194 398 194 398 183 445.5 c 128
 172 493 172 493 161 539.5 c 128
 150 586 150 586 143.5 615 c 128
 139.167 634.333 136.667 644.667 136 646 c 2
 133.333 657.333 127.833 666 119.5 672 c 128
 111.167 678 101 680 89 678 c 2
 67 674 l 2
 57 672 49.1667 667 43.5 659 c 128
 37.8333 651 35 642.333 35 633 c 0
 35 631.667 35.1667 630.667 35.5 630 c 128
 35.8333 629.333 36 628.333 36 627 c 1
 177 51 l 2
 181 34.3333 188.333 21.6667 199 13 c 128
 209.667 4.33333 221.333 1.58946e-07 234 0 c 2
 262 0 l 2
 271.333 0 279.333 1.83333 286 5.5 c 128
 292.667 9.16667 298.5 13.5 303.5 18.5 c 128
 308.5 23.5 312.5 29 315.5 35 c 128
 318.5 41 320.667 46.3333 322 51 c 2
 373 233 l 2
 375.667 241.667 378.5 252.167 381.5 264.5 c 128
 386 283 386 283 390 299.5 c 128
 392.667 310.5 394.833 320 396.5 328 c 128
 398.167 336 399.667 340 401 340 c 1
 404.333 324 407.333 310.5 410 299.5 c 128
 414 283 414 283 418.5 264.5 c 128
 421.5 252.167 424.333 241.667 427 233 c 2
 478 51 l 2
 479.333 46.3333 481.5 41 484.5 35 c 128
 487.5 29 491.5 23.5 496.5 18.5 c 128
 501.5 13.5 507.5 9.16667 514.5 5.5 c 128
 521.5 1.83333 529.333 3.97364e-08 538 0 c 2
 566 0 l 2
 578.667 0 590.333 4.33333 601 13 c 128
 611.667 21.6667 619 34.3333 623 51 c 2
 764 627 l 1
 764 628.333 764.167 629.333 764.5 630 c 128
 764.833 630.667 765 631.667 765 633 c 0
EndSplineSet
Fore
SplineSet
71.5967 667.641 m 0
 72.1572 667.657 72.7158 667.664 73.2744 667.664 c 0
 100.911 667.664 125.797 648.771 132.337 620.645 c 2
 234.076 181.945 l 1
 292.892 435.977 l 2
 297.864 450.895 307.138 463.548 322.608 464.1 c 2
 406.462 464.1 l 2
 406.762 464.114 407.062 464.12 407.363 464.12 c 0
 418.771 464.12 431.978 454.001 435.746 437.853 c 2
 494.995 181.945 l 1
 597.654 620.687 l 2
 604.194 648.811 629.062 667.701 656.695 667.701 c 0
 661.283 667.701 665.949 667.182 670.618 666.096 c 2
 727.881 650.958 l 1
 577.489 0 l 1
 418.023 0 l 1
 386.715 121.55 l 2
 377.434 167.274 371.206 205.583 364.534 301.354 c 1
 356.8 204.115 352.847 167.068 342.663 121.55 c 2
 308.837 0 l 1
 151.58 0 l 1
 13.9297 593.123 l 2
 12.8447 597.787 12.3252 602.446 12.3252 607.028 c 0
 12.3252 634.662 31.2422 659.512 59.373 666.053 c 0
 63.4717 667.006 67.5537 667.529 71.5967 667.641 c 0
EndSplineSet
EndChar

StartChar: Y
Encoding: 311 89 55
Width: 603
VWidth: 0
Flags: HW
HStem: 0 17.85G<192.943 314.493>
VStem: 192.943 121.55<0 287.162>
LayerCount: 2
Back
SplineSet
495 629 m 0
 495 635 493.667 640.833 491 646.5 c 128
 488.333 652.167 484.333 656.667 479 660 c 2
 460 673 l 2
 452 678.333 442.667 680.167 432 678.5 c 128
 421.333 676.833 413 671.667 407 663 c 2
 252 440 l 1
 98 663 l 2
 92 671.667 83.6667 676.833 73 678.5 c 128
 62.3333 680.167 53 678.333 45 673 c 2
 26 660 l 2
 20.6667 656.667 16.6667 652.167 14 646.5 c 128
 11.3333 640.833 10 635 10 629 c 0
 10 621.667 12.3333 614.333 17 607 c 2
 201 339 l 1
 201 40 l 2
 201 28.6667 204.833 19.1667 212.5 11.5 c 128
 220.167 3.83333 229.667 -7.94729e-08 241 0 c 2
 264 0 l 2
 275.333 0 284.833 3.83333 292.5 11.5 c 128
 300.167 19.1667 304 28.6667 304 40 c 2
 304 339 l 1
 488 607 l 2
 492.667 614.333 495 621.667 495 629 c 0
EndSplineSet
Fore
SplineSet
40.4541 673.289 m 0
 41.3125 673.296 l 0
 60.5088 673.296 79.3428 664.174 91.1807 647.151 c 2
 253.961 413.027 l 1
 416.774 647.151 l 2
 428.609 664.171 447.45 673.279 466.636 673.279 c 0
 478.61 673.279 490.719 669.73 501.342 662.345 c 2
 546.988 628.585 l 1
 314.493 287.162 l 1
 314.493 0 l 1
 192.943 0 l 1
 192.943 287.887 l 1
 -8.61523 577.742 l 2
 -16.002 588.365 -19.5498 600.479 -19.5498 612.46 c 0
 -19.5498 631.655 -10.4424 650.51 6.57812 662.345 c 0
 16.9443 669.553 28.7578 673.123 40.4541 673.289 c 0
EndSplineSet
EndChar

StartChar: ordfeminine
Encoding: 312 170 56
Width: 544
VWidth: 0
Flags: HW
LayerCount: 2
Back
SplineSet
382 336 m 2
 382 586 l 2
 382 610 374.333 631 359 649 c 128
 343.667 667 318.333 676 283 676 c 2
 129 676 l 2
 121 676 114 674 108 670 c 128
 102 666 99 660 99 652 c 2
 99 604 l 1
 272 604 l 2
 281.333 604 288.667 600.833 294 594.5 c 128
 299.333 588.167 302 581.333 302 574 c 2
 302 516 l 2
 302 510 299.667 507 295 507 c 256
 290.333 507 284.333 509 277 513 c 128
 266 519 266 519 252 526 c 128
 242.667 530.667 232.167 535 220.5 539 c 128
 208.833 543 196.333 545 183 545 c 2
 171 545 l 2
 133 545 105 535.167 87 515.5 c 128
 69 495.833 60 471 60 441 c 2
 60 409 l 2
 60 379 69 354 87 334 c 128
 105 314 133 304 171 304 c 2
 183 304 l 2
 196.333 304 208.833 306 220.5 310 c 128
 232.167 314 242.667 318.167 252 322.5 c 128
 261.333 326.833 269.667 331 277 335 c 128
 284.333 339 290.333 341 295 341 c 0
 300.333 341 305 338.667 309 334 c 2
 328 306 l 1
 353 306 l 2
 364.333 306 372 309.667 376 317 c 128
 380 324.333 382 330.667 382 336 c 2
302 413 m 2
 302 403.667 298.667 395.5 292 388.5 c 128
 285.333 381.5 277 378 267 378 c 2
 175 378 l 2
 165 378 156.667 381.5 150 388.5 c 128
 143.333 395.5 140 403.667 140 413 c 2
 140 436 l 2
 140 445.333 143.333 453.5 150 460.5 c 128
 156.667 467.5 165 471 175 471 c 2
 267 471 l 2
 277 471 285.333 467.5 292 460.5 c 128
 298.667 453.5 302 445.333 302 436 c 2
 302 413 l 2
EndSplineSet
EndChar

StartChar: ordmasculine
Encoding: 313 186 57
Width: 607
VWidth: 0
Flags: HW
LayerCount: 2
Back
SplineSet
382 404 m 2
 382 579 l 2
 382 592.333 379.5 605 374.5 617 c 128
 369.5 629 362.5 639.333 353.5 648 c 128
 344.5 656.667 334.167 663.5 322.5 668.5 c 128
 310.833 673.5 298.333 676 285 676 c 2
 157 676 l 2
 143.667 676 131.167 673.5 119.5 668.5 c 128
 107.833 663.5 97.5 656.667 88.5 648 c 128
 79.5 639.333 72.5 629 67.5 617 c 128
 62.5 605 60 592.333 60 579 c 2
 60 404 l 2
 60 390.667 62.5 378 67.5 366 c 128
 72.5 354 79.5 343.5 88.5 334.5 c 128
 97.5 325.5 107.833 318.5 119.5 313.5 c 128
 131.167 308.5 143.667 306 157 306 c 2
 285 306 l 2
 298.333 306 310.833 308.5 322.5 313.5 c 128
 334.167 318.5 344.5 325.5 353.5 334.5 c 128
 362.5 343.5 369.5 354 374.5 366 c 128
 379.5 378 382 390.667 382 404 c 2
302 413 m 2
 302 403.667 298.5 395.5 291.5 388.5 c 128
 284.5 381.5 276.333 378 267 378 c 2
 175 378 l 2
 165.667 378 157.5 381.5 150.5 388.5 c 128
 143.5 395.5 140 403.667 140 413 c 2
 140 569 l 2
 140 579 143.5 587.333 150.5 594 c 128
 157.5 600.667 165.667 604 175 604 c 2
 267 604 l 2
 276.333 604 284.5 600.667 291.5 594 c 128
 298.5 587.333 302 579 302 569 c 2
 302 413 l 2
EndSplineSet
EndChar

StartChar: X
Encoding: 314 88 58
Width: 603
VWidth: 0
Flags: HW
LayerCount: 2
Back
SplineSet
501 49 m 0
 501 57 499 64.3333 495 71 c 2
 319 346 l 1
 485 605 l 2
 491 614.333 492.833 624.333 490.5 635 c 128
 488.167 645.667 482.333 654 473 660 c 2
 454 673 l 2
 444.667 679 434.5 680.833 423.5 678.5 c 128
 412.5 676.167 404 670.333 398 661 c 2
 258 442 l 1
 118 661 l 2
 112 670.333 103.5 676.167 92.5 678.5 c 128
 81.5 680.833 71.3333 679 62 673 c 2
 43 660 l 2
 33.6667 654 27.8333 645.667 25.5 635 c 128
 23.1667 624.333 25 614.333 31 605 c 2
 197 346 l 1
 21 71 l 2
 18.3333 67.6667 16.6667 64 16 60 c 128
 15.3333 56 15 52 15 48 c 0
 15 42 16.6667 36 20 30 c 128
 23.3333 24 27.6667 19.3333 33 16 c 2
 53 3 l 2
 62.3333 -3 72.3333 -4.66667 83 -2 c 128
 93.6667 0.666667 102 6.66667 108 16 c 2
 258 250 l 1
 408 16 l 2
 414 6.66667 422.333 0.666667 433 -2 c 128
 443.667 -4.66667 453.667 -3 463 3 c 2
 483 16 l 2
 495 23.3333 501 34.3333 501 49 c 0
EndSplineSet
Fore
SplineSet
82.4854 669.596 m 0
 82.9336 669.597 l 0
 102.271 669.597 121.235 660.37 133.039 643.145 c 2
 284.631 421.938 l 1
 436.188 643.145 l 2
 447.992 660.37 466.956 669.597 486.294 669.597 c 0
 486.743 669.596 l 0
 498.437 669.51 510.237 666.063 520.652 658.924 c 0
 537.879 647.121 547.129 628.138 547.129 608.795 c 0
 547.129 596.953 543.662 584.975 536.434 574.428 c 2
 358.287 314.441 l 1
 550.706 32.6074 l 1
 502.094 -2.13086 l 2
 491.646 -9.29102 479.438 -12.7695 467.286 -12.7695 c 0
 447.761 -12.7695 428.375 -3.79004 416.645 13.3291 c 2
 284.597 206.014 l 1
 152.584 13.3291 l 2
 140.668 -4.05859 121.624 -13.4326 102.362 -13.4326 c 0
 90.8564 -13.4326 79.2734 -10.0869 69.0879 -3.10742 c 2
 67.1533 -1.7959 l 2
 50.4199 9.6709 41.4736 28.1953 41.4736 47.2178 c 0
 41.4736 59.1611 44.999 71.3008 52.3398 82.0117 c 2
 210.941 314.441 l 1
 32.7949 574.428 l 2
 25.5674 584.975 22.0996 596.953 22.0996 608.795 c 0
 22.0996 628.138 31.3496 647.121 48.5762 658.924 c 0
 58.9912 666.063 70.79 669.51 82.4854 669.596 c 0
EndSplineSet
EndChar

StartChar: E
Encoding: 315 69 59
Width: 523
VWidth: 0
Flags: HW
HStem: 0 121.55<166.175 467.763> 262.99 121.55<166.175 423.53> 541.45 121.55<166.175 448.973>
VStem: 44.625 121.55<121.55 262.99 384.54 541.45>
LayerCount: 2
Back
SplineSet
469 36 m 2
 469 56 l 2
 469 67.3333 465.333 76.1667 458 82.5 c 128
 450.667 88.8333 441.333 92 430 92 c 2
 178 92 l 1
 178 292 l 1
 389 292 l 2
 400.333 292 409.833 295.167 417.5 301.5 c 128
 425.167 307.833 429 316.667 429 328 c 2
 429 348 l 2
 429 359.333 425.167 368.167 417.5 374.5 c 128
 409.833 380.833 400.333 384 389 384 c 2
 178 384 l 1
 178 584 l 1
 416 584 l 2
 427.333 584 436.833 587.167 444.5 593.5 c 128
 452.167 599.833 456 608.667 456 620 c 2
 456 676 l 1
 75 676 l 1
 75 0 l 1
 430 0 l 2
 441.333 0 450.667 3.16667 458 9.5 c 128
 465.333 15.8333 469 24.6667 469 36 c 2
EndSplineSet
Fore
SplineSet
44.625 663 m 1
 466.735 663 l 1
 466.735 602.225 l 2
 466.735 568.556 439.629 541.45 405.96 541.45 c 2
 166.175 541.45 l 1
 166.175 384.54 l 1
 381.65 384.54 l 2
 415.168 381.349 442.425 357.435 442.425 323.765 c 0
 442.425 290.096 415.083 266.971 381.65 262.99 c 2
 166.175 262.99 l 1
 166.175 121.55 l 1
 425.85 121.55 l 2
 459.368 118.357 486.625 94.4434 486.625 60.7754 c 0
 486.625 27.1064 459.476 1.74023 425.85 0 c 2
 44.625 0 l 1
 44.625 663 l 1
EndSplineSet
EndChar

StartChar: F
Encoding: 316 70 60
Width: 522
VWidth: 0
Flags: HW
HStem: 0 17.85G<44.625 166.175> 262.99 121.55<166.175 374.657> 541.45 121.55<166.175 448.973>
VStem: 44.625 121.55<0 262.99 384.54 541.45>
LayerCount: 2
Back
SplineSet
446 620 m 2
 446 676 l 1
 75 676 l 1
 75 40 l 2
 75 28.6667 78.8333 19.1667 86.5 11.5 c 128
 94.1667 3.83333 103.667 -7.94729e-08 115 0 c 2
 138 0 l 2
 149.333 0 158.833 3.83333 166.5 11.5 c 128
 174.167 19.1667 178 28.6667 178 40 c 2
 178 292 l 1
 379 292 l 2
 390.333 292 399.833 295.333 407.5 302 c 128
 415.167 308.667 419 317.667 419 329 c 2
 419 348 l 2
 419 359.333 415.167 368.167 407.5 374.5 c 128
 399.833 380.833 390.333 384 379 384 c 2
 178 384 l 1
 178 584 l 1
 406 584 l 2
 417.333 584 426.833 587.167 434.5 593.5 c 128
 442.167 599.833 446 608.667 446 620 c 2
EndSplineSet
Fore
SplineSet
44.625 663 m 1
 466.735 663 l 1
 466.735 602.225 l 2
 466.735 568.556 439.629 541.45 405.96 541.45 c 2
 166.175 541.45 l 1
 166.175 384.54 l 1
 331.644 384.54 l 2
 365.312 384.54 392.419 357.435 392.419 323.765 c 0
 392.419 290.096 365.312 262.99 331.644 262.99 c 2
 166.175 262.99 l 1
 166.175 0 l 1
 44.625 0 l 1
 44.625 663 l 1
EndSplineSet
EndChar

StartChar: Z
Encoding: 317 90 61
Width: 536
VWidth: 0
Flags: HW
HStem: 0 121.55<176.394 457.39> 541.45 121.55<73.729 320.044>
LayerCount: 2
Back
SplineSet
488 40 m 2
 488 92 l 1
 162 92 l 1
 459 577 l 2
 463.667 584.333 468.167 592.5 472.5 601.5 c 128
 476.833 610.5 479 619.333 479 628 c 2
 479 637 l 2
 479 648.333 475.667 657.667 469 665 c 128
 462.333 672.333 452.667 676 440 676 c 2
 88 676 l 2
 76.6667 676 67.1667 672.167 59.5 664.5 c 128
 51.8333 656.833 48 647.333 48 636 c 2
 48 584 l 1
 350 584 l 1
 47 95 l 2
 44.3333 91 41.6667 85.8333 39 79.5 c 128
 36.3333 73.1667 35 66.3333 35 59 c 2
 35 44 l 2
 35 32 39.8333 21.6667 49.5 13 c 128
 59.1667 4.33333 69.3333 1.58946e-07 80 0 c 2
 444 0 l 2
 457.333 0 468 3.83333 476 11.5 c 128
 484 19.1667 488 28.6667 488 40 c 2
EndSplineSet
Fore
SplineSet
143.731 663 m 2
 435.231 663 l 2
 462.856 663 479.432 640.9 479.432 618.8 c 2
 479.432 574.6 l 2
 479.432 556.492 472.176 543.451 463.693 530.4 c 2
 176.394 121.55 l 1
 490.214 121.55 l 1
 490.214 88.4004 490.214 0 401.813 0 c 2
 79.2871 0 l 2
 65.4746 0 32.7432 22.0996 32.7432 44.2002 c 2
 32.7432 99.4502 l 2
 32.7305 99.9004 32.7246 100.353 32.7246 100.807 c 0
 32.7246 120.958 44.6104 144.556 59.0293 165.576 c 2
 320.044 541.45 l 1
 33.0117 541.45 l 1
 33.0117 594.604 43.7061 663 143.731 663 c 2
EndSplineSet
EndChar

StartChar: K
Encoding: 318 75 62
Width: 555
VWidth: 0
Flags: HW
HStem: 0 17.85G<44.625 166.175>
VStem: 44.625 121.55<0 224.557 434.023 663>
LayerCount: 2
Back
SplineSet
520 57 m 0
 518.667 67 515 74.6667 509 80 c 2
 235 345 l 1
 514 630 l 1
 480 665 l 2
 471.333 674.333 461.167 679.167 449.5 679.5 c 128
 437.833 679.833 427.667 675.333 419 666 c 2
 178 421 l 1
 178 676 l 1
 115 676 l 2
 103.667 676 94.1667 672.167 86.5 664.5 c 128
 78.8333 656.833 75 647.333 75 636 c 2
 75 40 l 2
 75 28.6667 78.8333 19.1667 86.5 11.5 c 128
 94.1667 3.83333 103.667 -7.94729e-08 115 0 c 2
 138 0 l 2
 149.333 0 158.833 3.83333 166.5 11.5 c 128
 174.167 19.1667 178 28.6667 178 40 c 2
 178 263 l 1
 441 9 l 2
 449 1.66667 458.333 -2 469 -2 c 0
 480.333 -2 489.667 2 497 10 c 2
 510 24 l 2
 514.667 28.6667 517.667 33.8333 519 39.5 c 128
 520.333 45.1667 520.667 51 520 57 c 0
EndSplineSet
Fore
SplineSet
372.43 646.252 m 2
 385.387 658.316 400.134 664.188 414.792 664.188 c 0
 430.14 664.188 445.388 657.752 458.38 645.251 c 2
 500.396 601.654 l 1
 232.923 329.29 l 1
 503.786 94.8574 l 2
 516.012 82.9121 522.146 67.1523 522.146 51.3789 c 0
 522.146 36.0781 516.375 20.7656 504.789 8.90918 c 0
 493.069 -3.08398 477.513 -8.76562 461.957 -8.76562 c 0
 446.275 -8.76562 430.594 -2.99316 418.84 7.90723 c 2
 166.175 224.558 l 1
 166.175 0 l 1
 44.625 0 l 1
 44.625 663 l 1
 166.175 663 l 1
 166.175 434.022 l 1
 372.43 646.252 l 2
EndSplineSet
EndChar

StartChar: one
Encoding: 319 49 63
Width: 191
VWidth: 0
Flags: HW
HStem: 0 17.85G<34 155.55>
VStem: 34 121.55<0 415.292>
LayerCount: 2
Back
SplineSet
311 40 m 2
 311 636 l 2
 311 647.333 307.167 656.833 299.5 664.5 c 128
 291.833 672.167 282.333 676 271 676 c 2
 247 676 l 2
 241 676 235 674.5 229 671.5 c 128
 223 668.5 218.333 665 215 661 c 2
 104 541 l 2
 94 530.333 89 519.333 89 508 c 0
 89 498.667 92.1667 490.833 98.5 484.5 c 128
 104.833 478.167 112.667 475 122 475 c 0
 127.333 475 132.667 475.667 138 477 c 128
 143.333 478.333 149.333 481.333 156 486 c 2
 208 521 l 1
 208 40 l 2
 208 28.6667 211.667 19.1667 219 11.5 c 128
 226.333 3.83333 235.667 -7.94729e-08 247 0 c 2
 271 0 l 2
 282.333 0 291.833 3.83333 299.5 11.5 c 128
 307.167 19.1667 311 28.6667 311 40 c 2
EndSplineSet
Fore
SplineSet
155.55 475.15 m 1
 155.55 0 l 1
 34 0 l 1
 34 342.55 l 2
 34 430.95 94.7754 475.15 155.55 475.15 c 1
EndSplineSet
EndChar

StartChar: two
Encoding: 320 50 64
Width: 481
VWidth: 0
Flags: HW
HStem: -5.525 121.55<211.487 417.689> 350.32 112.709<81.7501 315.3>
VStem: 315.415 121.767<267.556 286.113 286.113 341.789>
LayerCount: 2
Back
SplineSet
458 36 m 2
 458 56 l 2
 458 67.3333 454.167 76.1667 446.5 82.5 c 128
 438.833 88.8333 429.333 92 418 92 c 2
 164 92 l 1
 164 196 l 2
 164 211.333 168.5 225 177.5 237 c 128
 186.5 249 199 259.667 215 269 c 2
 356 347 l 2
 367.333 353 378.333 359.5 389 366.5 c 128
 399.667 373.5 409 381.333 417 390 c 128
 425 398.667 431.5 408.5 436.5 419.5 c 128
 441.5 430.5 444 443.333 444 458 c 2
 444 556 l 2
 444 571.333 440.667 586.333 434 601 c 128
 427.333 615.667 418.333 628.5 407 639.5 c 128
 395.667 650.5 382.333 659.333 367 666 c 128
 351.667 672.667 335.333 676 318 676 c 2
 109 676 l 2
 99.6667 676 90.6667 672.5 82 665.5 c 128
 73.3333 658.5 69 648.667 69 636 c 2
 69 584 l 1
 289 584 l 2
 323.667 584 341 566 341 530 c 2
 341 481 l 2
 341 471 339.333 462.667 336 456 c 128
 332.667 449.333 328.333 443.5 323 438.5 c 128
 317.667 433.5 311.833 429.5 305.5 426.5 c 128
 299.167 423.5 293.333 420.333 288 417 c 2
 139 333 l 2
 115.667 319.667 96.8333 302.167 82.5 280.5 c 128
 68.1667 258.833 61 234.333 61 207 c 2
 61 0 l 1
 418 0 l 2
 429.333 0 438.833 3.16667 446.5 9.5 c 128
 454.167 15.8333 458 24.6667 458 36 c 2
EndSplineSet
Fore
SplineSet
136.691 463.029 m 2
 315.702 463.029 l 2
 391.01 463.029 433.864 418.905 437.078 367.309 c 1
 437.183 367.344 l 1
 437.183 366.651 l 1
 437.183 279.375 l 2
 437.183 246.226 413.991 218.655 393.397 205.997 c 2
 211.486 116.025 l 1
 450.513 116.025 l 1
 450.513 82.875 450.513 -5.52539 362.112 -5.52539 c 2
 77.1602 -5.52539 l 2
 48.2285 -5.52539 30.6113 12.2754 30.6113 38.6748 c 2
 30.6113 93.9248 l 2
 30.6045 94.2256 30.5996 94.5264 30.5996 94.8271 c 0
 30.5996 114.895 48.6895 132.511 67.8369 146.757 c 1
 301.299 269.474 l 2
 308.712 273.181 315.415 278.866 315.415 286.113 c 0
 315.415 286.504 315.396 286.899 315.356 287.3 c 2
 315.356 341.789 l 1
 314.187 346.514 309.96 350.32 304.652 350.32 c 2
 48.291 350.32 l 1
 48.291 427.421 83.0977 462.09 136.691 463.029 c 2
EndSplineSet
EndChar

StartChar: three
Encoding: 321 51 65
Width: 425
VWidth: 0
Flags: HW
HStem: -205.012 121.55<39.4894 256.985> 98.9324 95.0292<81.0457 245.829> 350.32 112.709<59.3059 245.776>
VStem: 245.833 121.528<193.962 205.987 205.987 341.789> 260.108 121.55<-82.1933 97.835>
LayerCount: 2
Back
SplineSet
452 124 m 2
 452 256 l 2
 452 278 444.667 297.333 430 314 c 128
 415.333 330.667 398 340 378 342 c 1
 378 343 l 1
 383.333 344.333 389.5 346.833 396.5 350.5 c 128
 403.5 354.167 410.167 359 416.5 365 c 128
 422.833 371 428.167 378 432.5 386 c 128
 436.833 394 439 403 439 413 c 2
 439 552 l 2
 439 568 435.833 583.5 429.5 598.5 c 128
 423.167 613.5 414.5 626.667 403.5 638 c 128
 392.5 649.333 379.333 658.5 364 665.5 c 128
 348.667 672.5 332 676 314 676 c 2
 110 676 l 2
 92 676 79.8333 671.5 73.5 662.5 c 128
 67.1667 653.5 64 642.333 64 629 c 2
 64 584 l 1
 291 584 l 2
 305 584 316 579.333 324 570 c 128
 332 560.667 336 550.333 336 539 c 2
 336 429 l 2
 336 416.333 331.667 405.667 323 397 c 128
 314.333 388.333 303.333 384 290 384 c 2
 222 384 l 2
 212.667 384 204.5 380.5 197.5 373.5 c 128
 190.5 366.5 187 358.333 187 349 c 2
 187 292 l 1
 304 292 l 2
 318 292 329 287.333 337 278 c 128
 345 268.667 349 258.333 349 247 c 2
 349 137 l 2
 349 126.333 345.333 116.167 338 106.5 c 128
 330.667 96.8333 319.333 92 304 92 c 2
 51 92 l 1
 51 36 l 2
 51 24.6667 55 15.8333 63 9.5 c 128
 71 3.16667 80.6667 7.94729e-08 92 0 c 2
 327 0 l 2
 345 0 361.667 3.33333 377 10 c 128
 392.333 16.6667 405.5 25.8333 416.5 37.5 c 128
 427.5 49.1667 436.167 62.5 442.5 77.5 c 128
 448.833 92.5 452 108 452 124 c 2
EndSplineSet
Fore
SplineSet
114.248 463.029 m 2xf0
 245.88 463.029 l 2
 321.188 463.029 364.043 418.905 367.26 367.309 c 1
 367.36 367.344 l 1
 367.36 366.651 l 1
 367.36 178.631 l 2xf0
 367.36 157.062 354.032 145.86 339.358 138.159 c 1
 365.083 129.285 381.657 93.3877 381.657 68.5098 c 2
 381.657 -72.4121 l 1
 381.657 -74.6221 l 2
 381.657 -156.422 328.649 -205.012 253.478 -205.012 c 2
 83.3076 -205.012 l 2
 8.09277 -205.012 5.9502 -96.9199 5.9502 -84.6006 c 0
 5.9502 -83.8574 5.95703 -83.4619 5.95703 -83.4619 c 1
 249.058 -83.4619 l 2
 254.445 -83.3242 259.97 -77.9365 260.107 -72.4121 c 2
 260.107 87.8828 l 2xe8
 259.97 93.4072 254.445 98.7949 249.058 98.9326 c 2
 115.264 98.9326 l 2
 89.4795 98.9326 69.1992 125.402 69.1992 148.07 c 0
 69.1992 170.738 93.5127 193.962 116.717 193.962 c 2
 234.11 193.962 l 2
 240.286 193.962 245.833 199.05 245.833 205.987 c 2
 245.833 341.789 l 1
 244.66 346.514 240.436 350.32 235.127 350.32 c 2
 25.8477 350.32 l 1
 25.8477 427.421 60.6533 462.09 114.248 463.029 c 2xf0
EndSplineSet
EndChar

StartChar: four
Encoding: 322 52 66
Width: 480
VWidth: 0
Flags: HW
HStem: 0 98.2881<142.865 258.115 379.665 446.026>
VStem: 258.115 121.55<-204.551 0 98.2881 258.505>
LayerCount: 2
Back
SplineSet
489 225 m 2
 489 245 l 2
 489 256.333 485.167 265.167 477.5 271.5 c 128
 469.833 277.833 460.333 281 449 281 c 2
 387 281 l 1
 387 634 l 2
 387 644 382.667 653.5 374 662.5 c 128
 365.333 671.5 354.333 676 341 676 c 2
 293 676 l 2
 279 676 268.333 672 261 664 c 128
 253.667 656 248.333 649.333 245 644 c 2
 43 285 l 2
 39.6667 279 36.6667 273 34 267 c 128
 31.3333 261 30 254 30 246 c 2
 30 235 l 2
 30 221 35.3333 209.833 46 201.5 c 128
 56.6667 193.167 66.6667 189 76 189 c 2
 284 189 l 1
 284 40 l 2
 284 28.6667 287.833 19.1667 295.5 11.5 c 128
 303.167 3.83333 312.667 -7.94729e-08 324 0 c 2
 347 0 l 2
 358.333 0 367.833 3.83333 375.5 11.5 c 128
 383.167 19.1667 387 28.6667 387 40 c 2
 387 189 l 1
 449 189 l 2
 460.333 189 469.833 192.167 477.5 198.5 c 128
 485.167 204.833 489 213.667 489 225 c 2
284 281 m 1
 139 281 l 1
 284 539 l 1
 284 281 l 1
EndSplineSet
Fore
SplineSet
318.891 464.1 m 0
 352.559 464.1 379.665 436.994 379.665 403.325 c 2
 379.665 96.9287 l 1
 409.343 96.9287 l 2
 436.189 96.9287 457.824 75.3291 457.824 48.4814 c 2
 457.824 0 l 1
 379.665 0 l 1
 379.665 -204.551 l 1
 258.115 -204.551 l 1
 258.115 0 l 1
 64.2871 0 l 2
 31.7705 0 8.5 29.1455 8.5 60.0605 c 0
 8.5 71.4277 11.6465 83.0342 18.6357 93.5186 c 2
 261.982 431.33 l 2
 265.229 435.883 268.956 439.878 273.033 443.277 c 0
 284.159 456.052 300.544 464.1 318.891 464.1 c 0
258.115 258.505 m 1
 142.864 98.2881 l 1
 258.115 98.2881 l 1
 258.115 258.505 l 1
EndSplineSet
EndChar

StartChar: five
Encoding: 323 53 67
Width: 489
VWidth: 0
Flags: HW
HStem: -209.357 112.71<58.2941 317.218> 93.925 97.5078<154.36 320.106> 351.39 112.71<154.36 386.101>
VStem: 32.8097 121.55<191.433 351.39> 320.11 121.55<-94.9612 -85.6341 -85.6341 91.5773>
LayerCount: 2
Back
SplineSet
462 125 m 2
 462 259 l 2
 462 275 459 290.5 453 305.5 c 128
 447 320.5 438.5 333.833 427.5 345.5 c 128
 416.5 357.167 403.333 366.5 388 373.5 c 128
 372.667 380.5 355.667 384 337 384 c 2
 175 384 l 1
 175 584 l 1
 435 584 l 1
 435 638 l 2
 435 647.333 432.167 656 426.5 664 c 128
 420.833 672 411.333 676 398 676 c 2
 111 676 l 2
 99.6667 676 90.3333 671.833 83 663.5 c 128
 75.6667 655.167 72 646.333 72 637 c 2
 72 292 l 1
 314 292 l 2
 329.333 292 340.667 287.167 348 277.5 c 128
 355.333 267.833 359 258 359 248 c 2
 359 137 l 2
 359 124.333 354.667 113.667 346 105 c 128
 337.333 96.3333 326.667 92 314 92 c 2
 57 92 l 1
 57 36 l 2
 57 24.6667 60.8333 15.8333 68.5 9.5 c 128
 76.1667 3.16667 85.6667 7.94729e-08 97 0 c 2
 337 0 l 2
 354.333 0 370.5 3.33333 385.5 10 c 128
 400.5 16.6667 413.667 25.6667 425 37 c 128
 436.333 48.3333 445.333 61.5 452 76.5 c 128
 458.667 91.5 462 107.667 462 125 c 2
EndSplineSet
Fore
SplineSet
32.8096 364.65 m 0
 34.1396 417.839 77.2354 464.1 154.36 464.1 c 2
 331.16 464.1 l 2
 384.754 463.16 419.56 428.49 419.56 351.39 c 1
 154.36 351.39 l 1
 154.36 304.332 154.36 238.489 154.36 191.433 c 1
 320.11 191.433 l 2
 398.35 191.433 441.66 130.498 441.66 64.0117 c 2
 441.66 -87.8066 l 2
 441.66 -165.156 397.46 -209.356 309.06 -209.356 c 2
 107.95 -209.356 l 2
 50.6475 -209.356 30.5996 -162.979 30.5996 -96.6465 c 1
 309.06 -96.6465 l 2
 314.921 -96.6465 320.11 -91.4951 320.11 -85.6338 c 2
 320.11 84.2236 l 2
 320.11 89.4971 314.529 93.9248 309.06 93.9248 c 2
 32.8096 93.9248 l 1
 32.8096 186.008 32.8096 272.567 32.8096 364.65 c 0
EndSplineSet
EndChar

StartChar: six
Encoding: 324 54 68
Width: 509
VWidth: 0
Flags: HW
HStem: -6.62983 128.18<163.598 348.952> 334.089 119.34<162.419 348.952> 557.078 112.173<165.473 407.049>
VStem: 40.8 121.619<123.438 334.089 451.564 553.806> 350.131 121.619<123.438 333.233>
LayerCount: 2
Back
SplineSet
472 125 m 2
 472 260 l 2
 472 276 468.833 291.5 462.5 306.5 c 128
 456.167 321.5 447.5 334.833 436.5 346.5 c 128
 425.5 358.167 412.333 367.333 397 374 c 128
 381.667 380.667 365.333 384 348 384 c 2
 238 384 l 2
 222 384 208.333 380.833 197 374.5 c 128
 185.667 368.167 176.667 361.333 170 354 c 1
 170 539 l 2
 170 553.667 174.833 564.833 184.5 572.5 c 128
 194.167 580.167 204.333 584 215 584 c 2
 433 584 l 1
 433 637 l 2
 433 648.333 429.667 657.667 423 665 c 128
 416.333 672.333 406.667 676 394 676 c 2
 192 676 l 2
 174 676 157.333 672.667 142 666 c 128
 126.667 659.333 113.5 650.167 102.5 638.5 c 128
 91.5 626.833 82.8333 613.5 76.5 598.5 c 128
 70.1667 583.5 67 567.667 67 551 c 2
 67 125 l 2
 67 107 70.5 90.3333 77.5 75 c 128
 84.5 59.6667 93.8333 46.5 105.5 35.5 c 128
 117.167 24.5 130.333 15.8333 145 9.5 c 128
 159.667 3.16667 174.667 7.94729e-08 190 0 c 2
 348 0 l 2
 368 0 385.667 3.83333 401 11.5 c 128
 416.333 19.1667 429.333 29.1667 440 41.5 c 128
 450.667 53.8333 458.667 67.3333 464 82 c 128
 469.333 96.6667 472 111 472 125 c 2
369 142 m 2
 369 128 364.167 116.167 354.5 106.5 c 128
 344.833 96.8333 333 92 319 92 c 2
 220 92 l 2
 206 92 194.167 96.8333 184.5 106.5 c 128
 174.833 116.167 170 128 170 142 c 2
 170 242 l 2
 170 256 174.833 267.833 184.5 277.5 c 128
 194.167 287.167 206 292 220 292 c 2
 319 292 l 2
 333 292 344.833 287.167 354.5 277.5 c 128
 364.167 267.833 369 256 369 242 c 2
 369 142 l 2
EndSplineSet
Fore
SplineSet
168.98 669.251 m 2
 361.25 669.251 l 2
 436.465 669.251 438.607 569.496 438.607 558.129 c 0
 438.607 557.44 438.6 557.078 438.6 557.078 c 1
 173.4 557.078 l 2
 168.013 556.94 162.487 551.553 162.35 546.028 c 2
 162.35 451.564 l 1
 169.957 452.787 177.765 453.429 185.728 453.429 c 2
 326.822 453.429 l 2
 407.119 453.429 471.75 406.101 471.75 325.803 c 2
 471.75 138.298 l 2
 471.75 58.001 407.119 -6.62988 326.822 -6.62988 c 2
 185.728 -6.62988 l 2
 105.431 -6.62988 40.7998 58.001 40.7998 138.298 c 2
 40.7998 538.861 l 2
 40.7998 620.661 93.8076 669.251 168.98 669.251 c 2
173.4 334.089 m 2
 167.322 334.089 162.419 329.185 162.419 323.108 c 2
 162.419 132.531 l 2
 162.419 126.454 167.322 121.55 173.4 121.55 c 2
 339.15 121.55 l 2
 345.228 121.55 350.131 126.454 350.131 132.531 c 2
 350.131 323.108 l 2
 350.131 329.185 345.228 334.089 339.15 334.089 c 2
 173.4 334.089 l 2
EndSplineSet
EndChar

StartChar: nine
Encoding: 325 57 69
Width: 505
VWidth: 0
Flags: HW
HStem: -209.606 121.551<97.2817 336.877> 9.18561 119.339<153.398 339.928> 340.685 121.55<153.398 338.752>
VStem: 30.6 121.619<131.951 339.437> 339.931 121.619<-86.7859 11.05 128.525 139.506 139.506 339.437>
LayerCount: 2
Back
SplineSet
452 125 m 2
 452 551 l 2
 452 569 448.5 585.667 441.5 601 c 128
 434.5 616.333 425.333 629.5 414 640.5 c 128
 402.667 651.5 389.5 660.167 374.5 666.5 c 128
 359.5 672.833 344.333 676 329 676 c 2
 171 676 l 2
 151 676 133.333 672.167 118 664.5 c 128
 102.667 656.833 89.6667 646.833 79 634.5 c 128
 68.3333 622.167 60.3333 608.667 55 594 c 128
 49.6667 579.333 47 565 47 551 c 2
 47 416 l 2
 47 400 50.1667 384.5 56.5 369.5 c 128
 62.8333 354.5 71.5 341.167 82.5 329.5 c 128
 93.5 317.833 106.667 308.667 122 302 c 128
 137.333 295.333 153.667 292 171 292 c 2
 281 292 l 2
 297.667 292 311.5 295.167 322.5 301.5 c 128
 333.5 307.833 342.333 314.667 349 322 c 1
 349 137 l 2
 349 122.333 344.333 111.167 335 103.5 c 128
 325.667 95.8333 315.333 92 304 92 c 2
 94 92 l 1
 94 45 l 2
 94 33.6667 98.8333 23.3333 108.5 14 c 128
 118.167 4.66667 129.333 -1.58946e-07 142 0 c 2
 327 0 l 2
 345 0 361.667 3.33333 377 10 c 128
 392.333 16.6667 405.5 25.8333 416.5 37.5 c 128
 427.5 49.1667 436.167 62.5 442.5 77.5 c 128
 448.833 92.5 452 108.333 452 125 c 2
349 434 m 2
 349 420 344.167 408.167 334.5 398.5 c 128
 324.833 388.833 313 384 299 384 c 2
 200 384 l 2
 186 384 174.167 388.833 164.5 398.5 c 128
 154.833 408.167 150 420 150 434 c 2
 150 534 l 2
 150 548 154.833 559.833 164.5 569.5 c 128
 174.167 579.167 186 584 200 584 c 2
 299 584 l 2
 313 584 324.833 579.167 334.5 569.5 c 128
 344.167 559.833 349 548 349 534 c 2
 349 434 l 2
EndSplineSet
Fore
SplineSet
333.37 -209.605 m 2
 141.1 -209.605 l 2
 65.8857 -209.605 63.7422 -101.512 63.7422 -89.1943 c 0
 63.7422 -88.4502 63.75 -88.0547 63.75 -88.0547 c 1
 328.95 -88.0547 l 2
 334.337 -87.917 339.862 -82.5293 340 -77.0049 c 2
 340 11.0498 l 1
 332.394 9.82617 324.585 9.18555 316.622 9.18555 c 2
 175.527 9.18555 l 2
 95.2305 9.18555 30.5996 62.7666 30.5996 143.063 c 2
 30.5996 317.308 l 2
 30.5996 397.604 95.2305 462.235 175.527 462.235 c 2
 316.622 462.235 l 2
 396.919 462.235 461.55 397.604 461.55 317.308 c 2
 461.55 -79.2148 l 2
 461.55 -161.016 408.542 -209.605 333.37 -209.605 c 2
163.2 128.525 m 2
 328.95 128.525 l 2
 335.027 128.525 339.932 133.429 339.932 139.506 c 2
 339.932 329.705 l 2
 339.932 335.781 335.027 340.686 328.95 340.686 c 2
 163.2 340.686 l 2
 157.122 340.686 152.219 335.781 152.219 329.705 c 2
 152.219 139.506 l 2
 152.219 133.429 157.122 128.525 163.2 128.525 c 2
EndSplineSet
EndChar

StartChar: zero
Encoding: 326 48 70
Width: 453
VWidth: 0
Flags: HW
HStem: 0 121.55<154.769 297.171> 342.55 121.55<155.948 298.347>
VStem: 33.15 121.619<121.553 341.302> 298.35 121.618<122.798 342.55>
LayerCount: 2
Back
SplineSet
462 125 m 2
 462 551 l 2
 462 568.333 458.667 584.5 452 599.5 c 128
 445.333 614.5 436.333 627.667 425 639 c 128
 413.667 650.333 400.5 659.333 385.5 666 c 128
 370.5 672.667 354.333 676 337 676 c 2
 182 676 l 2
 164.667 676 148.5 672.667 133.5 666 c 128
 118.5 659.333 105.333 650.333 94 639 c 128
 82.6667 627.667 73.6667 614.5 67 599.5 c 128
 60.3333 584.5 57 568.333 57 551 c 2
 57 125 l 2
 57 107.667 60.3333 91.5 67 76.5 c 128
 73.6667 61.5 82.6667 48.3333 94 37 c 128
 105.333 25.6667 118.5 16.6667 133.5 10 c 128
 148.5 3.33333 164.667 -7.94729e-08 182 0 c 2
 337 0 l 2
 354.333 0 370.5 3.33333 385.5 10 c 128
 400.5 16.6667 413.667 25.6667 425 37 c 128
 436.333 48.3333 445.333 61.5 452 76.5 c 128
 458.667 91.5 462 107.667 462 125 c 2
359 137 m 2
 359 124.333 354.667 113.667 346 105 c 128
 337.333 96.3333 326.667 92 314 92 c 2
 205 92 l 2
 192.333 92 181.667 96.3333 173 105 c 128
 164.333 113.667 160 124.333 160 137 c 2
 160 539 l 2
 160 551.667 164.333 562.333 173 571 c 128
 181.667 579.667 192.333 584 205 584 c 2
 314 584 l 2
 326.667 584 337.333 579.667 346 571 c 128
 354.667 562.333 359 551.667 359 539 c 2
 359 137 l 2
EndSplineSet
Fore
SplineSet
178.077 464.1 m 2
 353.6 464.1 l 2
 375.7 464.1 419.968 430.95 419.968 386.75 c 2
 419.968 144.928 l 2
 419.968 64.6309 355.338 0 275.041 0 c 2
 121.55 0 l 2
 88.4004 0 33.1504 44.2002 33.1504 88.4004 c 2
 33.1504 319.173 l 2
 33.1504 399.47 97.7803 464.1 178.077 464.1 c 2
165.75 342.55 m 2
 159.673 342.55 154.769 337.646 154.769 331.568 c 2
 154.769 132.531 l 2
 154.769 126.454 159.673 121.55 165.75 121.55 c 2
 287.369 121.55 l 2
 293.445 121.55 298.35 126.454 298.35 132.531 c 2
 298.35 331.568 l 2
 298.35 337.646 293.445 342.55 287.369 342.55 c 2
 165.75 342.55 l 2
EndSplineSet
EndChar

StartChar: seven
Encoding: 327 55 71
Width: 487
VWidth: 0
Flags: HW
HStem: 342.55 121.55<44.1777 315.115>
LayerCount: 2
Back
SplineSet
473 628 m 2
 473 639 l 2
 473 650.333 469.5 659.333 462.5 666 c 128
 455.5 672.667 446 676 434 676 c 2
 93 676 l 2
 81.6667 676 72.3333 672.167 65 664.5 c 128
 57.6667 656.833 54 647.333 54 636 c 2
 54 584 l 1
 353 584 l 1
 147 59 l 2
 143 49 143.333 38.6667 148 28 c 128
 152.667 17.3333 160 10.3333 170 7 c 2
 189 0 l 2
 199.667 -4 209.667 -4.16667 219 -0.5 c 128
 228.333 3.16667 235.333 10.6667 240 22 c 2
 464 596 l 2
 465.333 598.667 467.167 603.333 469.5 610 c 128
 471.833 616.667 473 622.667 473 628 c 2
EndSplineSet
Fore
SplineSet
88.4854 464.1 m 2
 397.885 464.1 l 2
 431.555 464.1 458.66 436.994 458.66 403.325 c 2
 458.66 375.977 l 2
 458.66 361.059 456.45 350.493 451.478 339.443 c 2
 280.059 -174.769 l 2
 272.324 -194.106 250.377 -205.53 232.135 -205.53 c 2
 124.294 -205.53 l 1
 315.114 342.55 l 1
 14.4502 342.55 l 1
 14.4502 392.392 27.2461 464.1 88.4854 464.1 c 2
EndSplineSet
EndChar

StartChar: eight
Encoding: 328 56 72
Width: 492
VWidth: 0
Flags: HW
HStem: -6.62983 128.18<160.537 330.181> 304.98 81.77<177.038 313.676> 544.938 119.339<178.217 312.5>
VStem: 37.7403 121.618<123.438 303.685> 55.4202 121.618<387.694 541.513> 313.68 121.618<387.694 541.513> 331.36 121.618<123.438 303.685>
LayerCount: 2
Back
SplineSet
462 125 m 2
 462 255 l 2
 462 262.333 460.333 270.333 457 279 c 128
 453.667 287.667 448.833 296 442.5 304 c 128
 436.167 312 428.667 319.167 420 325.5 c 128
 411.333 331.833 401.333 336.333 390 339 c 1
 390 342 l 1
 400.667 344 409.833 348.333 417.5 355 c 128
 425.167 361.667 431.667 369.167 437 377.5 c 128
 442.333 385.833 446.333 394.5 449 403.5 c 128
 451.667 412.5 453 420 453 426 c 2
 453 551 l 2
 453 568.333 449.667 584.5 443 599.5 c 128
 436.333 614.5 427.333 627.667 416 639 c 128
 404.667 650.333 391.5 659.333 376.5 666 c 128
 361.5 672.667 345.333 676 328 676 c 2
 191 676 l 2
 173.667 676 157.5 672.667 142.5 666 c 128
 127.5 659.333 114.333 650.333 103 639 c 128
 91.6667 627.667 82.6667 614.5 76 599.5 c 128
 69.3333 584.5 66 568.333 66 551 c 2
 66 426 l 2
 66 420 67.3333 412.5 70 403.5 c 128
 72.6667 394.5 76.6667 385.833 82 377.5 c 128
 87.3333 369.167 93.8333 361.667 101.5 355 c 128
 109.167 348.333 118.333 344 129 342 c 1
 129 339 l 1
 118.333 336.333 108.5 331.833 99.5 325.5 c 128
 90.5 319.167 82.8333 312 76.5 304 c 128
 70.1667 296 65.3333 287.667 62 279 c 128
 58.6667 270.333 57 262.333 57 255 c 2
 57 125 l 2
 57 107.667 60.3333 91.5 67 76.5 c 128
 73.6667 61.5 82.6667 48.3333 94 37 c 128
 105.333 25.6667 118.5 16.6667 133.5 10 c 128
 148.5 3.33333 164.667 -7.94729e-08 182 0 c 2
 337 0 l 2
 354.333 0 370.5 3.33333 385.5 10 c 128
 400.5 16.6667 413.667 25.6667 425 37 c 128
 436.333 48.3333 445.333 61.5 452 76.5 c 128
 458.667 91.5 462 107.667 462 125 c 2
350 429 m 2
 350 416.333 345.667 405.667 337 397 c 128
 328.333 388.333 317.667 384 305 384 c 2
 214 384 l 2
 201.333 384 190.667 388.333 182 397 c 128
 173.333 405.667 169 416.333 169 429 c 2
 169 539 l 2
 169 551.667 173.333 562.333 182 571 c 128
 190.667 579.667 201.333 584 214 584 c 2
 305 584 l 2
 317.667 584 328.333 579.667 337 571 c 128
 345.667 562.333 350 551.667 350 539 c 2
 350 429 l 2
359 137 m 2
 359 124.333 354.667 113.667 346 105 c 128
 337.333 96.3333 326.667 92 314 92 c 2
 205 92 l 2
 192.333 92 181.667 96.3333 173 105 c 128
 164.333 113.667 160 124.333 160 137 c 2
 160 247 l 2
 160 259.667 164.333 270.333 173 279 c 128
 181.667 287.667 192.333 292 205 292 c 2
 314 292 l 2
 326.667 292 337.333 287.667 346 279 c 128
 354.667 270.333 359 259.667 359 247 c 2
 359 137 l 2
EndSplineSet
Fore
SplineSet
200.348 664.277 m 2xe8
 290.37 664.277 l 2
 370.667 664.277 435.298 610.697 435.298 530.4 c 2
 435.298 436.647 l 2xec
 435.298 403.288 424.125 372.653 405.326 348.213 c 1
 434.334 331.203 452.978 297.278 452.978 263.923 c 2
 452.978 138.298 l 2
 452.978 58.001 388.348 -6.62988 308.05 -6.62988 c 2
 182.667 -6.62988 l 2
 102.37 -6.62988 37.7402 58.001 37.7402 138.298 c 2
 37.7402 263.923 l 2xf2
 37.7402 297.278 56.3838 331.203 85.3936 348.213 c 1
 66.5938 372.653 55.4199 403.288 55.4199 436.647 c 2
 55.4199 530.4 l 2
 55.4199 610.697 120.05 664.277 200.348 664.277 c 2xe8
302.697 544.938 m 2
 188.02 544.938 l 2
 181.942 544.938 177.038 540.035 177.038 533.957 c 2
 177.038 397.731 l 2
 177.038 391.654 181.942 386.75 188.02 386.75 c 2
 302.697 386.75 l 2
 308.776 386.75 313.68 391.654 313.68 397.731 c 2
 313.68 533.957 l 2
 313.68 540.035 308.776 544.938 302.697 544.938 c 2
320.378 304.98 m 2
 170.34 304.98 l 2
 164.263 304.98 159.358 300.075 159.358 293.999 c 2
 159.358 132.531 l 2
 159.358 126.454 164.263 121.55 170.34 121.55 c 2
 320.378 121.55 l 2
 326.455 121.55 331.359 126.454 331.359 132.531 c 2
 331.359 293.999 l 2xe2
 331.359 300.075 326.455 304.98 320.378 304.98 c 2
EndSplineSet
EndChar

StartChar: acute
Encoding: 329 180 73
Width: 369
VWidth: 0
Flags: HW
HStem: 495.678 177.235
VStem: 53.0403 262.829
LayerCount: 2
Back
SplineSet
274 627 m 0
 274 630.333 273.667 633.167 273 635.5 c 128
 272.333 637.833 271.333 640.333 270 643 c 2
 262 660 l 2
 258 668.667 251 674.667 241 678 c 128
 231 681.333 222 680.333 214 675 c 2
 62 580 l 2
 53.3333 575.333 49 568 49 558 c 0
 49 554 49.6667 551 51 549 c 2
 57 537 l 2
 60.3333 531 64.8333 527.333 70.5 526 c 128
 76.1667 524.667 82.3333 525.333 89 528 c 2
 255 596 l 2
 261 598.667 265.667 602.833 269 608.5 c 128
 272.333 614.167 274 620.333 274 627 c 0
EndSplineSet
Fore
SplineSet
309.353 649.387 m 0
 313.735 641.795 315.869 633.304 315.869 624.951 c 0
 315.869 608.83 307.921 593.227 292.838 585.599 c 2
 101.756 498.395 l 2
 97.9463 496.558 93.8906 495.678 89.8799 495.678 c 0
 80.3975 495.678 71.1719 500.597 66.0918 509.394 c 2
 53.04 530.751 l 1
 245.122 666.616 l 2
 252.515 670.884 260.59 672.913 268.56 672.913 c 0
 284.818 672.913 300.645 664.47 309.353 649.387 c 0
EndSplineSet
EndChar

StartChar: grave
Encoding: 330 96 74
Width: 369
VWidth: 0
Flags: HW
HStem: 495.678 177.235
VStem: 53.0403 262.829
LayerCount: 2
Back
SplineSet
274 558 m 0
 274 568 269.667 575.333 261 580 c 2
 109 675 l 2
 101 680.333 92 681.333 82 678 c 128
 72 674.667 65 668.667 61 660 c 2
 53 643 l 2
 51.6667 640.333 50.6667 637.833 50 635.5 c 128
 49.3333 633.167 49 630.333 49 627 c 0
 49 620.333 50.6667 614.167 54 608.5 c 128
 57.3333 602.833 62 598.667 68 596 c 2
 234 528 l 2
 240.667 525.333 246.833 524.667 252.5 526 c 128
 258.167 527.333 262.667 531 266 537 c 2
 272 549 l 2
 273.333 551 274 554 274 558 c 0
EndSplineSet
Fore
SplineSet
59.5586 649.387 m 0
 68.2656 664.47 84.0898 672.913 100.351 672.913 c 0
 108.32 672.913 116.396 670.884 123.788 666.616 c 2
 315.869 530.751 l 1
 302.818 509.394 l 2
 297.738 500.597 288.514 495.678 279.03 495.678 c 0
 275.021 495.678 270.964 496.558 267.155 498.395 c 2
 76.0723 585.599 l 2
 60.9902 593.225 53.04 608.83 53.04 624.95 c 0
 53.04 633.303 55.1748 641.795 59.5586 649.387 c 0
EndSplineSet
EndChar

StartChar: dieresis
Encoding: 331 168 75
Width: 396
VWidth: 0
Flags: HW
HStem: 538.941 123.713<60.114 147.578 250.174 337.638>
VStem: 41.9903 123.711<557.065 644.53> 232.05 123.712<557.065 644.53>
LayerCount: 2
Back
SplineSet
315 576 m 2
 315 643 l 2
 315 651.667 312.333 659.333 307 666 c 128
 301.667 672.667 293.333 676 282 676 c 2
 253 676 l 2
 241.667 676 233.167 672.667 227.5 666 c 128
 221.833 659.333 219 651.667 219 643 c 2
 219 576 l 2
 219 564.667 222.833 556.333 230.5 551 c 128
 238.167 545.667 246 543 254 543 c 2
 279 543 l 2
 288.333 543 296.667 545.667 304 551 c 128
 311.333 556.333 315 564.667 315 576 c 2
134 576 m 2
 134 643 l 2
 134 651.667 131.333 659.333 126 666 c 128
 120.667 672.667 112.333 676 101 676 c 2
 72 676 l 2
 60.6667 676 52.1667 672.667 46.5 666 c 128
 40.8333 659.333 38 651.667 38 643 c 2
 38 576 l 2
 38 564.667 41.8333 556.333 49.5 551 c 128
 57.1667 545.667 65 543 73 543 c 2
 98 543 l 2
 107.333 543 115.667 545.667 123 551 c 128
 130.333 556.333 134 564.667 134 576 c 2
EndSplineSet
Fore
SplineSet
165.701 600.797 m 0
 165.701 566.652 137.99 538.94 103.847 538.94 c 0
 69.7021 538.94 41.9902 566.652 41.9902 600.797 c 0
 41.9902 634.941 69.7021 662.654 103.847 662.654 c 0
 137.99 662.654 165.701 634.941 165.701 600.797 c 0
355.762 600.797 m 0
 355.762 566.652 328.05 538.94 293.905 538.94 c 0
 259.762 538.94 232.05 566.652 232.05 600.797 c 0
 232.05 634.941 259.762 662.654 293.905 662.654 c 0
 328.05 662.654 355.762 634.941 355.762 600.797 c 0
EndSplineSet
EndChar

StartChar: dotlessi
Encoding: 332 305 76
Width: 265
VWidth: 0
Flags: HW
HStem: 0 17.85G<72.7696 194.319>
VStem: 72.7696 121.549<0 446.338>
LayerCount: 2
Back
SplineSet
172 40 m 2
 172 434 l 2
 172 445.333 168.167 454.833 160.5 462.5 c 128
 152.833 470.167 143.333 474 132 474 c 2
 109 474 l 2
 97.6667 474 88.1667 470.167 80.5 462.5 c 128
 72.8333 454.833 69 445.333 69 434 c 2
 69 40 l 2
 69 28.6667 72.8333 19.1667 80.5 11.5 c 128
 88.1667 3.83333 97.6667 -7.94729e-08 109 0 c 2
 132 0 l 2
 143.333 0 152.833 3.83333 160.5 11.5 c 128
 168.167 19.1667 172 28.6667 172 40 c 2
EndSplineSet
Fore
SplineSet
133.544 464.1 m 0
 167.214 464.1 194.318 436.994 194.318 403.325 c 2
 194.318 0 l 1
 72.7695 0 l 1
 72.7695 403.325 l 2
 72.7695 436.994 99.875 464.1 133.544 464.1 c 0
EndSplineSet
EndChar

StartChar: caron
Encoding: 333 711 77
Width: 407
VWidth: 0
Flags: HW
HStem: 504.607 177.074
LayerCount: 2
Back
SplineSet
347.654 658 m 2
 339.654 670 l 2
 336.321 675.333 331.654 678.333 325.654 679 c 128
 319.654 679.667 313.988 678.333 308.654 675 c 2
 188.654 598 l 1
 68.6543 675 l 2
 63.321 678.333 57.6543 679.667 51.6543 679 c 128
 45.6543 678.333 40.9876 675.333 37.6543 670 c 2
 29.6543 658 l 2
 22.321 647.333 23.6543 637.333 33.6543 628 c 2
 141.654 537 l 2
 150.988 529 160.654 525 170.654 525 c 2
 206.654 525 l 2
 216.654 525 226.321 529 235.654 537 c 2
 343.654 628 l 2
 353.654 637.333 354.988 647.333 347.654 658 c 2
EndSplineSet
Fore
SplineSet
45.0977 668.041 m 6
 51.1455 676.352 59.876 681.682 69.3213 681.682 c 4
 73.0664 681.682 76.9229 680.843 80.7686 679.022 c 5
 80.8027 679.092 l 5
 204.321 602.467 l 5
 327.874 679.092 l 5
 327.909 679.022 l 5
 331.724 680.863 335.783 681.744 339.795 681.744 c 4
 349.264 681.744 358.468 676.836 363.545 668.041 c 6
 376.598 646.667 l 5
 228.735 510.82 l 5
 220.679 506.744 212.313 504.606 203.955 504.606 c 4
 195.85 504.606 187.749 506.618 179.942 510.82 c 5
 32.0449 646.667 l 5
 45.0977 668.041 l 6
EndSplineSet
EndChar

StartChar: circumflex
Encoding: 334 710 78
Width: 407
VWidth: 0
Flags: HW
HStem: 499.082 177.137
LayerCount: 2
Back
SplineSet
347.654 543 m 2
 354.988 553.667 353.654 563.667 343.654 573 c 2
 235.654 664 l 2
 226.321 672 216.654 676 206.654 676 c 2
 170.654 676 l 2
 160.654 676 150.988 672 141.654 664 c 2
 33.6543 573 l 2
 23.6543 563.667 22.321 553.667 29.6543 543 c 2
 37.6543 531 l 2
 40.9876 525.667 45.6543 522.667 51.6543 522 c 128
 57.6543 521.333 63.321 522.667 68.6543 526 c 2
 188.654 603 l 1
 308.654 526 l 2
 313.988 522.667 319.654 521.333 325.654 522 c 128
 331.654 522.667 336.321 525.667 339.654 531 c 2
 347.654 543 l 2
EndSplineSet
Fore
SplineSet
45.0977 512.784 m 2
 32.0449 534.159 l 1
 179.942 670.006 l 1
 187.749 674.21 195.848 676.219 203.955 676.219 c 0
 212.313 676.219 220.679 674.081 228.735 670.006 c 1
 376.598 534.159 l 1
 363.545 512.784 l 2
 358.468 503.99 349.264 499.082 339.795 499.082 c 0
 335.783 499.082 331.724 499.963 327.909 501.804 c 1
 327.874 501.734 l 1
 204.321 578.359 l 1
 80.8027 501.734 l 1
 80.7686 501.804 l 1
 76.9229 499.983 73.0664 499.146 69.3213 499.146 c 0
 59.876 499.146 51.1455 504.476 45.0977 512.784 c 2
EndSplineSet
EndChar

StartChar: ring
Encoding: 335 730 79
Width: 357
VWidth: 0
Flags: HW
HStem: 502.809 48.172<145.194 213.302> 636.349 48.1711<145.194 213.302>
VStem: 88.4 48.1711<559.619 627.726> 221.939 48.1694<559.619 627.726>
LayerCount: 2
Back
SplineSet
302 567 m 2
 302 610 l 2
 302 626.667 295.333 641.833 282 655.5 c 128
 268.667 669.167 252.333 676 233 676 c 2
 158 676 l 2
 148 676 138.833 674.167 130.5 670.5 c 128
 122.167 666.833 114.833 661.833 108.5 655.5 c 128
 102.167 649.167 97.1667 642 93.5 634 c 128
 89.8333 626 88 618 88 610 c 2
 88 567 l 2
 88 549.667 95 534.333 109 521 c 128
 123 507.667 139.667 501 159 501 c 2
 232 501 l 2
 251.333 501 267.833 507.667 281.5 521 c 128
 295.167 534.333 302 549.667 302 567 c 2
243 581 m 2
 243 573.667 240.5 567.667 235.5 563 c 128
 230.5 558.333 224.667 556 218 556 c 2
 173 556 l 2
 166.333 556 160.333 558.333 155 563 c 128
 149.667 567.667 147 573.667 147 581 c 2
 147 596 l 2
 147 604.667 149.667 611 155 615 c 128
 160.333 619 166.333 621 173 621 c 2
 218 621 l 2
 224.667 621 230.5 619 235.5 615 c 128
 240.5 611 243 604.667 243 596 c 2
 243 581 l 2
EndSplineSet
Fore
SplineSet
179.242 684.52 m 0
 229.392 684.52 270.108 643.826 270.108 593.678 c 0
 270.108 543.528 229.392 502.809 179.242 502.809 c 0
 129.093 502.809 88.4004 543.528 88.4004 593.678 c 0
 88.4004 643.826 129.093 684.52 179.242 684.52 c 0
179.243 636.35 m 0
 155.685 636.35 136.571 617.235 136.571 593.677 c 0
 136.571 570.117 155.685 550.981 179.243 550.981 c 0
 202.802 550.981 221.939 570.117 221.939 593.677 c 0
 221.939 617.235 202.802 636.35 179.243 636.35 c 0
EndSplineSet
EndChar

StartChar: breve
Encoding: 336 728 80
Width: 464
VWidth: 0
Flags: HW
HStem: 508.334 80.8704<181.922 284.35>
LayerCount: 2
Back
SplineSet
323 594 m 2
 323 651 l 2
 323 658.333 320.667 664.333 316 669 c 128
 311.333 673.667 305.333 676 298 676 c 2
 274 676 l 2
 266.667 676 260.667 673.667 256 669 c 128
 251.333 664.333 249 658.333 249 651 c 2
 249 611 l 2
 249 607 247.833 602.833 245.5 598.5 c 128
 243.167 594.167 238.667 592 232 592 c 2
 159 592 l 2
 153.667 592 149.333 594 146 598 c 128
 142.667 602 141 606.333 141 611 c 2
 141 651 l 2
 141 658.333 138.667 664.333 134 669 c 128
 129.333 673.667 123.333 676 116 676 c 2
 92 676 l 2
 84.6667 676 78.6667 673.667 74 669 c 128
 69.3333 664.333 67 658.333 67 651 c 2
 67 594 l 2
 67 574.667 74 559 88 547 c 128
 102 535 118.667 529 138 529 c 2
 253 529 l 2
 272.333 529 288.833 535 302.5 547 c 128
 316.167 559 323 574.667 323 594 c 2
EndSplineSet
Fore
SplineSet
105.701 667.904 m 0
 115.562 667.861 125.975 664.749 132.772 657.751 c 0
 159.543 630.19 181.851 589.206 233.121 589.205 c 0
 284.39 589.205 306.67 630.194 333.434 657.751 c 0
 340.278 664.796 350.801 667.901 360.724 667.901 c 0
 369.354 667.901 377.525 665.555 382.434 661.411 c 2
 399.906 646.667 l 1
 358.274 575.558 312.209 508.334 233.121 508.334 c 0
 155.595 508.334 103.437 574.967 66.2998 646.667 c 1
 83.7734 661.411 l 2
 88.6807 665.555 96.8711 667.904 105.499 667.904 c 0
 105.701 667.904 l 0
EndSplineSet
EndChar

StartChar: dotaccent
Encoding: 337 729 81
Width: 299
VWidth: 0
Flags: HW
HStem: 542.555 122.655<106.77 192.96>
VStem: 88.9525 122.655<559.683 647.115>
LayerCount: 2
Back
SplineSet
255 569 m 2
 255 636 l 2
 255 647.333 251.167 656.833 243.5 664.5 c 128
 235.833 672.167 226.333 676 215 676 c 2
 175 676 l 2
 163.667 676 154.167 672.167 146.5 664.5 c 128
 138.833 656.833 135 647.333 135 636 c 2
 135 569 l 2
 135 557.667 138.833 548.167 146.5 540.5 c 128
 154.167 532.833 163.667 529 175 529 c 2
 215 529 l 2
 226.333 529 235.833 532.833 243.5 540.5 c 128
 251.167 548.167 255 557.667 255 569 c 2
EndSplineSet
Fore
Refer: 30 46 S 1 0 0 1 21.5475 542.555 2
EndChar

StartChar: periodcentered
Encoding: 338 183 82
Width: 255
VWidth: 0
Flags: HW
HStem: 281.678 123.712<84.4238 171.889>
VStem: 66.3 123.712<299.802 387.267>
LayerCount: 2
Back
SplineSet
179 240 m 2
 179 307 l 2
 179 318.333 175.167 327.833 167.5 335.5 c 128
 159.833 343.167 150.333 347 139 347 c 2
 99 347 l 2
 87.6667 347 78.1667 343.167 70.5 335.5 c 128
 62.8333 327.833 59 318.333 59 307 c 2
 59 240 l 2
 59 228.667 62.8333 219.167 70.5 211.5 c 128
 78.1667 203.833 87.6667 200 99 200 c 2
 139 200 l 2
 150.333 200 159.833 203.833 167.5 211.5 c 128
 175.167 219.167 179 228.667 179 240 c 2
EndSplineSet
Fore
SplineSet
190.013 343.534 m 4
 190.013 309.39 162.3 281.678 128.156 281.678 c 4
 94.0117 281.678 66.2998 309.39 66.2998 343.534 c 4
 66.2998 377.679 94.0117 405.391 128.156 405.391 c 4
 162.3 405.391 190.013 377.679 190.013 343.534 c 4
EndSplineSet
EndChar

StartChar: parenright
Encoding: 339 41 83
Width: 355
VWidth: 0
Flags: HW
VStem: 137.555 119.414<-84.1443 -33.15 -33.15 494.28 494.28 545.273>
LayerCount: 2
Back
SplineSet
221.533 -75 m 2
 221.533 603 l 2
 221.533 614.333 219.7 625.167 216.033 635.5 c 128
 212.367 645.833 205.533 655.333 195.533 664 c 2
 104.533 740 l 2
 99.1999 744.667 92.8665 747.5 85.5332 748.5 c 128
 78.1999 749.5 71.8665 747.333 66.5332 742 c 2
 51.5332 728 l 2
 46.1999 722.667 43.3665 716.833 43.0332 710.5 c 128
 42.6999 704.167 44.8665 698.333 49.5332 693 c 2
 118.533 607 l 1
 118.533 -79 l 1
 49.5332 -165 l 2
 44.8665 -170.333 42.6999 -176.167 43.0332 -182.5 c 128
 43.3665 -188.833 46.1999 -194.667 51.5332 -200 c 2
 66.5332 -214 l 2
 71.8665 -219.333 78.1999 -221.5 85.5332 -220.5 c 128
 92.8665 -219.5 99.1999 -216.667 104.533 -212 c 2
 195.533 -136 l 2
 205.533 -127.333 212.367 -117.833 216.033 -107.5 c 128
 219.7 -97.1667 221.533 -86.3333 221.533 -75 c 2
EndSplineSet
Fore
SplineSet
85.9697 674.43 m 0
 86.7559 674.436 l 0
 101.492 674.436 117.648 667.957 130.999 652.088 c 2
 234.455 557.196 l 2
 253.239 538.964 256.969 518.646 256.969 494.28 c 2
 256.969 -33.1504 l 2
 256.969 -57.5156 253.239 -77.8682 234.455 -96.1006 c 2
 130.999 -190.992 l 2
 117.649 -206.86 101.496 -213.337 86.7617 -213.337 c 0
 63.751 -213.337 44.2012 -197.538 44.2012 -177.036 c 0
 44.2012 -169.943 46.541 -162.287 51.8877 -154.527 c 1
 121.987 -81.874 l 1
 134.234 -63.501 137.555 -56.3535 137.555 -37.9531 c 0
 137.555 -36.4326 137.532 -34.8359 137.491 -33.1504 c 1
 137.283 -33.1504 l 1
 137.283 494.28 l 1
 137.491 494.28 l 1
 137.532 495.966 137.555 497.562 137.555 499.083 c 0
 137.555 517.485 134.234 524.632 121.987 543.004 c 1
 51.8877 615.624 l 1
 46.541 623.384 44.2002 631.04 44.2002 638.134 c 0
 44.2002 658.402 63.3018 674.074 85.9697 674.43 c 0
EndSplineSet
EndChar

StartChar: parenleft
Encoding: 340 40 84
Width: 355
VWidth: 0
Flags: HW
VStem: 99.45 119.412<-84.1443 -33.15 -33.15 494.28 494.28 545.273>
LayerCount: 2
Back
SplineSet
262 -165 m 2
 193 -79 l 1
 193 607 l 1
 262 693 l 2
 266.667 698.333 268.833 704.167 268.5 710.5 c 128
 268.167 716.833 265.333 722.667 260 728 c 2
 245 742 l 2
 239.667 747.333 233.333 749.5 226 748.5 c 128
 218.667 747.5 212.333 744.667 207 740 c 2
 116 664 l 2
 106 655.333 99.1667 645.833 95.5 635.5 c 128
 91.8333 625.167 90 614.333 90 603 c 2
 90 -75 l 2
 90 -86.3333 91.8333 -97.1667 95.5 -107.5 c 128
 99.1667 -117.833 106 -127.333 116 -136 c 2
 207 -212 l 2
 212.333 -216.667 218.667 -219.5 226 -220.5 c 128
 233.333 -221.5 239.667 -219.333 245 -214 c 2
 260 -200 l 2
 271.333 -188.667 272 -177 262 -165 c 2
EndSplineSet
Fore
SplineSet
270.449 674.43 m 0
 293.118 674.073 312.219 658.402 312.219 638.134 c 0
 312.219 631.04 309.878 623.383 304.531 615.624 c 1
 234.433 543.004 l 1
 222.185 524.631 218.862 517.485 218.862 499.083 c 0
 218.862 497.562 218.886 495.966 218.928 494.28 c 1
 219.135 494.28 l 1
 219.135 -33.1504 l 1
 218.928 -33.1504 l 1
 218.886 -34.8359 218.862 -36.4326 218.862 -37.9531 c 0
 218.862 -56.3535 222.185 -63.501 234.433 -81.874 c 1
 304.531 -154.527 l 1
 309.878 -162.287 312.218 -169.944 312.218 -177.036 c 0
 312.218 -197.538 292.668 -213.337 269.656 -213.337 c 0
 254.922 -213.337 238.77 -206.86 225.42 -190.992 c 2
 121.964 -96.1006 l 2
 103.18 -77.8682 99.4502 -57.5156 99.4502 -33.1504 c 2
 99.4502 494.28 l 2
 99.4502 518.646 103.18 538.964 121.964 557.196 c 2
 225.42 652.088 l 2
 238.771 667.957 254.925 674.43 269.662 674.43 c 0
 270.449 674.43 l 0
EndSplineSet
EndChar

StartChar: uni0237
Encoding: 341 567 85
Width: 263
VWidth: 0
Flags: HW
VStem: 71.2572 121.278<-84.1392 -33.15 -33.15 446.338>
LayerCount: 2
Fore
SplineSet
131.76 464.1 m 4
 165.43 464.1 192.535 436.994 192.535 403.325 c 6
 192.535 -33.1504 l 6
 192.535 -57.5156 186.951 -77.8535 168.167 -96.0869 c 6
 64.707 -190.979 l 6
 51.3574 -206.849 35.2031 -213.326 20.4668 -213.326 c 4
 -2.54785 -213.326 -22.0996 -197.525 -22.0996 -177.024 c 4
 -22.0996 -169.932 -19.7598 -162.276 -14.4131 -154.518 c 5
 55.6738 -81.8691 l 5
 67.9258 -63.4922 71.2568 -56.3496 71.2568 -37.9375 c 4
 71.2568 -36.4219 71.2344 -34.8301 71.1924 -33.1504 c 5
 70.9854 -33.1504 l 5
 70.9854 403.325 l 6
 70.9854 436.994 98.0908 464.1 131.76 464.1 c 4
EndSplineSet
EndChar

StartChar: Agrave
Encoding: 342 192 86
Width: 555
VWidth: 0
Flags: HW
HStem: 143.064 121.55<218.118 336.767> 729.3 177.235
VStem: 139.351 262.829
LayerCount: 2
Back
SplineSet
390 760 m 0
 390 770 385.667 777.333 377 782 c 2
 225 877 l 2
 217 882.333 208 883.333 198 880 c 128
 188 876.667 181 870.667 177 862 c 2
 169 845 l 2
 167.667 842.333 166.667 839.833 166 837.5 c 128
 165.333 835.167 165 832.333 165 829 c 0
 165 822.333 166.667 816.167 170 810.5 c 128
 173.333 804.833 178 800.667 184 798 c 2
 350 730 l 2
 356.667 727.333 362.833 726.667 368.5 728 c 128
 374.167 729.333 378.667 733 382 739 c 2
 388 751 l 2
 389.333 753 390 756 390 760 c 0
531 41 m 0
 531 45.6667 530.667 49.3333 530 52 c 2
 345 676 l 1
 248 676 l 2
 232.667 676 221.5 671.833 214.5 663.5 c 128
 207.5 655.167 202.333 645.333 199 634 c 2
 27 52 l 2
 26.3333 50 25.8333 48.1667 25.5 46.5 c 128
 25.1667 44.8333 25 43 25 41 c 0
 25 32.3333 27.6667 24.1667 33 16.5 c 128
 38.3333 8.83333 45.3333 4 54 2 c 2
 70 -2 l 2
 80 -4.66667 90 -3.5 100 1.5 c 128
 110 6.5 116.667 14 120 24 c 2
 168 189 l 1
 389 189 l 1
 437 24 l 2
 439.667 14.6667 444.833 7.83333 452.5 3.5 c 128
 460.167 -0.833333 468.667 -3 478 -3 c 0
 482 -3 485 -2.66667 487 -2 c 2
 503 2 l 2
 512.333 4 519.333 8.83333 524 16.5 c 128
 528.667 24.1667 531 32.3333 531 41 c 0
362 281 m 1
 195 281 l 1
 231 404 l 2
 235.667 420 240.667 438.333 246 459 c 128
 254 490 254 490 261 517.5 c 128
 268 545 268 545 272.5 564 c 128
 275.5 576.667 278 583 280 583 c 1
 289 545 289 545 296 517.5 c 128
 303 490 303 490 311 459 c 128
 316.333 438.333 321.333 420 326 404 c 2
 362 281 l 1
EndSplineSet
Fore
Refer: 74 96 S 1 0 0 1 86.3107 233.623 2
Refer: 45 65 N 1 0 0 1 0 0 3
EndChar

StartChar: Aacute
Encoding: 343 193 87
Width: 555
VWidth: 0
Flags: HW
HStem: 143.064 121.55<218.118 336.767> 729.3 177.235
VStem: 169.66 262.829
LayerCount: 2
Back
SplineSet
390 829 m 0
 390 832.333 389.667 835.167 389 837.5 c 128
 388.333 839.833 387.333 842.333 386 845 c 2
 378 862 l 2
 374 870.667 367 876.667 357 880 c 128
 347 883.333 338 882.333 330 877 c 2
 178 782 l 2
 169.333 777.333 165 770 165 760 c 0
 165 756 165.667 753 167 751 c 2
 173 739 l 2
 176.333 733 180.833 729.333 186.5 728 c 128
 192.167 726.667 198.333 727.333 205 730 c 2
 371 798 l 2
 377 800.667 381.667 804.833 385 810.5 c 128
 388.333 816.167 390 822.333 390 829 c 0
531 41 m 0
 531 45.6667 530.667 49.3333 530 52 c 2
 345 676 l 1
 248 676 l 2
 232.667 676 221.5 671.833 214.5 663.5 c 128
 207.5 655.167 202.333 645.333 199 634 c 2
 27 52 l 2
 26.3333 50 25.8333 48.1667 25.5 46.5 c 128
 25.1667 44.8333 25 43 25 41 c 0
 25 32.3333 27.6667 24.1667 33 16.5 c 128
 38.3333 8.83333 45.3333 4 54 2 c 2
 70 -2 l 2
 80 -4.66667 90 -3.5 100 1.5 c 128
 110 6.5 116.667 14 120 24 c 2
 168 189 l 1
 389 189 l 1
 437 24 l 2
 439.667 14.6667 444.833 7.83333 452.5 3.5 c 128
 460.167 -0.833333 468.667 -3 478 -3 c 0
 482 -3 485 -2.66667 487 -2 c 2
 503 2 l 2
 512.333 4 519.333 8.83333 524 16.5 c 128
 528.667 24.1667 531 32.3333 531 41 c 0
362 281 m 1
 195 281 l 1
 231 404 l 2
 235.667 420 240.667 438.333 246 459 c 128
 254 490 254 490 261 517.5 c 128
 268 545 268 545 272.5 564 c 128
 275.5 576.667 278 583 280 583 c 1
 289 545 289 545 296 517.5 c 128
 303 490 303 490 311 459 c 128
 316.333 438.333 321.333 420 326 404 c 2
 362 281 l 1
EndSplineSet
Fore
Refer: 73 180 S 1 0 0 1 116.62 233.623 2
Refer: 45 65 N 1 0 0 1 0 0 3
EndChar

StartChar: Acircumflex
Encoding: 344 194 88
Width: 555
VWidth: 0
Flags: HW
HStem: 143.064 121.55<218.118 336.767> 729.3 177.137
LayerCount: 2
Back
SplineSet
437 744 m 2
 444.333 754.667 443 764.667 433 774 c 2
 325 865 l 2
 315.667 873 306 877 296 877 c 2
 260 877 l 2
 250 877 240.333 873 231 865 c 2
 123 774 l 2
 113 764.667 111.667 754.667 119 744 c 2
 127 732 l 2
 130.333 726.667 135 723.667 141 723 c 128
 147 722.333 152.667 723.667 158 727 c 2
 278 804 l 1
 398 727 l 2
 403.333 723.667 409 722.333 415 723 c 128
 421 723.667 425.667 726.667 429 732 c 2
 437 744 l 2
531 41 m 0
 531 45.6667 530.667 49.3333 530 52 c 2
 345 676 l 1
 248 676 l 2
 232.667 676 221.5 671.833 214.5 663.5 c 128
 207.5 655.167 202.333 645.333 199 634 c 2
 27 52 l 2
 26.3333 50 25.8333 48.1667 25.5 46.5 c 128
 25.1667 44.8333 25 43 25 41 c 0
 25 32.3333 27.6667 24.1667 33 16.5 c 128
 38.3333 8.83333 45.3333 4 54 2 c 2
 70 -2 l 2
 80 -4.66667 90 -3.5 100 1.5 c 128
 110 6.5 116.667 14 120 24 c 2
 168 189 l 1
 389 189 l 1
 437 24 l 2
 439.667 14.6667 444.833 7.83333 452.5 3.5 c 128
 460.167 -0.833333 468.667 -3 478 -3 c 0
 482 -3 485 -2.66667 487 -2 c 2
 503 2 l 2
 512.333 4 519.333 8.83333 524 16.5 c 128
 528.667 24.1667 531 32.3333 531 41 c 0
362 281 m 1
 195 281 l 1
 231 404 l 2
 235.667 420 240.667 438.333 246 459 c 128
 254 490 254 490 261 517.5 c 128
 268 545 268 545 272.5 564 c 128
 275.5 576.667 278 583 280 583 c 1
 289 545 289 545 296 517.5 c 128
 303 490 303 490 311 459 c 128
 316.333 438.333 321.333 420 326 404 c 2
 362 281 l 1
EndSplineSet
Fore
Refer: 78 710 S 1 0 0 1 85.4667 230.218 2
Refer: 45 65 N 1 0 0 1 0 0 3
EndChar

StartChar: Adieresis
Encoding: 345 196 89
Width: 555
VWidth: 0
Flags: HW
HStem: 143.064 121.55<218.118 336.767> 729.3 123.713<149.92 237.385 339.98 427.445>
VStem: 131.797 123.711<747.424 834.889> 321.857 123.712<747.424 834.889>
LayerCount: 2
Back
SplineSet
417 777 m 2
 417 844 l 2
 417 852.667 414.333 860.333 409 867 c 128
 403.667 873.667 395.333 877 384 877 c 2
 355 877 l 2
 343.667 877 335.167 873.667 329.5 867 c 128
 323.833 860.333 321 852.667 321 844 c 2
 321 777 l 2
 321 765.667 324.833 757.333 332.5 752 c 128
 340.167 746.667 348 744 356 744 c 2
 381 744 l 2
 390.333 744 398.667 746.667 406 752 c 128
 413.333 757.333 417 765.667 417 777 c 2
236 777 m 2
 236 844 l 2
 236 852.667 233.333 860.333 228 867 c 128
 222.667 873.667 214.333 877 203 877 c 2
 174 877 l 2
 162.667 877 154.167 873.667 148.5 867 c 128
 142.833 860.333 140 852.667 140 844 c 2
 140 777 l 2
 140 765.667 143.833 757.333 151.5 752 c 128
 159.167 746.667 167 744 175 744 c 2
 200 744 l 2
 209.333 744 217.667 746.667 225 752 c 128
 232.333 757.333 236 765.667 236 777 c 2
531 41 m 0
 531 45.6667 530.667 49.3333 530 52 c 2
 345 676 l 1
 248 676 l 2
 232.667 676 221.5 671.833 214.5 663.5 c 128
 207.5 655.167 202.333 645.333 199 634 c 2
 27 52 l 2
 26.3333 50 25.8333 48.1667 25.5 46.5 c 128
 25.1667 44.8333 25 43 25 41 c 0
 25 32.3333 27.6667 24.1667 33 16.5 c 128
 38.3333 8.83333 45.3333 4 54 2 c 2
 70 -2 l 2
 80 -4.66667 90 -3.5 100 1.5 c 128
 110 6.5 116.667 14 120 24 c 2
 168 189 l 1
 389 189 l 1
 437 24 l 2
 439.667 14.6667 444.833 7.83333 452.5 3.5 c 128
 460.167 -0.833333 468.667 -3 478 -3 c 0
 482 -3 485 -2.66667 487 -2 c 2
 503 2 l 2
 512.333 4 519.333 8.83333 524 16.5 c 128
 528.667 24.1667 531 32.3333 531 41 c 0
362 281 m 1
 195 281 l 1
 231 404 l 2
 235.667 420 240.667 438.333 246 459 c 128
 254 490 254 490 261 517.5 c 128
 268 545 268 545 272.5 564 c 128
 275.5 576.667 278 583 280 583 c 1
 289 545 289 545 296 517.5 c 128
 303 490 303 490 311 459 c 128
 316.333 438.333 321.333 420 326 404 c 2
 362 281 l 1
EndSplineSet
Fore
Refer: 75 168 S 1 0 0 1 89.8068 190.359 2
Refer: 45 65 N 1 0 0 1 0 0 3
EndChar

StartChar: Aring
Encoding: 346 197 90
Width: 555
VWidth: 0
Flags: HW
HStem: 143.064 121.55<218.118 336.767> 712.193 48.172<249.096 317.204> 845.733 48.1711<249.096 317.204>
VStem: 192.302 48.1711<769.003 837.11> 325.842 48.1694<769.003 837.11>
LayerCount: 2
Back
SplineSet
385 768 m 2
 385 811 l 2
 385 827.667 378.333 842.833 365 856.5 c 128
 351.667 870.167 335.333 877 316 877 c 2
 241 877 l 2
 231 877 221.833 875.167 213.5 871.5 c 128
 205.167 867.833 197.833 862.833 191.5 856.5 c 128
 185.167 850.167 180.167 843 176.5 835 c 128
 172.833 827 171 819 171 811 c 2
 171 768 l 2
 171 750.667 178 735.333 192 722 c 128
 206 708.667 222.667 702 242 702 c 2
 315 702 l 2
 334.333 702 350.833 708.667 364.5 722 c 128
 378.167 735.333 385 750.667 385 768 c 2
531 41 m 0
 531 45.6667 530.667 49.3333 530 52 c 2
 345 676 l 1
 248 676 l 2
 232.667 676 221.5 671.833 214.5 663.5 c 128
 207.5 655.167 202.333 645.333 199 634 c 2
 27 52 l 2
 26.3333 50 25.8333 48.1667 25.5 46.5 c 128
 25.1667 44.8333 25 43 25 41 c 0
 25 32.3333 27.6667 24.1667 33 16.5 c 128
 38.3333 8.83333 45.3333 4 54 2 c 2
 70 -2 l 2
 80 -4.66667 90 -3.5 100 1.5 c 128
 110 6.5 116.667 14 120 24 c 2
 168 189 l 1
 389 189 l 1
 437 24 l 2
 439.667 14.6667 444.833 7.83333 452.5 3.5 c 128
 460.167 -0.833333 468.667 -3 478 -3 c 0
 482 -3 485 -2.66667 487 -2 c 2
 503 2 l 2
 512.333 4 519.333 8.83333 524 16.5 c 128
 528.667 24.1667 531 32.3333 531 41 c 0
326 782 m 2
 326 774.667 323.5 768.667 318.5 764 c 128
 313.5 759.333 307.667 757 301 757 c 2
 256 757 l 2
 249.333 757 243.333 759.333 238 764 c 128
 232.667 768.667 230 774.667 230 782 c 2
 230 797 l 2
 230 805.667 232.667 812 238 816 c 128
 243.333 820 249.333 822 256 822 c 2
 301 822 l 2
 307.667 822 313.5 820 318.5 816 c 128
 323.5 812 326 805.667 326 797 c 2
 326 782 l 2
362 281 m 1
 195 281 l 1
 231 404 l 2
 235.667 420 240.667 438.333 246 459 c 128
 254 490 254 490 261 517.5 c 128
 268 545 268 545 272.5 564 c 128
 275.5 576.667 278 583 280 583 c 1
 289 545 289 545 296 517.5 c 128
 303 490 303 490 311 459 c 128
 316.333 438.333 321.333 420 326 404 c 2
 362 281 l 1
EndSplineSet
Fore
Refer: 79 730 S 1 0 0 1 103.902 209.384 2
Refer: 45 65 N 1 0 0 1 0 0 3
EndChar

StartChar: Egrave
Encoding: 347 200 91
Width: 523
VWidth: 0
Flags: HW
HStem: 0 121.55<166.175 467.763> 262.99 121.55<166.175 423.53> 541.45 121.55<166.175 448.973> 729.3 177.235
VStem: 44.625 121.55<121.55 262.99 384.54 541.45> 124.028 262.829
LayerCount: 2
Back
SplineSet
372 760 m 0
 372 770 367.667 777.333 359 782 c 2
 207 877 l 2
 199 882.333 190 883.333 180 880 c 128
 170 876.667 163 870.667 159 862 c 2
 151 845 l 2
 149.667 842.333 148.667 839.833 148 837.5 c 128
 147.333 835.167 147 832.333 147 829 c 0
 147 822.333 148.667 816.167 152 810.5 c 128
 155.333 804.833 160 800.667 166 798 c 2
 332 730 l 2
 338.667 727.333 344.833 726.667 350.5 728 c 128
 356.167 729.333 360.667 733 364 739 c 2
 370 751 l 2
 371.333 753 372 756 372 760 c 0
469 36 m 2
 469 56 l 2
 469 67.3333 465.333 76.1667 458 82.5 c 128
 450.667 88.8333 441.333 92 430 92 c 2
 178 92 l 1
 178 292 l 1
 389 292 l 2
 400.333 292 409.833 295.167 417.5 301.5 c 128
 425.167 307.833 429 316.667 429 328 c 2
 429 348 l 2
 429 359.333 425.167 368.167 417.5 374.5 c 128
 409.833 380.833 400.333 384 389 384 c 2
 178 384 l 1
 178 584 l 1
 416 584 l 2
 427.333 584 436.833 587.167 444.5 593.5 c 128
 452.167 599.833 456 608.667 456 620 c 2
 456 676 l 1
 75 676 l 1
 75 0 l 1
 430 0 l 2
 441.333 0 450.667 3.16667 458 9.5 c 128
 465.333 15.8333 469 24.6667 469 36 c 2
EndSplineSet
Fore
Refer: 74 96 S 1 0 0 1 70.9878 233.623 2
Refer: 59 69 N 1 0 0 1 0 0 3
EndChar

StartChar: Eacute
Encoding: 348 201 92
Width: 523
VWidth: 0
Flags: HW
HStem: 0 121.55<166.175 467.763> 262.99 121.55<166.175 423.53> 541.45 121.55<166.175 448.973> 729.3 177.235
VStem: 44.625 121.55<121.55 262.99 384.54 541.45> 124.502 262.829
LayerCount: 2
Back
SplineSet
387 829 m 0
 387 832.333 386.667 835.167 386 837.5 c 128
 385.333 839.833 384.333 842.333 383 845 c 2
 375 862 l 2
 371 870.667 364 876.667 354 880 c 128
 344 883.333 335 882.333 327 877 c 2
 175 782 l 2
 166.333 777.333 162 770 162 760 c 0
 162 756 162.667 753 164 751 c 2
 170 739 l 2
 173.333 733 177.833 729.333 183.5 728 c 128
 189.167 726.667 195.333 727.333 202 730 c 2
 368 798 l 2
 374 800.667 378.667 804.833 382 810.5 c 128
 385.333 816.167 387 822.333 387 829 c 0
469 36 m 2
 469 56 l 2
 469 67.3333 465.333 76.1667 458 82.5 c 128
 450.667 88.8333 441.333 92 430 92 c 2
 178 92 l 1
 178 292 l 1
 389 292 l 2
 400.333 292 409.833 295.167 417.5 301.5 c 128
 425.167 307.833 429 316.667 429 328 c 2
 429 348 l 2
 429 359.333 425.167 368.167 417.5 374.5 c 128
 409.833 380.833 400.333 384 389 384 c 2
 178 384 l 1
 178 584 l 1
 416 584 l 2
 427.333 584 436.833 587.167 444.5 593.5 c 128
 452.167 599.833 456 608.667 456 620 c 2
 456 676 l 1
 75 676 l 1
 75 0 l 1
 430 0 l 2
 441.333 0 450.667 3.16667 458 9.5 c 128
 465.333 15.8333 469 24.6667 469 36 c 2
EndSplineSet
Fore
Refer: 73 180 S 1 0 0 1 71.4621 233.623 2
Refer: 59 69 N 1 0 0 1 0 0 3
EndChar

StartChar: Ecircumflex
Encoding: 349 202 93
Width: 523
VWidth: 0
Flags: HW
HStem: 0 121.55<166.175 467.763> 262.99 121.55<166.175 423.53> 541.45 121.55<166.175 448.973> 729.3 177.137
VStem: 44.625 121.55<121.55 262.99 384.54 541.45>
LayerCount: 2
Back
SplineSet
426 744 m 2
 433.333 754.667 432 764.667 422 774 c 2
 314 865 l 2
 304.667 873 295 877 285 877 c 2
 249 877 l 2
 239 877 229.333 873 220 865 c 2
 112 774 l 2
 102 764.667 100.667 754.667 108 744 c 2
 116 732 l 2
 119.333 726.667 124 723.667 130 723 c 128
 136 722.333 141.667 723.667 147 727 c 2
 267 804 l 1
 387 727 l 2
 392.333 723.667 398 722.333 404 723 c 128
 410 723.667 414.667 726.667 418 732 c 2
 426 744 l 2
469 36 m 2
 469 56 l 2
 469 67.3333 465.333 76.1667 458 82.5 c 128
 450.667 88.8333 441.333 92 430 92 c 2
 178 92 l 1
 178 292 l 1
 389 292 l 2
 400.333 292 409.833 295.167 417.5 301.5 c 128
 425.167 307.833 429 316.667 429 328 c 2
 429 348 l 2
 429 359.333 425.167 368.167 417.5 374.5 c 128
 409.833 380.833 400.333 384 389 384 c 2
 178 384 l 1
 178 584 l 1
 416 584 l 2
 427.333 584 436.833 587.167 444.5 593.5 c 128
 452.167 599.833 456 608.667 456 620 c 2
 456 676 l 1
 75 676 l 1
 75 0 l 1
 430 0 l 2
 441.333 0 450.667 3.16667 458 9.5 c 128
 465.333 15.8333 469 24.6667 469 36 c 2
EndSplineSet
Fore
Refer: 78 710 N 1 0 0 1 51.3587 230.218 2
Refer: 59 69 N 1 0 0 1 0 0 3
EndChar

StartChar: Edieresis
Encoding: 350 203 94
Width: 523
VWidth: 0
Flags: HW
HStem: 0 121.55<166.175 467.763> 262.99 121.55<166.175 423.53> 541.45 121.55<166.175 448.973> 729.3 123.713<116.918 204.383 306.978 394.443>
VStem: 44.625 121.55<121.55 262.99 384.54 541.45> 98.7946 123.711<747.424 834.889> 288.855 123.712<747.424 834.889>
LayerCount: 2
Back
SplineSet
405 777 m 2
 405 844 l 2
 405 852.667 402.333 860.333 397 867 c 128
 391.667 873.667 383.333 877 372 877 c 2
 343 877 l 2
 331.667 877 323.167 873.667 317.5 867 c 128
 311.833 860.333 309 852.667 309 844 c 2
 309 777 l 2
 309 765.667 312.833 757.333 320.5 752 c 128
 328.167 746.667 336 744 344 744 c 2
 369 744 l 2
 378.333 744 386.667 746.667 394 752 c 128
 401.333 757.333 405 765.667 405 777 c 2
224 777 m 2
 224 844 l 2
 224 852.667 221.333 860.333 216 867 c 128
 210.667 873.667 202.333 877 191 877 c 2
 162 877 l 2
 150.667 877 142.167 873.667 136.5 867 c 128
 130.833 860.333 128 852.667 128 844 c 2
 128 777 l 2
 128 765.667 131.833 757.333 139.5 752 c 128
 147.167 746.667 155 744 163 744 c 2
 188 744 l 2
 197.333 744 205.667 746.667 213 752 c 128
 220.333 757.333 224 765.667 224 777 c 2
469 36 m 2
 469 56 l 2
 469 67.3333 465.333 76.1667 458 82.5 c 128
 450.667 88.8333 441.333 92 430 92 c 2
 178 92 l 1
 178 292 l 1
 389 292 l 2
 400.333 292 409.833 295.167 417.5 301.5 c 128
 425.167 307.833 429 316.667 429 328 c 2
 429 348 l 2
 429 359.333 425.167 368.167 417.5 374.5 c 128
 409.833 380.833 400.333 384 389 384 c 2
 178 384 l 1
 178 584 l 1
 416 584 l 2
 427.333 584 436.833 587.167 444.5 593.5 c 128
 452.167 599.833 456 608.667 456 620 c 2
 456 676 l 1
 75 676 l 1
 75 0 l 1
 430 0 l 2
 441.333 0 450.667 3.16667 458 9.5 c 128
 465.333 15.8333 469 24.6667 469 36 c 2
EndSplineSet
Fore
Refer: 75 168 N 1 0 0 1 56.8047 190.359 2
Refer: 59 69 N 1 0 0 1 0 0 3
EndChar

StartChar: Igrave
Encoding: 351 204 95
Width: 221
VWidth: 0
Flags: HW
HStem: 0 17.85<173.091 294.641> 729.3 177.235
VStem: 77.3504 262.829 173.091 121.55<0 645.238>
LayerCount: 2
Back
SplineSet
249 760 m 0
 249 770 244.667 777.333 236 782 c 2
 84 877 l 2
 76 882.333 67 883.333 57 880 c 128
 47 876.667 40 870.667 36 862 c 2
 28 845 l 2
 26.6667 842.333 25.6667 839.833 25 837.5 c 128
 24.3333 835.167 24 832.333 24 829 c 0
 24 822.333 25.6667 816.167 29 810.5 c 128
 32.3333 804.833 37 800.667 43 798 c 2
 209 730 l 2
 215.667 727.333 221.833 726.667 227.5 728 c 128
 233.167 729.333 237.667 733 241 739 c 2
 247 751 l 2
 248.333 753 249 756 249 760 c 0
188 40 m 2
 188 636 l 2
 188 647.333 184.167 656.833 176.5 664.5 c 128
 168.833 672.167 159.333 676 148 676 c 2
 125 676 l 2
 113.667 676 104.167 672.167 96.5 664.5 c 128
 88.8333 656.833 85 647.333 85 636 c 2
 85 40 l 2
 85 28.6667 88.8333 19.1667 96.5 11.5 c 128
 104.167 3.83333 113.667 -7.94729e-08 125 0 c 2
 148 0 l 2
 159.333 0 168.833 3.83333 176.5 11.5 c 128
 184.167 19.1667 188 28.6667 188 40 c 2
EndSplineSet
Fore
Refer: 74 96 S 1 0 0 1 24.3101 233.623 2
Refer: 49 73 N 1 0 0 1 128.891 0 3
EndChar

StartChar: Iacute
Encoding: 352 205 96
Width: 221
VWidth: 0
Flags: HW
HStem: 0 17.85<44.2 165.75> 729.3 177.235
VStem: 26.2849 262.829 44.2 121.55<0 645.238>
LayerCount: 2
Back
SplineSet
249 829 m 0
 249 832.333 248.667 835.167 248 837.5 c 128
 247.333 839.833 246.333 842.333 245 845 c 2
 237 862 l 2
 233 870.667 226 876.667 216 880 c 128
 206 883.333 197 882.333 189 877 c 2
 37 782 l 2
 28.3333 777.333 24 770 24 760 c 0
 24 756 24.6667 753 26 751 c 2
 32 739 l 2
 35.3333 733 39.8333 729.333 45.5 728 c 128
 51.1667 726.667 57.3333 727.333 64 730 c 2
 230 798 l 2
 236 800.667 240.667 804.833 244 810.5 c 128
 247.333 816.167 249 822.333 249 829 c 0
188 40 m 2
 188 636 l 2
 188 647.333 184.167 656.833 176.5 664.5 c 128
 168.833 672.167 159.333 676 148 676 c 2
 125 676 l 2
 113.667 676 104.167 672.167 96.5 664.5 c 128
 88.8333 656.833 85 647.333 85 636 c 2
 85 40 l 2
 85 28.6667 88.8333 19.1667 96.5 11.5 c 128
 104.167 3.83333 113.667 -7.94729e-08 125 0 c 2
 148 0 l 2
 159.333 0 168.833 3.83333 176.5 11.5 c 128
 184.167 19.1667 188 28.6667 188 40 c 2
EndSplineSet
Fore
Refer: 73 180 S 1 0 0 1 -26.7554 233.623 2
Refer: 49 73 N 1 0 0 1 0 0 3
EndChar

StartChar: Icircumflex
Encoding: 353 206 97
Width: 221
VWidth: 0
Flags: HW
HStem: 0 17.85<44.2 165.75> 729.3 177.137
VStem: 44.2 121.55<0 645.238>
LayerCount: 2
Back
SplineSet
288.333 744 m 2
 291.666 749.333 293 754.667 292.333 760 c 128
 291.666 765.333 288.666 770 283.333 774 c 2
 175.333 865 l 2
 166 873 156.333 877 146.333 877 c 2
 110.333 877 l 2
 101 877 91.333 873 81.333 865 c 2
 -26.667 774 l 2
 -36.667 765.333 -37.667 755.333 -29.667 744 c 2
 -21.667 732 l 2
 -18.3337 726.667 -13.667 723.667 -7.66699 723 c 128
 -1.66699 722.333 3.99967 723.667 9.33301 727 c 2
 129.333 804 l 1
 249.333 727 l 2
 254.666 723.667 260.333 722.333 266.333 723 c 128
 272.333 723.667 277 726.667 280.333 732 c 2
 288.333 744 l 2
181.333 40 m 2
 181.333 636 l 2
 181.333 647.333 177.5 656.833 169.833 664.5 c 128
 162.166 672.167 152.666 676 141.333 676 c 2
 118.333 676 l 2
 107 676 97.4997 672.167 89.833 664.5 c 128
 82.1663 656.833 78.333 647.333 78.333 636 c 2
 78.333 40 l 2
 78.333 28.6667 82.1663 19.1667 89.833 11.5 c 128
 97.4997 3.83333 107 -7.94729e-08 118.333 0 c 2
 141.333 0 l 2
 152.666 0 162.166 3.83333 169.833 11.5 c 128
 177.5 19.1667 181.333 28.6667 181.333 40 c 2
EndSplineSet
Fore
Refer: 78 710 N 1 0 0 1 -68.9586 230.218 2
Refer: 49 73 N 1 0 0 1 0 0 3
EndChar

StartChar: Idieresis
Encoding: 354 207 98
Width: 221
VWidth: 0
Flags: HW
HStem: 0 17.85<44.2 165.75> 729.3 123.713<-25.4988 61.965 164.561 252.025>
VStem: -43.6225 123.711<747.424 834.889> 44.2 121.55<0 645.238> 146.437 123.712<747.424 834.889>
LayerCount: 2
Back
SplineSet
275 777 m 2
 275 844 l 2
 275 852.667 272.333 860.333 267 867 c 128
 261.667 873.667 253.333 877 242 877 c 2
 213 877 l 2
 201.667 877 193.167 873.667 187.5 867 c 128
 181.833 860.333 179 852.667 179 844 c 2
 179 777 l 2
 179 765.667 182.833 757.333 190.5 752 c 128
 198.167 746.667 206 744 214 744 c 2
 239 744 l 2
 248.333 744 256.667 746.667 264 752 c 128
 271.333 757.333 275 765.667 275 777 c 2
94 777 m 2
 94 844 l 2
 94 852.667 91.3333 860.333 86 867 c 128
 80.6667 873.667 72.3333 877 61 877 c 2
 32 877 l 2
 20.6667 877 12.1667 873.667 6.5 867 c 128
 0.833333 860.333 -2 852.667 -2 844 c 2
 -2 777 l 2
 -2 765.667 1.83333 757.333 9.5 752 c 128
 17.1667 746.667 25 744 33 744 c 2
 58 744 l 2
 67.3333 744 75.6667 746.667 83 752 c 128
 90.3333 757.333 94 765.667 94 777 c 2
188 40 m 2
 188 636 l 2
 188 647.333 184.167 656.833 176.5 664.5 c 128
 168.833 672.167 159.333 676 148 676 c 2
 125 676 l 2
 113.667 676 104.167 672.167 96.5 664.5 c 128
 88.8333 656.833 85 647.333 85 636 c 2
 85 40 l 2
 85 28.6667 88.8333 19.1667 96.5 11.5 c 128
 104.167 3.83333 113.667 -7.94729e-08 125 0 c 2
 148 0 l 2
 159.333 0 168.833 3.83333 176.5 11.5 c 128
 184.167 19.1667 188 28.6667 188 40 c 2
EndSplineSet
Fore
Refer: 75 168 S 1 0 0 1 -85.6129 190.359 2
Refer: 49 73 N 1 0 0 1 0 0 3
EndChar

StartChar: Ograve
Encoding: 355 210 99
Width: 572
VWidth: 0
Flags: HW
HStem: 0 121.55<163.173 394.005> 541.45 121.55<163.173 394.005> 729.3 177.235
VStem: 40.375 121.619<122.798 540.202> 58.5367 262.829 395.184 121.619<122.798 540.202>
LayerCount: 2
Back
SplineSet
413 760 m 0
 413 770 408.667 777.333 400 782 c 2
 248 877 l 2
 240 882.333 231 883.333 221 880 c 128
 211 876.667 204 870.667 200 862 c 2
 192 845 l 2
 190.667 842.333 189.667 839.833 189 837.5 c 128
 188.333 835.167 188 832.333 188 829 c 0
 188 822.333 189.667 816.167 193 810.5 c 128
 196.333 804.833 201 800.667 207 798 c 2
 373 730 l 2
 379.667 727.333 385.833 726.667 391.5 728 c 128
 397.167 729.333 401.667 733 405 739 c 2
 411 751 l 2
 412.333 753 413 756 413 760 c 0
527 125 m 2
 527 551 l 2
 527 568.333 523.667 584.5 517 599.5 c 128
 510.333 614.5 501.333 627.667 490 639 c 128
 478.667 650.333 465.5 659.333 450.5 666 c 128
 435.5 672.667 419.333 676 402 676 c 2
 200 676 l 2
 182.667 676 166.5 672.667 151.5 666 c 128
 136.5 659.333 123.333 650.333 112 639 c 128
 100.667 627.667 91.6667 614.5 85 599.5 c 128
 78.3333 584.5 75 568.333 75 551 c 2
 75 125 l 2
 75 107.667 78.3333 91.5 85 76.5 c 128
 91.6667 61.5 100.667 48.3333 112 37 c 128
 123.333 25.6667 136.5 16.6667 151.5 10 c 128
 166.5 3.33333 182.667 -7.94729e-08 200 0 c 2
 402 0 l 2
 419.333 0 435.5 3.33333 450.5 10 c 128
 465.5 16.6667 478.667 25.6667 490 37 c 128
 501.333 48.3333 510.333 61.5 517 76.5 c 128
 523.667 91.5 527 107.667 527 125 c 2
424 137 m 2
 424 124.333 419.667 113.667 411 105 c 128
 402.333 96.3333 391.667 92 379 92 c 2
 223 92 l 2
 210.333 92 199.667 96.3333 191 105 c 128
 182.333 113.667 178 124.333 178 137 c 2
 178 539 l 2
 178 551.667 182.333 562.333 191 571 c 128
 199.667 579.667 210.333 584 223 584 c 2
 379 584 l 2
 391.667 584 402.333 579.667 411 571 c 128
 419.667 562.333 424 551.667 424 539 c 2
 424 137 l 2
EndSplineSet
Fore
Refer: 74 96 N 1 0 0 1 5.49636 233.623 2
Refer: 38 79 N 1 0 0 1 0 0 3
EndChar

StartChar: Oacute
Encoding: 356 211 100
Width: 572
VWidth: 0
Flags: HW
HStem: 0 121.55<163.173 394.005> 541.45 121.55<163.173 394.005> 729.3 177.235
VStem: 40.375 121.619<122.798 540.202> 235.811 262.829 395.184 121.619<122.798 540.202>
LayerCount: 2
Back
SplineSet
413 829 m 0
 413 832.333 412.667 835.167 412 837.5 c 128
 411.333 839.833 410.333 842.333 409 845 c 2
 401 862 l 2
 397 870.667 390 876.667 380 880 c 128
 370 883.333 361 882.333 353 877 c 2
 201 782 l 2
 192.333 777.333 188 770 188 760 c 0
 188 756 188.667 753 190 751 c 2
 196 739 l 2
 199.333 733 203.833 729.333 209.5 728 c 128
 215.167 726.667 221.333 727.333 228 730 c 2
 394 798 l 2
 400 800.667 404.667 804.833 408 810.5 c 128
 411.333 816.167 413 822.333 413 829 c 0
527 125 m 2
 527 551 l 2
 527 568.333 523.667 584.5 517 599.5 c 128
 510.333 614.5 501.333 627.667 490 639 c 128
 478.667 650.333 465.5 659.333 450.5 666 c 128
 435.5 672.667 419.333 676 402 676 c 2
 200 676 l 2
 182.667 676 166.5 672.667 151.5 666 c 128
 136.5 659.333 123.333 650.333 112 639 c 128
 100.667 627.667 91.6667 614.5 85 599.5 c 128
 78.3333 584.5 75 568.333 75 551 c 2
 75 125 l 2
 75 107.667 78.3333 91.5 85 76.5 c 128
 91.6667 61.5 100.667 48.3333 112 37 c 128
 123.333 25.6667 136.5 16.6667 151.5 10 c 128
 166.5 3.33333 182.667 -7.94729e-08 200 0 c 2
 402 0 l 2
 419.333 0 435.5 3.33333 450.5 10 c 128
 465.5 16.6667 478.667 25.6667 490 37 c 128
 501.333 48.3333 510.333 61.5 517 76.5 c 128
 523.667 91.5 527 107.667 527 125 c 2
424 137 m 2
 424 124.333 419.667 113.667 411 105 c 128
 402.333 96.3333 391.667 92 379 92 c 2
 223 92 l 2
 210.333 92 199.667 96.3333 191 105 c 128
 182.333 113.667 178 124.333 178 137 c 2
 178 539 l 2
 178 551.667 182.333 562.333 191 571 c 128
 199.667 579.667 210.333 584 223 584 c 2
 379 584 l 2
 391.667 584 402.333 579.667 411 571 c 128
 419.667 562.333 424 551.667 424 539 c 2
 424 137 l 2
EndSplineSet
Fore
Refer: 73 180 N 1 0 0 1 182.771 233.623 2
Refer: 38 79 N 1 0 0 1 0 0 3
EndChar

StartChar: Ocircumflex
Encoding: 357 212 101
Width: 572
VWidth: 0
Flags: HW
HStem: 0 121.55<163.173 394.005> 541.45 121.55<163.173 394.005> 729.3 177.137
VStem: 40.375 121.619<122.798 540.202> 395.184 121.619<122.798 540.202>
LayerCount: 2
Back
SplineSet
460 744 m 2
 467.333 754.667 466 764.667 456 774 c 2
 348 865 l 2
 338.667 873 329 877 319 877 c 2
 283 877 l 2
 273 877 263.333 873 254 865 c 2
 146 774 l 2
 136 764.667 134.667 754.667 142 744 c 2
 150 732 l 2
 153.333 726.667 158 723.667 164 723 c 128
 170 722.333 175.667 723.667 181 727 c 2
 301 804 l 1
 421 727 l 2
 426.333 723.667 432 722.333 438 723 c 128
 444 723.667 448.667 726.667 452 732 c 2
 460 744 l 2
527 125 m 2
 527 551 l 2
 527 568.333 523.667 584.5 517 599.5 c 128
 510.333 614.5 501.333 627.667 490 639 c 128
 478.667 650.333 465.5 659.333 450.5 666 c 128
 435.5 672.667 419.333 676 402 676 c 2
 200 676 l 2
 182.667 676 166.5 672.667 151.5 666 c 128
 136.5 659.333 123.333 650.333 112 639 c 128
 100.667 627.667 91.6667 614.5 85 599.5 c 128
 78.3333 584.5 75 568.333 75 551 c 2
 75 125 l 2
 75 107.667 78.3333 91.5 85 76.5 c 128
 91.6667 61.5 100.667 48.3333 112 37 c 128
 123.333 25.6667 136.5 16.6667 151.5 10 c 128
 166.5 3.33333 182.667 -7.94729e-08 200 0 c 2
 402 0 l 2
 419.333 0 435.5 3.33333 450.5 10 c 128
 465.5 16.6667 478.667 25.6667 490 37 c 128
 501.333 48.3333 510.333 61.5 517 76.5 c 128
 523.667 91.5 527 107.667 527 125 c 2
424 137 m 2
 424 124.333 419.667 113.667 411 105 c 128
 402.333 96.3333 391.667 92 379 92 c 2
 223 92 l 2
 210.333 92 199.667 96.3333 191 105 c 128
 182.333 113.667 178 124.333 178 137 c 2
 178 539 l 2
 178 551.667 182.333 562.333 191 571 c 128
 199.667 579.667 210.333 584 223 584 c 2
 379 584 l 2
 391.667 584 402.333 579.667 411 571 c 128
 419.667 562.333 424 551.667 424 539 c 2
 424 137 l 2
EndSplineSet
Fore
Refer: 78 710 N 1 0 0 1 74.2679 230.218 2
Refer: 38 79 N 1 0 0 1 0 0 3
EndChar

StartChar: Odieresis
Encoding: 358 214 102
Width: 572
VWidth: 0
Flags: HW
HStem: 0 121.55<163.173 394.005> 541.45 121.55<163.173 394.005> 729.3 123.713<139.827 227.291 329.887 417.351>
VStem: 40.375 121.619<122.798 540.202> 121.703 123.711<747.424 834.889> 311.763 123.712<747.424 834.889> 395.184 121.619<122.798 540.202>
LayerCount: 2
Back
SplineSet
439 777 m 2
 439 844 l 2
 439 852.667 436.333 860.333 431 867 c 128
 425.667 873.667 417.333 877 406 877 c 2
 377 877 l 2
 365.667 877 357.167 873.667 351.5 867 c 128
 345.833 860.333 343 852.667 343 844 c 2
 343 777 l 2
 343 765.667 346.833 757.333 354.5 752 c 128
 362.167 746.667 370 744 378 744 c 2
 403 744 l 2
 412.333 744 420.667 746.667 428 752 c 128
 435.333 757.333 439 765.667 439 777 c 2
258 777 m 2
 258 844 l 2
 258 852.667 255.333 860.333 250 867 c 128
 244.667 873.667 236.333 877 225 877 c 2
 196 877 l 2
 184.667 877 176.167 873.667 170.5 867 c 128
 164.833 860.333 162 852.667 162 844 c 2
 162 777 l 2
 162 765.667 165.833 757.333 173.5 752 c 128
 181.167 746.667 189 744 197 744 c 2
 222 744 l 2
 231.333 744 239.667 746.667 247 752 c 128
 254.333 757.333 258 765.667 258 777 c 2
527 125 m 2
 527 551 l 2
 527 568.333 523.667 584.5 517 599.5 c 128
 510.333 614.5 501.333 627.667 490 639 c 128
 478.667 650.333 465.5 659.333 450.5 666 c 128
 435.5 672.667 419.333 676 402 676 c 2
 200 676 l 2
 182.667 676 166.5 672.667 151.5 666 c 128
 136.5 659.333 123.333 650.333 112 639 c 128
 100.667 627.667 91.6667 614.5 85 599.5 c 128
 78.3333 584.5 75 568.333 75 551 c 2
 75 125 l 2
 75 107.667 78.3333 91.5 85 76.5 c 128
 91.6667 61.5 100.667 48.3333 112 37 c 128
 123.333 25.6667 136.5 16.6667 151.5 10 c 128
 166.5 3.33333 182.667 -7.94729e-08 200 0 c 2
 402 0 l 2
 419.333 0 435.5 3.33333 450.5 10 c 128
 465.5 16.6667 478.667 25.6667 490 37 c 128
 501.333 48.3333 510.333 61.5 517 76.5 c 128
 523.667 91.5 527 107.667 527 125 c 2
424 137 m 2
 424 124.333 419.667 113.667 411 105 c 128
 402.333 96.3333 391.667 92 379 92 c 2
 223 92 l 2
 210.333 92 199.667 96.3333 191 105 c 128
 182.333 113.667 178 124.333 178 137 c 2
 178 539 l 2
 178 551.667 182.333 562.333 191 571 c 128
 199.667 579.667 210.333 584 223 584 c 2
 379 584 l 2
 391.667 584 402.333 579.667 411 571 c 128
 419.667 562.333 424 551.667 424 539 c 2
 424 137 l 2
EndSplineSet
Fore
Refer: 75 168 N 1 0 0 1 79.713 190.359 2
Refer: 38 79 N 1 0 0 1 0 0 3
EndChar

StartChar: Ugrave
Encoding: 359 217 103
Width: 544
VWidth: 0
Flags: HW
HStem: 0 121.654<324.345 525.49> 734.136 177.235
VStem: 202.795 121.55<121.658 651.703> 275.825 262.829 525.49 121.55<121.658 646.615>
LayerCount: 2
Back
SplineSet
405 760 m 0
 405 770 400.667 777.333 392 782 c 2
 240 877 l 2
 232 882.333 223 883.333 213 880 c 128
 203 876.667 196 870.667 192 862 c 2
 184 845 l 2
 182.667 842.333 181.667 839.833 181 837.5 c 128
 180.333 835.167 180 832.333 180 829 c 0
 180 822.333 181.667 816.167 185 810.5 c 128
 188.333 804.833 193 800.667 199 798 c 2
 365 730 l 2
 371.667 727.333 377.833 726.667 383.5 728 c 128
 389.167 729.333 393.667 733 397 739 c 2
 403 751 l 2
 404.333 753 405 756 405 760 c 0
511 37 m 2
 511 636 l 2
 511 647.333 507.167 656.833 499.5 664.5 c 128
 491.833 672.167 482.333 676 471 676 c 2
 448 676 l 2
 436.667 676 427.167 672.167 419.5 664.5 c 128
 411.833 656.833 408 647.333 408 636 c 2
 408 137 l 2
 408 124.333 403.667 113.667 395 105 c 128
 386.333 96.3333 375.667 92 363 92 c 2
 223 92 l 2
 210.333 92 199.667 96.3333 191 105 c 128
 182.333 113.667 178 124.333 178 137 c 2
 178 636 l 2
 178 647.333 174.167 656.833 166.5 664.5 c 128
 158.833 672.167 149.333 676 138 676 c 2
 115 676 l 2
 103.667 676 94.1667 672.167 86.5 664.5 c 128
 78.8333 656.833 75 647.333 75 636 c 2
 75 130 l 2
 75 91.3333 86.5 59.5 109.5 34.5 c 128
 132.5 9.5 168.667 -3 218 -3 c 2
 255 -3 l 2
 272.333 -3 288.333 -0.5 303 4.5 c 128
 317.667 9.5 331.333 15.1667 344 21.5 c 128
 363 31 363 31 377 38.5 c 128
 386.333 43.5 394 46 400 46 c 256
 406 46 410.667 43.3333 414 38 c 2
 440 0 l 1
 475 0 l 2
 488.333 0 497.667 4.33333 503 13 c 128
 508.333 21.6667 511 29.6667 511 37 c 2
EndSplineSet
Fore
Refer: 74 96 S 1 0 0 1 222.785 238.458 2
Refer: 47 85 N 1 0 0 1 159.02 0 3
EndChar

StartChar: Uacute
Encoding: 360 218 104
Width: 544
VWidth: 0
Flags: HW
HStem: 0 121.654<165.325 366.47> 734.136 177.235
VStem: 43.775 121.55<121.658 651.703> 161.48 262.829 366.47 121.55<121.658 646.615>
LayerCount: 2
Back
SplineSet
405 829 m 0
 405 832.333 404.667 835.167 404 837.5 c 128
 403.333 839.833 402.333 842.333 401 845 c 2
 393 862 l 2
 389 870.667 382 876.667 372 880 c 128
 362 883.333 353 882.333 345 877 c 2
 193 782 l 2
 184.333 777.333 180 770 180 760 c 0
 180 756 180.667 753 182 751 c 2
 188 739 l 2
 191.333 733 195.833 729.333 201.5 728 c 128
 207.167 726.667 213.333 727.333 220 730 c 2
 386 798 l 2
 392 800.667 396.667 804.833 400 810.5 c 128
 403.333 816.167 405 822.333 405 829 c 0
511 37 m 2
 511 636 l 2
 511 647.333 507.167 656.833 499.5 664.5 c 128
 491.833 672.167 482.333 676 471 676 c 2
 448 676 l 2
 436.667 676 427.167 672.167 419.5 664.5 c 128
 411.833 656.833 408 647.333 408 636 c 2
 408 137 l 2
 408 124.333 403.667 113.667 395 105 c 128
 386.333 96.3333 375.667 92 363 92 c 2
 223 92 l 2
 210.333 92 199.667 96.3333 191 105 c 128
 182.333 113.667 178 124.333 178 137 c 2
 178 636 l 2
 178 647.333 174.167 656.833 166.5 664.5 c 128
 158.833 672.167 149.333 676 138 676 c 2
 115 676 l 2
 103.667 676 94.1667 672.167 86.5 664.5 c 128
 78.8333 656.833 75 647.333 75 636 c 2
 75 130 l 2
 75 91.3333 86.5 59.5 109.5 34.5 c 128
 132.5 9.5 168.667 -3 218 -3 c 2
 255 -3 l 2
 272.333 -3 288.333 -0.5 303 4.5 c 128
 317.667 9.5 331.333 15.1667 344 21.5 c 128
 363 31 363 31 377 38.5 c 128
 386.333 43.5 394 46 400 46 c 256
 406 46 410.667 43.3333 414 38 c 2
 440 0 l 1
 475 0 l 2
 488.333 0 497.667 4.33333 503 13 c 128
 508.333 21.6667 511 29.6667 511 37 c 2
EndSplineSet
Fore
Refer: 73 180 S 1 0 0 1 108.44 238.458 2
Refer: 47 85 N 1 0 0 1 0 0 3
EndChar

StartChar: Ucircumflex
Encoding: 361 219 105
Width: 544
VWidth: 0
Flags: HW
HStem: 0 121.654<165.325 366.47> 734.135 177.137
VStem: 43.775 121.55<121.658 651.703> 366.47 121.55<121.658 646.615>
LayerCount: 2
Back
SplineSet
452 744 m 2
 459.333 754.667 458 764.667 448 774 c 2
 340 865 l 2
 330.667 873 321 877 311 877 c 2
 275 877 l 2
 265 877 255.333 873 246 865 c 2
 138 774 l 2
 128 764.667 126.667 754.667 134 744 c 2
 142 732 l 2
 145.333 726.667 150 723.667 156 723 c 128
 162 722.333 167.667 723.667 173 727 c 2
 293 804 l 1
 413 727 l 2
 418.333 723.667 424 722.333 430 723 c 128
 436 723.667 440.667 726.667 444 732 c 2
 452 744 l 2
511 37 m 2
 511 636 l 2
 511 647.333 507.167 656.833 499.5 664.5 c 128
 491.833 672.167 482.333 676 471 676 c 2
 448 676 l 2
 436.667 676 427.167 672.167 419.5 664.5 c 128
 411.833 656.833 408 647.333 408 636 c 2
 408 137 l 2
 408 124.333 403.667 113.667 395 105 c 128
 386.333 96.3333 375.667 92 363 92 c 2
 223 92 l 2
 210.333 92 199.667 96.3333 191 105 c 128
 182.333 113.667 178 124.333 178 137 c 2
 178 636 l 2
 178 647.333 174.167 656.833 166.5 664.5 c 128
 158.833 672.167 149.333 676 138 676 c 2
 115 676 l 2
 103.667 676 94.1667 672.167 86.5 664.5 c 128
 78.8333 656.833 75 647.333 75 636 c 2
 75 130 l 2
 75 91.3333 86.5 59.5 109.5 34.5 c 128
 132.5 9.5 168.667 -3 218 -3 c 2
 255 -3 l 2
 272.333 -3 288.333 -0.5 303 4.5 c 128
 317.667 9.5 331.333 15.1667 344 21.5 c 128
 363 31 363 31 377 38.5 c 128
 386.333 43.5 394 46 400 46 c 256
 406 46 410.667 43.3333 414 38 c 2
 440 0 l 1
 475 0 l 2
 488.333 0 497.667 4.33333 503 13 c 128
 508.333 21.6667 511 29.6667 511 37 c 2
EndSplineSet
Fore
Refer: 78 710 S 1 0 0 1 56.2918 235.053 2
Refer: 47 85 N 1 0 0 1 0 0 3
EndChar

StartChar: Udieresis
Encoding: 362 220 106
Width: 544
VWidth: 0
Flags: HW
HStem: 0 121.654<165.325 366.47> 734.136 123.713<131.795 219.259 321.855 409.319>
VStem: 43.775 121.55<121.658 651.703> 113.671 123.711<752.259 839.724> 303.731 123.712<752.259 839.724> 366.47 121.55<121.658 646.615>
LayerCount: 2
Back
SplineSet
431 777 m 2
 431 844 l 2
 431 852.667 428.333 860.333 423 867 c 128
 417.667 873.667 409.333 877 398 877 c 2
 369 877 l 2
 357.667 877 349.167 873.667 343.5 867 c 128
 337.833 860.333 335 852.667 335 844 c 2
 335 777 l 2
 335 765.667 338.833 757.333 346.5 752 c 128
 354.167 746.667 362 744 370 744 c 2
 395 744 l 2
 404.333 744 412.667 746.667 420 752 c 128
 427.333 757.333 431 765.667 431 777 c 2
250 777 m 2
 250 844 l 2
 250 852.667 247.333 860.333 242 867 c 128
 236.667 873.667 228.333 877 217 877 c 2
 188 877 l 2
 176.667 877 168.167 873.667 162.5 867 c 128
 156.833 860.333 154 852.667 154 844 c 2
 154 777 l 2
 154 765.667 157.833 757.333 165.5 752 c 128
 173.167 746.667 181 744 189 744 c 2
 214 744 l 2
 223.333 744 231.667 746.667 239 752 c 128
 246.333 757.333 250 765.667 250 777 c 2
511 37 m 2
 511 636 l 2
 511 647.333 507.167 656.833 499.5 664.5 c 128
 491.833 672.167 482.333 676 471 676 c 2
 448 676 l 2
 436.667 676 427.167 672.167 419.5 664.5 c 128
 411.833 656.833 408 647.333 408 636 c 2
 408 137 l 2
 408 124.333 403.667 113.667 395 105 c 128
 386.333 96.3333 375.667 92 363 92 c 2
 223 92 l 2
 210.333 92 199.667 96.3333 191 105 c 128
 182.333 113.667 178 124.333 178 137 c 2
 178 636 l 2
 178 647.333 174.167 656.833 166.5 664.5 c 128
 158.833 672.167 149.333 676 138 676 c 2
 115 676 l 2
 103.667 676 94.1667 672.167 86.5 664.5 c 128
 78.8333 656.833 75 647.333 75 636 c 2
 75 130 l 2
 75 91.3333 86.5 59.5 109.5 34.5 c 128
 132.5 9.5 168.667 -3 218 -3 c 2
 255 -3 l 2
 272.333 -3 288.333 -0.5 303 4.5 c 128
 317.667 9.5 331.333 15.1667 344 21.5 c 128
 363 31 363 31 377 38.5 c 128
 386.333 43.5 394 46 400 46 c 256
 406 46 410.667 43.3333 414 38 c 2
 440 0 l 1
 475 0 l 2
 488.333 0 497.667 4.33333 503 13 c 128
 508.333 21.6667 511 29.6667 511 37 c 2
EndSplineSet
Fore
Refer: 75 168 S 1 0 0 1 71.6814 195.195 2
Refer: 47 85 N 1 0 0 1 0 0 3
EndChar

StartChar: Yacute
Encoding: 363 221 107
Width: 603
VWidth: 0
Flags: HW
HStem: 0 17.85<192.943 314.493> 739.596 177.235
VStem: 167.17 262.829 192.943 121.55<0 287.162>
LayerCount: 2
Back
SplineSet
372 828 m 0
 372 831.333 371.667 834.167 371 836.5 c 128
 370.333 838.833 369.333 841.333 368 844 c 2
 360 861 l 2
 356 869.667 349 875.667 339 879 c 128
 329 882.333 320 881.333 312 876 c 2
 160 781 l 2
 151.333 776.333 147 769 147 759 c 0
 147 755 147.667 752 149 750 c 2
 155 738 l 2
 158.333 732 162.833 728.333 168.5 727 c 128
 174.167 725.667 180.333 726.333 187 729 c 2
 353 797 l 2
 359 799.667 363.667 803.833 367 809.5 c 128
 370.333 815.167 372 821.333 372 828 c 0
495 629 m 0
 495 635 493.667 640.833 491 646.5 c 128
 488.333 652.167 484.333 656.667 479 660 c 2
 460 673 l 2
 452 678.333 442.667 680.167 432 678.5 c 128
 421.333 676.833 413 671.667 407 663 c 2
 252 440 l 1
 98 663 l 2
 92 671.667 83.6667 676.833 73 678.5 c 128
 62.3333 680.167 53 678.333 45 673 c 2
 26 660 l 2
 20.6667 656.667 16.6667 652.167 14 646.5 c 128
 11.3333 640.833 10 635 10 629 c 0
 10 621.667 12.3333 614.333 17 607 c 2
 201 339 l 1
 201 40 l 2
 201 28.6667 204.833 19.1667 212.5 11.5 c 128
 220.167 3.83333 229.667 -7.94729e-08 241 0 c 2
 264 0 l 2
 275.333 0 284.833 3.83333 292.5 11.5 c 128
 300.167 19.1667 304 28.6667 304 40 c 2
 304 339 l 1
 488 607 l 2
 492.667 614.333 495 621.667 495 629 c 0
EndSplineSet
Fore
Refer: 73 180 S 1 0 0 1 114.13 243.919 2
Refer: 55 89 N 1 0 0 1 0 0 3
EndChar

StartChar: agrave
Encoding: 364 224 108
Width: 486
VWidth: 0
Flags: HW
HStem: -6.11934 125.047<144.415 219.206> 185.862 110.514<144.415 239.635> 342.55 121.55<133.747 329.962> 530.4 177.235
VStem: 22.8653 121.55<118.928 185.862> 85.6928 262.829 332.265 121.55<0 41.6101 118.928 185.862 259.606 340.247>
LayerCount: 2
Back
SplineSet
371 558 m 0
 371 568 366.667 575.333 358 580 c 2
 206 675 l 2
 198 680.333 189 681.333 179 678 c 128
 169 674.667 162 668.667 158 660 c 2
 150 643 l 2
 148.667 640.333 147.667 637.833 147 635.5 c 128
 146.333 633.167 146 630.333 146 627 c 0
 146 620.333 147.667 614.167 151 608.5 c 128
 154.333 602.833 159 598.667 165 596 c 2
 331 528 l 2
 337.667 525.333 343.833 524.667 349.5 526 c 128
 355.167 527.333 359.667 531 363 537 c 2
 369 549 l 2
 370.333 551 371 554 371 558 c 0
457 37 m 2
 457 358 l 2
 457 373.333 454.667 388 450 402 c 128
 445.333 416 437.833 428.333 427.5 439 c 128
 417.167 449.667 403.833 458.167 387.5 464.5 c 128
 371.167 470.833 351.667 474 329 474 c 2
 132 474 l 2
 121.333 474 112.167 471.333 104.5 466 c 128
 96.8333 460.667 93 453 93 443 c 2
 93 382 l 1
 315 382 l 2
 326.333 382 335.667 377.833 343 369.5 c 128
 350.333 361.167 354 352.333 354 343 c 2
 354 269 l 2
 354 261 351 257 345 257 c 256
 339 257 331.333 259.5 322 264.5 c 128
 308 272 308 272 289.5 281.5 c 128
 277.167 287.833 263.667 293.5 249 298.5 c 128
 234.333 303.5 218.333 306 201 306 c 2
 186 306 l 2
 136.667 306 100.5 293.333 77.5 268 c 128
 54.5 242.667 43 210.667 43 172 c 2
 43 131 l 2
 43 92.3333 54.5 60.3333 77.5 35 c 128
 100.5 9.66667 136.667 -3 186 -3 c 2
 201 -3 l 2
 218.333 -3 234.333 -0.5 249 4.5 c 128
 263.667 9.5 277.167 14.8333 289.5 20.5 c 128
 301.833 26.1667 312.667 31.5 322 36.5 c 128
 331.333 41.5 339 44 345 44 c 0
 348.333 44 351.5 43.5 354.5 42.5 c 128
 357.5 41.5 360.333 39 363 35 c 2
 387 0 l 1
 421 0 l 2
 434.333 0 443.667 4.33333 449 13 c 128
 454.333 21.6667 457 29.6667 457 37 c 2
354 137 m 2
 354 124.333 349.667 113.667 341 105 c 128
 332.333 96.3333 321.667 92 309 92 c 2
 191 92 l 2
 178.333 92 167.667 96.3333 159 105 c 128
 150.333 113.667 146 124.333 146 137 c 2
 146 166 l 2
 146 178.667 150.333 189.333 159 198 c 128
 167.667 206.667 178.333 211 191 211 c 2
 309 211 l 2
 321.667 211 332.333 206.667 341 198 c 128
 349.667 189.333 354 178.667 354 166 c 2
 354 137 l 2
EndSplineSet
Fore
Refer: 74 96 S 1 0 0 1 32.6525 34.7224 2
Refer: 3 97 N 1 0 0 1 0 0 3
EndChar

StartChar: aacute
Encoding: 365 225 109
Width: 486
VWidth: 0
Flags: HW
HStem: -6.11934 125.047<144.415 219.206> 185.862 110.514<144.415 239.635> 342.55 121.55<133.747 329.962> 530.4 177.235
VStem: 22.8653 121.55<118.928 185.862> 182.302 262.829 332.265 121.55<0 41.6101 118.928 185.862 259.606 340.247>
LayerCount: 2
Back
SplineSet
391 627 m 0
 391 630.333 390.667 633.167 390 635.5 c 128
 389.333 637.833 388.333 640.333 387 643 c 2
 379 660 l 2
 375 668.667 368 674.667 358 678 c 128
 348 681.333 339 680.333 331 675 c 2
 179 580 l 2
 170.333 575.333 166 568 166 558 c 0
 166 554 166.667 551 168 549 c 2
 174 537 l 2
 177.333 531 181.833 527.333 187.5 526 c 128
 193.167 524.667 199.333 525.333 206 528 c 2
 372 596 l 2
 378 598.667 382.667 602.833 386 608.5 c 128
 389.333 614.167 391 620.333 391 627 c 0
457 37 m 2
 457 358 l 2
 457 373.333 454.667 388 450 402 c 128
 445.333 416 437.833 428.333 427.5 439 c 128
 417.167 449.667 403.833 458.167 387.5 464.5 c 128
 371.167 470.833 351.667 474 329 474 c 2
 132 474 l 2
 121.333 474 112.167 471.333 104.5 466 c 128
 96.8333 460.667 93 453 93 443 c 2
 93 382 l 1
 315 382 l 2
 326.333 382 335.667 377.833 343 369.5 c 128
 350.333 361.167 354 352.333 354 343 c 2
 354 269 l 2
 354 261 351 257 345 257 c 256
 339 257 331.333 259.5 322 264.5 c 128
 308 272 308 272 289.5 281.5 c 128
 277.167 287.833 263.667 293.5 249 298.5 c 128
 234.333 303.5 218.333 306 201 306 c 2
 186 306 l 2
 136.667 306 100.5 293.333 77.5 268 c 128
 54.5 242.667 43 210.667 43 172 c 2
 43 131 l 2
 43 92.3333 54.5 60.3333 77.5 35 c 128
 100.5 9.66667 136.667 -3 186 -3 c 2
 201 -3 l 2
 218.333 -3 234.333 -0.5 249 4.5 c 128
 263.667 9.5 277.167 14.8333 289.5 20.5 c 128
 301.833 26.1667 312.667 31.5 322 36.5 c 128
 331.333 41.5 339 44 345 44 c 0
 348.333 44 351.5 43.5 354.5 42.5 c 128
 357.5 41.5 360.333 39 363 35 c 2
 387 0 l 1
 421 0 l 2
 434.333 0 443.667 4.33333 449 13 c 128
 454.333 21.6667 457 29.6667 457 37 c 2
354 137 m 2
 354 124.333 349.667 113.667 341 105 c 128
 332.333 96.3333 321.667 92 309 92 c 2
 191 92 l 2
 178.333 92 167.667 96.3333 159 105 c 128
 150.333 113.667 146 124.333 146 137 c 2
 146 166 l 2
 146 178.667 150.333 189.333 159 198 c 128
 167.667 206.667 178.333 211 191 211 c 2
 309 211 l 2
 321.667 211 332.333 206.667 341 198 c 128
 349.667 189.333 354 178.667 354 166 c 2
 354 137 l 2
EndSplineSet
Fore
Refer: 73 180 S 1 0 0 1 129.262 34.7224 2
Refer: 3 97 N 1 0 0 1 0 0 3
EndChar

StartChar: acircumflex
Encoding: 366 226 110
Width: 486
VWidth: 0
Flags: HW
HStem: -6.11934 125.047<144.415 219.206> 185.862 110.514<144.415 239.635> 342.55 121.55<133.747 329.962> 530.4 177.137
VStem: 22.8653 121.55<118.928 185.862> 332.265 121.55<0 41.6101 118.928 185.862 259.606 340.247>
LayerCount: 2
Back
SplineSet
418 543 m 2
 425.333 553.667 424 563.667 414 573 c 2
 306 664 l 2
 296.667 672 287 676 277 676 c 2
 241 676 l 2
 231 676 221.333 672 212 664 c 2
 104 573 l 2
 94 563.667 92.6667 553.667 100 543 c 2
 108 531 l 2
 111.333 525.667 116 522.667 122 522 c 128
 128 521.333 133.667 522.667 139 526 c 2
 259 603 l 1
 379 526 l 2
 384.333 522.667 390 521.333 396 522 c 128
 402 522.667 406.667 525.667 410 531 c 2
 418 543 l 2
457 37 m 2
 457 358 l 2
 457 373.333 454.667 388 450 402 c 128
 445.333 416 437.833 428.333 427.5 439 c 128
 417.167 449.667 403.833 458.167 387.5 464.5 c 128
 371.167 470.833 351.667 474 329 474 c 2
 132 474 l 2
 121.333 474 112.167 471.333 104.5 466 c 128
 96.8333 460.667 93 453 93 443 c 2
 93 382 l 1
 315 382 l 2
 326.333 382 335.667 377.833 343 369.5 c 128
 350.333 361.167 354 352.333 354 343 c 2
 354 269 l 2
 354 261 351 257 345 257 c 256
 339 257 331.333 259.5 322 264.5 c 128
 308 272 308 272 289.5 281.5 c 128
 277.167 287.833 263.667 293.5 249 298.5 c 128
 234.333 303.5 218.333 306 201 306 c 2
 186 306 l 2
 136.667 306 100.5 293.333 77.5 268 c 128
 54.5 242.667 43 210.667 43 172 c 2
 43 131 l 2
 43 92.3333 54.5 60.3333 77.5 35 c 128
 100.5 9.66667 136.667 -3 186 -3 c 2
 201 -3 l 2
 218.333 -3 234.333 -0.5 249 4.5 c 128
 263.667 9.5 277.167 14.8333 289.5 20.5 c 128
 301.833 26.1667 312.667 31.5 322 36.5 c 128
 331.333 41.5 339 44 345 44 c 0
 348.333 44 351.5 43.5 354.5 42.5 c 128
 357.5 41.5 360.333 39 363 35 c 2
 387 0 l 1
 421 0 l 2
 434.333 0 443.667 4.33333 449 13 c 128
 454.333 21.6667 457 29.6667 457 37 c 2
354 137 m 2
 354 124.333 349.667 113.667 341 105 c 128
 332.333 96.3333 321.667 92 309 92 c 2
 191 92 l 2
 178.333 92 167.667 96.3333 159 105 c 128
 150.333 113.667 146 124.333 146 137 c 2
 146 166 l 2
 146 178.667 150.333 189.333 159 198 c 128
 167.667 206.667 178.333 211 191 211 c 2
 309 211 l 2
 321.667 211 332.333 206.667 341 198 c 128
 349.667 189.333 354 178.667 354 166 c 2
 354 137 l 2
EndSplineSet
Fore
Refer: 78 710 S 1 0 0 1 56.1189 31.3179 2
Refer: 3 97 N 1 0 0 1 0 0 3
EndChar

StartChar: adieresis
Encoding: 367 228 111
Width: 486
VWidth: 0
Flags: HW
HStem: -6.11934 125.047<144.415 219.206> 185.862 110.514<144.415 239.635> 342.55 121.55<133.747 329.962> 530.4 123.713<121.678 209.143 311.738 399.203>
VStem: 22.8653 121.55<118.928 185.862> 103.555 123.711<548.524 635.989> 293.615 123.712<548.524 635.989> 332.265 121.55<0 41.6101 118.928 185.862 259.606 340.247>
LayerCount: 2
Back
SplineSet
397 576 m 2
 397 643 l 2
 397 651.667 394.333 659.333 389 666 c 128
 383.667 672.667 375.333 676 364 676 c 2
 335 676 l 2
 323.667 676 315.167 672.667 309.5 666 c 128
 303.833 659.333 301 651.667 301 643 c 2
 301 576 l 2
 301 564.667 304.833 556.333 312.5 551 c 128
 320.167 545.667 328 543 336 543 c 2
 361 543 l 2
 370.333 543 378.667 545.667 386 551 c 128
 393.333 556.333 397 564.667 397 576 c 2
216 576 m 2
 216 643 l 2
 216 651.667 213.333 659.333 208 666 c 128
 202.667 672.667 194.333 676 183 676 c 2
 154 676 l 2
 142.667 676 134.167 672.667 128.5 666 c 128
 122.833 659.333 120 651.667 120 643 c 2
 120 576 l 2
 120 564.667 123.833 556.333 131.5 551 c 128
 139.167 545.667 147 543 155 543 c 2
 180 543 l 2
 189.333 543 197.667 545.667 205 551 c 128
 212.333 556.333 216 564.667 216 576 c 2
457 37 m 2
 457 358 l 2
 457 373.333 454.667 388 450 402 c 128
 445.333 416 437.833 428.333 427.5 439 c 128
 417.167 449.667 403.833 458.167 387.5 464.5 c 128
 371.167 470.833 351.667 474 329 474 c 2
 132 474 l 2
 121.333 474 112.167 471.333 104.5 466 c 128
 96.8333 460.667 93 453 93 443 c 2
 93 382 l 1
 315 382 l 2
 326.333 382 335.667 377.833 343 369.5 c 128
 350.333 361.167 354 352.333 354 343 c 2
 354 269 l 2
 354 261 351 257 345 257 c 256
 339 257 331.333 259.5 322 264.5 c 128
 308 272 308 272 289.5 281.5 c 128
 277.167 287.833 263.667 293.5 249 298.5 c 128
 234.333 303.5 218.333 306 201 306 c 2
 186 306 l 2
 136.667 306 100.5 293.333 77.5 268 c 128
 54.5 242.667 43 210.667 43 172 c 2
 43 131 l 2
 43 92.3333 54.5 60.3333 77.5 35 c 128
 100.5 9.66667 136.667 -3 186 -3 c 2
 201 -3 l 2
 218.333 -3 234.333 -0.5 249 4.5 c 128
 263.667 9.5 277.167 14.8333 289.5 20.5 c 128
 301.833 26.1667 312.667 31.5 322 36.5 c 128
 331.333 41.5 339 44 345 44 c 0
 348.333 44 351.5 43.5 354.5 42.5 c 128
 357.5 41.5 360.333 39 363 35 c 2
 387 0 l 1
 421 0 l 2
 434.333 0 443.667 4.33333 449 13 c 128
 454.333 21.6667 457 29.6667 457 37 c 2
354 137 m 2
 354 124.333 349.667 113.667 341 105 c 128
 332.333 96.3333 321.667 92 309 92 c 2
 191 92 l 2
 178.333 92 167.667 96.3333 159 105 c 128
 150.333 113.667 146 124.333 146 137 c 2
 146 166 l 2
 146 178.667 150.333 189.333 159 198 c 128
 167.667 206.667 178.333 211 191 211 c 2
 309 211 l 2
 321.667 211 332.333 206.667 341 198 c 128
 349.667 189.333 354 178.667 354 166 c 2
 354 137 l 2
EndSplineSet
Fore
Refer: 75 168 S 1 0 0 1 61.5643 -8.54055 2
Refer: 3 97 N 1 0 0 1 0 0 3
EndChar

StartChar: aring
Encoding: 368 229 112
Width: 486
VWidth: 0
Flags: HW
HStem: -6.11934 125.047<144.415 219.206> 185.862 110.514<144.415 239.635> 342.55 121.55<133.747 329.962> 530.4 48.172<237.43 305.538> 663.94 48.1711<237.43 305.538>
VStem: 22.8653 121.55<118.928 185.862> 180.636 48.1711<587.21 655.317> 314.175 48.1694<587.21 655.317> 332.265 121.55<0 41.6101 118.928 185.862 259.606 340.247>
LayerCount: 2
Back
SplineSet
365 567 m 2
 365 610 l 2
 365 626.667 358.333 641.833 345 655.5 c 128
 331.667 669.167 315.333 676 296 676 c 2
 221 676 l 2
 211 676 201.833 674.167 193.5 670.5 c 128
 185.167 666.833 177.833 661.833 171.5 655.5 c 128
 165.167 649.167 160.167 642 156.5 634 c 128
 152.833 626 151 618 151 610 c 2
 151 567 l 2
 151 549.667 158 534.333 172 521 c 128
 186 507.667 202.667 501 222 501 c 2
 295 501 l 2
 314.333 501 330.833 507.667 344.5 521 c 128
 358.167 534.333 365 549.667 365 567 c 2
457 37 m 2
 457 358 l 2
 457 373.333 454.667 388 450 402 c 128
 445.333 416 437.833 428.333 427.5 439 c 128
 417.167 449.667 403.833 458.167 387.5 464.5 c 128
 371.167 470.833 351.667 474 329 474 c 2
 132 474 l 2
 121.333 474 112.167 471.333 104.5 466 c 128
 96.8333 460.667 93 453 93 443 c 2
 93 382 l 1
 315 382 l 2
 326.333 382 335.667 377.833 343 369.5 c 128
 350.333 361.167 354 352.333 354 343 c 2
 354 269 l 2
 354 261 351 257 345 257 c 256
 339 257 331.333 259.5 322 264.5 c 128
 308 272 308 272 289.5 281.5 c 128
 277.167 287.833 263.667 293.5 249 298.5 c 128
 234.333 303.5 218.333 306 201 306 c 2
 186 306 l 2
 136.667 306 100.5 293.333 77.5 268 c 128
 54.5 242.667 43 210.667 43 172 c 2
 43 131 l 2
 43 92.3333 54.5 60.3333 77.5 35 c 128
 100.5 9.66667 136.667 -3 186 -3 c 2
 201 -3 l 2
 218.333 -3 234.333 -0.5 249 4.5 c 128
 263.667 9.5 277.167 14.8333 289.5 20.5 c 128
 301.833 26.1667 312.667 31.5 322 36.5 c 128
 331.333 41.5 339 44 345 44 c 0
 348.333 44 351.5 43.5 354.5 42.5 c 128
 357.5 41.5 360.333 39 363 35 c 2
 387 0 l 1
 421 0 l 2
 434.333 0 443.667 4.33333 449 13 c 128
 454.333 21.6667 457 29.6667 457 37 c 2
306 581 m 2
 306 573.667 303.5 567.667 298.5 563 c 128
 293.5 558.333 287.667 556 281 556 c 2
 236 556 l 2
 229.333 556 223.333 558.333 218 563 c 128
 212.667 567.667 210 573.667 210 581 c 2
 210 596 l 2
 210 604.667 212.667 611 218 615 c 128
 223.333 619 229.333 621 236 621 c 2
 281 621 l 2
 287.667 621 293.5 619 298.5 615 c 128
 303.5 611 306 604.667 306 596 c 2
 306 581 l 2
354 137 m 2
 354 124.333 349.667 113.667 341 105 c 128
 332.333 96.3333 321.667 92 309 92 c 2
 191 92 l 2
 178.333 92 167.667 96.3333 159 105 c 128
 150.333 113.667 146 124.333 146 137 c 2
 146 166 l 2
 146 178.667 150.333 189.333 159 198 c 128
 167.667 206.667 178.333 211 191 211 c 2
 309 211 l 2
 321.667 211 332.333 206.667 341 198 c 128
 349.667 189.333 354 178.667 354 166 c 2
 354 137 l 2
EndSplineSet
Fore
Refer: 79 730 S 1 0 0 1 92.2361 27.5907 2
Refer: 3 97 N 1 0 0 1 0 0 3
EndChar

